NotoSerifGrantha-Regular.ufo
<glyph name="anudatta_deva" format="2">
  <unicode hex="0952"/>
  <anchor x="-249" y="-40" name="_anudatta"/>
  <outline>
    <contour>
      <point x="-413" y="-77" type="line"/>
      <point x="-413" y="-149" type="line"/>
      <point x="-84" y="-149" type="line"/>
      <point x="-84" y="-77" type="line"/>
    </contour>
  </outline>
</glyph>
<glyph name="pa_tamil" format="2">
  <advance width="898"/>
  <unicode hex="0BAA"/>
  <outline>
    <contour>
      <point x="98" y="0" type="line"/>
      <point x="801" y="0" type="line"/>
      <point x="801" y="554" type="line"/>
      <point x="706" y="554" type="line"/>
      <point x="706" y="54" type="line"/>
      <point x="192" y="54" type="line"/>
      <point x="192" y="554" type="line"/>
      <point x="98" y="554" type="line"/>
    </contour>
  </outline>
</glyph>
<glyph name="karshana_vedic" format="2">
  <unicode hex="1CD0"/>
  <guideline x="283" y="1214" angle="180"/>
  <anchor x="-194" y="590" name="_top"/>
  <outline>
    <contour>
      <point x="-375" y="649" type="line"/>
      <point x="-311" y="624" type="line"/>
      <point x="-198" y="837" type="line"/>
      <point x="-71" y="624" type="line"/>
      <point x="-12" y="651" type="line"/>
      <point x="-166" y="898" type="line"/>
      <point x="-237" y="898" type="line"/>
    </contour>
  </outline>
</glyph>
<glyph name="prenkha_vedic" format="2">
  <unicode hex="1CD2"/>
  <anchor x="-194" y="590" name="_top"/>
  <outline>
    <contour>
      <point x="-361" y="703" type="line"/>
      <point x="-361" y="636" type="line"/>
      <point x="-28" y="636" type="line"/>
      <point x="-28" y="703" type="line"/>
    </contour>
  </outline>
</glyph>
<glyph name="ardhavisarga_vedic" format="2">
  <advance width="521"/>
  <unicode hex="1CF2"/>
  <outline>
    <contour>
      <point x="471" y="529" type="curve"/>
      <point x="395" y="545" type="line"/>
      <point x="373" y="455"/>
      <point x="339" y="405"/>
      <point x="263" y="405" type="curve" smooth="yes"/>
      <point x="187" y="405"/>
      <point x="153" y="455"/>
      <point x="131" y="545" type="curve"/>
      <point x="55" y="529" type="line"/>
      <point x="86" y="400"/>
      <point x="173" y="351"/>
      <point x="263" y="351" type="curve" smooth="yes"/>
      <point x="353" y="351"/>
      <point x="440" y="400"/>
    </contour>
    <contour>
      <point x="471" y="25" type="line"/>
      <point x="440" y="154"/>
      <point x="353" y="203"/>
      <point x="263" y="203" type="curve" smooth="yes"/>
      <point x="173" y="203"/>
      <point x="86" y="154"/>
      <point x="55" y="25" type="curve"/>
      <point x="131" y="9" type="line"/>
      <point x="153" y="99"/>
      <point x="187" y="149"/>
      <point x="263" y="149" type="curve" smooth="yes"/>
      <point x="339" y="149"/>
      <point x="373" y="99"/>
      <point x="395" y="9" type="curve"/>
    </contour>
  </outline>
</glyph>
<glyph name="rotatedArdhavisarga_vedic" format="2">
  <advance width="635"/>
  <unicode hex="1CF3"/>
  <outline>
    <contour>
      <point x="497" y="50" type="curve"/>
      <point x="526" y="95" type="line"/>
      <point x="462" y="121"/>
      <point x="424" y="194"/>
      <point x="424" y="270" type="curve" smooth="yes"/>
      <point x="424" y="352"/>
      <point x="469" y="428"/>
      <point x="542" y="449" type="curve"/>
      <point x="512" y="495" type="line"/>
      <point x="408" y="462"/>
      <point x="348" y="376"/>
      <point x="348" y="270" type="curve" smooth="yes"/>
      <point x="348" y="170"/>
      <point x="401" y="87"/>
    </contour>
    <contour>
      <point x="138" y="50" type="line"/>
      <point x="234" y="87"/>
      <point x="287" y="170"/>
      <point x="287" y="270" type="curve" smooth="yes"/>
      <point x="287" y="376"/>
      <point x="227" y="462"/>
      <point x="123" y="495" type="curve"/>
      <point x="94" y="450" type="line"/>
      <point x="166" y="429"/>
      <point x="211" y="352"/>
      <point x="211" y="270" type="curve" smooth="yes"/>
      <point x="211" y="194"/>
      <point x="173" y="122"/>
      <point x="108" y="95" type="curve"/>
    </contour>
  </outline>
</glyph>
<glyph name="asteriskabovecomb" format="2">
  <unicode hex="20F0"/>
  <anchor x="-201" y="590" name="_svara"/>
  <anchor x="-435" y="807" name="_svara_mkmk"/>
  <anchor x="33" y="807" name="svara_mkmk"/>
  <outline>
    <contour>
      <point x="-237" y="912" type="line"/>
      <point x="-224" y="842" type="line"/>
      <point x="-286" y="876" type="line"/>
      <point x="-308" y="810" type="line"/>
      <point x="-238" y="800" type="line"/>
      <point x="-289" y="752" type="line"/>
      <point x="-233" y="710" type="line"/>
      <point x="-202" y="774" type="line"/>
      <point x="-171" y="710" type="line"/>
      <point x="-115" y="752" type="line"/>
      <point x="-166" y="800" type="line"/>
      <point x="-96" y="810" type="line"/>
      <point x="-118" y="876" type="line"/>
      <point x="-180" y="842" type="line"/>
      <point x="-167" y="912" type="line"/>
    </contour>
  </outline>
</glyph>
<glyph name="candrabindu_gran" format="2">
  <unicode hex="11301"/>
  <outline>
    <contour>
      <point x="-270" y="652" type="curve" smooth="yes"/>
      <point x="-179" y="652"/>
      <point x="-103" y="708"/>
      <point x="-81" y="829" type="curve"/>
      <point x="-147" y="847" type="line"/>
      <point x="-164" y="751"/>
      <point x="-210" y="713"/>
      <point x="-277" y="713" type="curve" smooth="yes"/>
      <point x="-356" y="713"/>
      <point x="-402" y="762"/>
      <point x="-428" y="836" type="curve"/>
      <point x="-463" y="824" type="line"/>
      <point x="-437" y="713"/>
      <point x="-349" y="652"/>
    </contour>
    <contour>
      <point x="-281" y="768" type="curve" smooth="yes"/>
      <point x="-258" y="768"/>
      <point x="-238" y="779"/>
      <point x="-238" y="814" type="curve" smooth="yes"/>
      <point x="-238" y="850"/>
      <point x="-258" y="860"/>
      <point x="-281" y="860" type="curve" smooth="yes"/>
      <point x="-305" y="860"/>
      <point x="-324" y="850"/>
      <point x="-324" y="814" type="curve" smooth="yes"/>
      <point x="-324" y="779"/>
      <point x="-305" y="768"/>
    </contour>
  </outline>
</glyph>
<glyph name="anusvara_gran" format="2">
  <unicode hex="11302"/>
  <guideline x="264" y="182" angle="90"/>
  <anchor x="0" y="0" name="_anusvara"/>
  <anchor x="529" y="0" name="post"/>
  <outline>
    <contour>
      <point x="264" y="-12" type="curve" smooth="yes"/>
      <point x="367" y="-12"/>
      <point x="452" y="69"/>
      <point x="452" y="190" type="curve" smooth="yes"/>
      <point x="452" y="311"/>
      <point x="367" y="392"/>
      <point x="264" y="392" type="curve" smooth="yes"/>
      <point x="155" y="392"/>
      <point x="76" y="311"/>
      <point x="76" y="190" type="curve" smooth="yes"/>
      <point x="76" y="69"/>
      <point x="155" y="-12"/>
    </contour>
    <contour>
      <point x="248" y="40" type="curve" smooth="yes"/>
      <point x="177" y="40"/>
      <point x="130" y="99"/>
      <point x="130" y="190" type="curve" smooth="yes"/>
      <point x="130" y="280"/>
      <point x="177" y="338"/>
      <point x="248" y="338" type="curve" smooth="yes"/>
      <point x="323" y="338"/>
      <point x="367" y="289"/>
      <point x="367" y="190" type="curve" smooth="yes"/>
      <point x="367" y="91"/>
      <point x="323" y="40"/>
    </contour>
  </outline>
</glyph>
<glyph name="visarga_gran" format="2">
  <advance width="405"/>
  <unicode hex="11303"/>
  <outline>
    <contour>
      <point x="201" y="305" type="curve" smooth="yes"/>
      <point x="272" y="305"/>
      <point x="335" y="350"/>
      <point x="335" y="433" type="curve" smooth="yes"/>
      <point x="335" y="515"/>
      <point x="272" y="561"/>
      <point x="201" y="561" type="curve" smooth="yes"/>
      <point x="127" y="561"/>
      <point x="70" y="505"/>
      <point x="70" y="433" type="curve" smooth="yes"/>
      <point x="70" y="360"/>
      <point x="127" y="305"/>
    </contour>
    <contour>
      <point x="193" y="355" type="curve" smooth="yes"/>
      <point x="151" y="355"/>
      <point x="118" y="386"/>
      <point x="118" y="433" type="curve" smooth="yes"/>
      <point x="118" y="481"/>
      <point x="151" y="511"/>
      <point x="193" y="511" type="curve" smooth="yes"/>
      <point x="235" y="511"/>
      <point x="265" y="477"/>
      <point x="265" y="433" type="curve" smooth="yes"/>
      <point x="265" y="390"/>
      <point x="235" y="355"/>
    </contour>
    <contour>
      <point x="201" y="-9" type="curve" smooth="yes"/>
      <point x="272" y="-9"/>
      <point x="335" y="36"/>
      <point x="335" y="119" type="curve" smooth="yes"/>
      <point x="335" y="201"/>
      <point x="272" y="247"/>
      <point x="201" y="247" type="curve" smooth="yes"/>
      <point x="127" y="247"/>
      <point x="70" y="191"/>
      <point x="70" y="119" type="curve" smooth="yes"/>
      <point x="70" y="46"/>
      <point x="127" y="-9"/>
    </contour>
    <contour>
      <point x="193" y="41" type="curve" smooth="yes"/>
      <point x="151" y="41"/>
      <point x="118" y="72"/>
      <point x="118" y="119" type="curve" smooth="yes"/>
      <point x="118" y="167"/>
      <point x="151" y="197"/>
      <point x="193" y="197" type="curve" smooth="yes"/>
      <point x="235" y="197"/>
      <point x="265" y="163"/>
      <point x="265" y="119" type="curve" smooth="yes"/>
      <point x="265" y="76"/>
      <point x="235" y="41"/>
    </contour>
  </outline>
</glyph>
<glyph name="a_gran" format="2">
  <advance width="1008"/>
  <unicode hex="11305"/>
  <outline>
    <contour>
      <point x="275" y="-12" type="curve" smooth="yes"/>
      <point x="424" y="-12"/>
      <point x="514" y="72"/>
      <point x="514" y="200" type="curve" smooth="yes"/>
      <point x="514" y="267" type="line"/>
      <point x="930" y="267" type="line"/>
      <point x="930" y="321" type="line"/>
      <point x="514" y="321" type="line"/>
      <point x="514" y="500" type="line"/>
      <point x="689" y="500" type="line"/>
      <point x="689" y="554" type="line"/>
      <point x="195" y="554" type="line"/>
      <point x="195" y="286" type="line"/>
      <point x="256" y="286" type="line"/>
      <point x="256" y="500" type="line"/>
      <point x="419" y="500" type="line"/>
      <point x="419" y="321" type="line"/>
      <point x="251" y="321" type="line" smooth="yes"/>
      <point x="136" y="321"/>
      <point x="63" y="256"/>
      <point x="63" y="162" type="curve" smooth="yes"/>
      <point x="63" y="51"/>
      <point x="136" y="-12"/>
    </contour>
    <contour>
      <point x="270" y="42" type="curve" smooth="yes"/>
      <point x="189" y="42"/>
      <point x="125" y="76"/>
      <point x="125" y="160" type="curve" smooth="yes"/>
      <point x="125" y="223"/>
      <point x="173" y="267"/>
      <point x="259" y="267" type="curve" smooth="yes"/>
      <point x="419" y="267" type="line"/>
      <point x="419" y="189" type="line" smooth="yes"/>
      <point x="419" y="82"/>
      <point x="351" y="42"/>
    </contour>
    <contour>
      <point x="842" y="484" type="line"/>
      <point x="842" y="150" type="line" smooth="yes"/>
      <point x="842" y="79"/>
      <point x="824" y="42"/>
      <point x="772" y="42" type="curve" smooth="yes"/>
      <point x="730" y="42"/>
      <point x="694" y="68"/>
      <point x="694" y="154" type="curve" smooth="yes"/>
      <point x="694" y="284" type="line"/>
      <point x="629" y="284" type="line"/>
      <point x="629" y="153" type="line" smooth="yes"/>
      <point x="629" y="51"/>
      <point x="676" y="-12"/>
      <point x="772" y="-12" type="curve" smooth="yes"/>
      <point x="871" y="-12"/>
      <point x="930" y="60"/>
      <point x="930" y="150" type="curve" smooth="yes"/>
      <point x="930" y="484" type="line"/>
    </contour>
  </outline>
</glyph>
<glyph name="aa_gran" format="2">
  <advance width="1379"/>
  <unicode hex="11306"/>
  <outline>
    <contour>
      <point x="120" y="124" type="curve"/>
      <point x="52" y="124" type="line"/>
      <point x="101" y="-76"/>
      <point x="299" y="-258"/>
      <point x="697" y="-258" type="curve" smooth="yes"/>
      <point x="1066" y="-258"/>
      <point x="1309" y="-133"/>
      <point x="1309" y="95" type="curve" smooth="yes"/>
      <point x="1309" y="224"/>
      <point x="1236" y="321"/>
      <point x="1066" y="321" type="curve" smooth="yes"/>
      <point x="961" y="321" type="line"/>
      <point x="961" y="267" type="line"/>
      <point x="1055" y="267" type="line" smooth="yes"/>
      <point x="1160" y="267"/>
      <point x="1221" y="207"/>
      <point x="1221" y="91" type="curve" smooth="yes"/>
      <point x="1221" y="-94"/>
      <point x="1045" y="-204"/>
      <point x="702" y="-204" type="curve" smooth="yes"/>
      <point x="381" y="-204"/>
      <point x="176" y="-79"/>
    </contour>
    <component base="a_gran" xOffset="165"/>
  </outline>
</glyph>
<glyph name="i_gran" format="2">
  <advance width="906"/>
  <unicode hex="11307"/>
  <outline>
    <contour>
      <point x="184" y="135" type="curve" smooth="yes"/>
      <point x="490" y="135" type="line" smooth="yes"/>
      <point x="689" y="135"/>
      <point x="826" y="193"/>
      <point x="826" y="370" type="curve" smooth="yes"/>
      <point x="826" y="510"/>
      <point x="726" y="559"/>
      <point x="645" y="559" type="curve" smooth="yes"/>
      <point x="573" y="559"/>
      <point x="504" y="521"/>
      <point x="476" y="450" type="curve"/>
      <point x="444" y="522"/>
      <point x="367" y="559"/>
      <point x="288" y="559" type="curve" smooth="yes"/>
      <point x="160" y="559"/>
      <point x="60" y="484"/>
      <point x="60" y="378" type="curve" smooth="yes"/>
      <point x="60" y="307"/>
      <point x="123" y="233"/>
      <point x="215" y="233" type="curve" smooth="yes"/>
      <point x="290" y="233"/>
      <point x="352" y="274"/>
      <point x="352" y="342" type="curve" smooth="yes"/>
      <point x="352" y="421"/>
      <point x="298" y="466"/>
      <point x="232" y="466" type="curve" smooth="yes"/>
      <point x="180" y="466"/>
      <point x="108" y="435"/>
      <point x="98" y="329" type="curve"/>
      <point x="123" y="295" type="line"/>
      <point x="131" y="384"/>
      <point x="169" y="411"/>
      <point x="209" y="411" type="curve" smooth="yes"/>
      <point x="245" y="411"/>
      <point x="268" y="385"/>
      <point x="268" y="345" type="curve" smooth="yes"/>
      <point x="268" y="310"/>
      <point x="248" y="282"/>
      <point x="207" y="282" type="curve" smooth="yes"/>
      <point x="161" y="282"/>
      <point x="114" y="312"/>
      <point x="114" y="384" type="curve" smooth="yes"/>
      <point x="114" y="459"/>
      <point x="190" y="510"/>
      <point x="271" y="510" type="curve" smooth="yes"/>
      <point x="366" y="510"/>
      <point x="429" y="456"/>
      <point x="429" y="351" type="curve" smooth="yes"/>
      <point x="429" y="296" type="line"/>
      <point x="516" y="296" type="line"/>
      <point x="516" y="375" type="line" smooth="yes"/>
      <point x="516" y="450"/>
      <point x="562" y="510"/>
      <point x="635" y="510" type="curve" smooth="yes"/>
      <point x="704" y="510"/>
      <point x="739" y="456"/>
      <point x="739" y="379" type="curve" smooth="yes"/>
      <point x="739" y="239"/>
      <point x="630" y="189"/>
      <point x="490" y="189" type="curve" smooth="yes"/>
      <point x="192" y="189" type="line" smooth="yes"/>
      <point x="128" y="189"/>
      <point x="87" y="154"/>
      <point x="87" y="94" type="curve" smooth="yes"/>
      <point x="87" y="35"/>
      <point x="128" y="0"/>
      <point x="192" y="0" type="curve" smooth="yes"/>
      <point x="826" y="0" type="line"/>
      <point x="826" y="54" type="line"/>
      <point x="184" y="54" type="line" smooth="yes"/>
      <point x="163" y="54"/>
      <point x="145" y="69"/>
      <point x="145" y="94" type="curve" smooth="yes"/>
      <point x="145" y="120"/>
      <point x="163" y="135"/>
    </contour>
  </outline>
</glyph>
<glyph name="ii_gran" format="2">
  <advance width="1244"/>
  <unicode hex="11308"/>
  <outline>
    <contour>
      <point x="358" y="0" type="line"/>
      <point x="418" y="0" type="line"/>
      <point x="418" y="500" type="line"/>
      <point x="1012" y="500" type="line"/>
      <point x="1012" y="554" type="line"/>
      <point x="358" y="554" type="line"/>
    </contour>
    <contour>
      <point x="886" y="554" type="line"/>
      <point x="826" y="554" type="line"/>
      <point x="826" y="210" type="line" smooth="yes"/>
      <point x="826" y="76"/>
      <point x="783" y="54"/>
      <point x="728" y="54" type="curve" smooth="yes"/>
      <point x="674" y="54"/>
      <point x="639" y="87"/>
      <point x="639" y="196" type="curve" smooth="yes"/>
      <point x="639" y="554" type="line"/>
      <point x="544" y="554" type="line"/>
      <point x="544" y="195" type="line" smooth="yes"/>
      <point x="544" y="50"/>
      <point x="618" y="-5"/>
      <point x="713" y="-5" type="curve" smooth="yes"/>
      <point x="815" y="-5"/>
      <point x="886" y="47"/>
      <point x="886" y="210" type="curve" smooth="yes"/>
    </contour>
    <component base="anusvaraAbove_gran" xOffset="374" yOffset="-469"/>
    <component base="anusvaraAbove_gran" xOffset="1258" yOffset="-469"/>
  </outline>
</glyph>
<glyph name="uu_gran" format="2">
  <advance width="1741"/>
  <unicode hex="1130A"/>
  <anchor x="738" y="-60" name="anudatta"/>
  <anchor x="1741" y="0" name="anusvara"/>
  <anchor x="1480" y="0" name="post"/>
  <anchor x="737" y="900" name="svara"/>
  <anchor x="738" y="640" name="top"/>
  <anchor x="1765" y="0" name="vattu"/>
  <outline>
    <contour>
      <point x="690" y="54" type="line"/>
      <point x="690" y="0" type="line"/>
      <point x="1716" y="0" type="line"/>
      <point x="1716" y="54" type="line"/>
    </contour>
    <contour>
      <point x="950" y="103" type="curve" smooth="yes"/>
      <point x="1055" y="103"/>
      <point x="1111" y="170"/>
      <point x="1111" y="242" type="curve" smooth="yes"/>
      <point x="1111" y="334"/>
      <point x="1045" y="390"/>
      <point x="962" y="390" type="curve" smooth="yes"/>
      <point x="890" y="390"/>
      <point x="816" y="334"/>
      <point x="801" y="252" type="curve"/>
      <point x="815" y="209" type="line"/>
      <point x="829" y="272"/>
      <point x="880" y="327"/>
      <point x="939" y="327" type="curve" smooth="yes"/>
      <point x="986" y="327"/>
      <point x="1018" y="296"/>
      <point x="1018" y="245" type="curve" smooth="yes"/>
      <point x="1018" y="200"/>
      <point x="990" y="156"/>
      <point x="932" y="156" type="curve" smooth="yes"/>
      <point x="863" y="156"/>
      <point x="813" y="204"/>
      <point x="813" y="319" type="curve" smooth="yes"/>
      <point x="813" y="425"/>
      <point x="899" y="505"/>
      <point x="1008" y="505" type="curve" smooth="yes"/>
      <point x="1139" y="505"/>
      <point x="1220" y="418"/>
      <point x="1220" y="301" type="curve"/>
      <point x="1262" y="301" type="line"/>
      <point x="1262" y="458"/>
      <point x="1164" y="559"/>
      <point x="1006" y="559" type="curve" smooth="yes"/>
      <point x="861" y="559"/>
      <point x="754" y="456"/>
      <point x="754" y="317" type="curve" smooth="yes"/>
      <point x="754" y="181"/>
      <point x="838" y="103"/>
    </contour>
    <contour>
      <point x="1220" y="107" type="line"/>
      <point x="1315" y="107" type="line"/>
      <point x="1315" y="502" type="line"/>
      <point x="1509" y="502" type="line"/>
      <point x="1509" y="107" type="line"/>
      <point x="1604" y="107" type="line"/>
      <point x="1604" y="502" type="line"/>
      <point x="1716" y="502" type="line"/>
      <point x="1716" y="554" type="line"/>
      <point x="1225" y="554" type="line"/>
      <point x="1225" y="379" type="line"/>
      <point x="1220" y="375" type="line"/>
    </contour>
    <component base="u_gran"/>
  </outline>
</glyph>
<glyph name="rVocalic_gran" format="2">
  <advance width="785"/>
  <unicode hex="1130B"/>
  <outline>
    <contour>
      <point x="392" y="207" type="curve" smooth="yes"/>
      <point x="122" y="207"/>
      <point x="70" y="360"/>
      <point x="70" y="442" type="curve" smooth="yes"/>
      <point x="70" y="536"/>
      <point x="137" y="576"/>
      <point x="210" y="576" type="curve" smooth="yes"/>
      <point x="268" y="576"/>
      <point x="333" y="550"/>
      <point x="333" y="473" type="curve" smooth="yes"/>
      <point x="333" y="372"/>
      <point x="211" y="335"/>
      <point x="134" y="350" type="curve"/>
      <point x="123" y="404" type="line"/>
      <point x="196" y="384"/>
      <point x="281" y="413"/>
      <point x="281" y="471" type="curve" smooth="yes"/>
      <point x="281" y="508"/>
      <point x="246" y="522"/>
      <point x="214" y="522" type="curve" smooth="yes"/>
      <point x="172" y="522"/>
      <point x="138" y="498"/>
      <point x="138" y="443" type="curve" smooth="yes"/>
      <point x="138" y="397"/>
      <point x="172" y="261"/>
      <point x="392" y="261" type="curve" smooth="yes"/>
      <point x="616" y="261"/>
      <point x="647" y="397"/>
      <point x="647" y="443" type="curve" smooth="yes"/>
      <point x="647" y="500"/>
      <point x="612" y="522"/>
      <point x="571" y="522" type="curve" smooth="yes"/>
      <point x="538" y="522"/>
      <point x="504" y="508"/>
      <point x="504" y="471" type="curve" smooth="yes"/>
      <point x="504" y="413"/>
      <point x="589" y="384"/>
      <point x="662" y="404" type="curve"/>
      <point x="651" y="350" type="line"/>
      <point x="574" y="335"/>
      <point x="452" y="372"/>
      <point x="452" y="473" type="curve" smooth="yes"/>
      <point x="452" y="550"/>
      <point x="516" y="576"/>
      <point x="574" y="576" type="curve" smooth="yes"/>
      <point x="647" y="576"/>
      <point x="715" y="536"/>
      <point x="715" y="442" type="curve" smooth="yes"/>
      <point x="715" y="360"/>
      <point x="662" y="207"/>
    </contour>
    <contour>
      <point x="70" y="31" type="curve" smooth="yes"/>
      <point x="70" y="179"/>
      <point x="238" y="261"/>
      <point x="392" y="261" type="curve" smooth="yes"/>
      <point x="542" y="261"/>
      <point x="715" y="180"/>
      <point x="715" y="31" type="curve" smooth="yes"/>
      <point x="715" y="-65"/>
      <point x="641" y="-132"/>
      <point x="537" y="-132" type="curve" smooth="yes"/>
      <point x="449" y="-132"/>
      <point x="413" y="-80"/>
      <point x="388" y="-36" type="curve"/>
      <point x="395" y="-36" type="line"/>
      <point x="370" y="-80"/>
      <point x="334" y="-132"/>
      <point x="239" y="-132" type="curve" smooth="yes"/>
      <point x="140" y="-132"/>
      <point x="70" y="-71"/>
    </contour>
    <contour>
      <point x="392" y="207" type="curve" smooth="yes"/>
      <point x="291" y="207"/>
      <point x="165" y="172"/>
      <point x="165" y="29" type="curve" smooth="yes"/>
      <point x="165" y="-41"/>
      <point x="194" y="-78"/>
      <point x="249" y="-78" type="curve" smooth="yes"/>
      <point x="308" y="-78"/>
      <point x="351" y="-35"/>
      <point x="360" y="6" type="curve"/>
      <point x="424" y="6" type="line"/>
      <point x="433" y="-35"/>
      <point x="479" y="-78"/>
      <point x="532" y="-78" type="curve" smooth="yes"/>
      <point x="582" y="-78"/>
      <point x="620" y="-41"/>
      <point x="620" y="36" type="curve" smooth="yes"/>
      <point x="620" y="172"/>
      <point x="498" y="207"/>
    </contour>
  </outline>
</glyph>
<glyph name="lVocalic_gran" format="2">
  <advance width="1362"/>
  <unicode hex="1130C"/>
  <outline>
    <contour>
      <point x="289" y="-4" type="curve" smooth="yes"/>
      <point x="398" y="-4"/>
      <point x="470" y="60"/>
      <point x="470" y="150" type="curve" smooth="yes"/>
      <point x="470" y="242"/>
      <point x="412" y="304"/>
      <point x="318" y="304" type="curve" smooth="yes"/>
      <point x="220" y="304"/>
      <point x="138" y="229"/>
      <point x="131" y="124" type="curve"/>
      <point x="161" y="97" type="line"/>
      <point x="167" y="185"/>
      <point x="216" y="236"/>
      <point x="281" y="236" type="curve" smooth="yes"/>
      <point x="348" y="236"/>
      <point x="377" y="191"/>
      <point x="377" y="146" type="curve" smooth="yes"/>
      <point x="377" y="92"/>
      <point x="338" y="49"/>
      <point x="272" y="49" type="curve" smooth="yes"/>
      <point x="198" y="49"/>
      <point x="128" y="115"/>
      <point x="128" y="249" type="curve" smooth="yes"/>
      <point x="128" y="415"/>
      <point x="247" y="505"/>
      <point x="395" y="505" type="curve" smooth="yes"/>
      <point x="561" y="505"/>
      <point x="660" y="420"/>
      <point x="660" y="269" type="curve"/>
      <point x="716" y="273" type="line"/>
      <point x="711" y="455"/>
      <point x="589" y="559"/>
      <point x="394" y="559" type="curve" smooth="yes"/>
      <point x="217" y="559"/>
      <point x="70" y="454"/>
      <point x="70" y="250" type="curve" smooth="yes"/>
      <point x="70" y="83"/>
      <point x="173" y="-4"/>
    </contour>
    <contour>
      <point x="660" y="0" type="line"/>
      <point x="755" y="0" type="line"/>
      <point x="755" y="500" type="line"/>
      <point x="1352" y="500" type="line"/>
      <point x="1352" y="554" type="line"/>
      <point x="665" y="554" type="line"/>
      <point x="665" y="387" type="line"/>
      <point x="660" y="382" type="line"/>
    </contour>
    <contour>
      <point x="1188" y="554" type="line"/>
      <point x="1188" y="210" type="line" smooth="yes"/>
      <point x="1188" y="76"/>
      <point x="1137" y="54"/>
      <point x="1077" y="54" type="curve" smooth="yes"/>
      <point x="1020" y="54"/>
      <point x="972" y="87"/>
      <point x="972" y="196" type="curve" smooth="yes"/>
      <point x="972" y="554" type="line"/>
      <point x="877" y="554" type="line"/>
      <point x="877" y="195" type="line" smooth="yes"/>
      <point x="877" y="50"/>
      <point x="964" y="-5"/>
      <point x="1067" y="-5" type="curve" smooth="yes"/>
      <point x="1169" y="-5"/>
      <point x="1247" y="47"/>
      <point x="1247" y="210" type="curve" smooth="yes"/>
      <point x="1247" y="554" type="line"/>
    </contour>
  </outline>
</glyph>
<glyph name="ee_gran" format="2">
  <advance width="1871"/>
  <unicode hex="1130F"/>
  <outline>
    <contour>
      <point x="579" y="60" type="curve"/>
      <point x="579" y="-5" type="line"/>
      <point x="580" y="-5"/>
      <point x="581" y="-5"/>
      <point x="582" y="-5" type="curve" smooth="yes"/>
      <point x="694" y="-5"/>
      <point x="787" y="115"/>
      <point x="787" y="259" type="curve" smooth="yes"/>
      <point x="787" y="440"/>
      <point x="641" y="559"/>
      <point x="433" y="559" type="curve" smooth="yes"/>
      <point x="231" y="559"/>
      <point x="70" y="445"/>
      <point x="70" y="234" type="curve" smooth="yes"/>
      <point x="70" y="77"/>
      <point x="178" y="-4"/>
      <point x="290" y="-4" type="curve" smooth="yes"/>
      <point x="398" y="-4"/>
      <point x="470" y="60"/>
      <point x="470" y="150" type="curve" smooth="yes"/>
      <point x="470" y="242"/>
      <point x="412" y="304"/>
      <point x="318" y="304" type="curve" smooth="yes"/>
      <point x="221" y="304"/>
      <point x="139" y="229"/>
      <point x="132" y="124" type="curve"/>
      <point x="162" y="97" type="line"/>
      <point x="168" y="185"/>
      <point x="217" y="236"/>
      <point x="285" y="236" type="curve" smooth="yes"/>
      <point x="349" y="236"/>
      <point x="378" y="191"/>
      <point x="378" y="146" type="curve" smooth="yes"/>
      <point x="378" y="92"/>
      <point x="339" y="49"/>
      <point x="273" y="49" type="curve" smooth="yes"/>
      <point x="201" y="49"/>
      <point x="128" y="109"/>
      <point x="128" y="231" type="curve" smooth="yes"/>
      <point x="128" y="407"/>
      <point x="230" y="505"/>
      <point x="419" y="505" type="curve" smooth="yes"/>
      <point x="585" y="505"/>
      <point x="689" y="419"/>
      <point x="689" y="257" type="curve" smooth="yes"/>
      <point x="689" y="139"/>
      <point x="631" y="68"/>
    </contour>
    <contour>
      <point x="1606" y="0" type="line"/>
      <point x="1701" y="0" type="line"/>
      <point x="1701" y="529" type="line"/>
      <point x="1606" y="529" type="line"/>
    </contour>
    <contour>
      <point x="927" y="56" type="curve"/>
      <point x="1008" y="56" type="line"/>
      <point x="959" y="108"/>
      <point x="942" y="192"/>
      <point x="942" y="256" type="curve" smooth="yes"/>
      <point x="942" y="392"/>
      <point x="1028" y="505"/>
      <point x="1187" y="505" type="curve" smooth="yes"/>
      <point x="1331" y="505"/>
      <point x="1408" y="390"/>
      <point x="1408" y="238" type="curve" smooth="yes"/>
      <point x="1408" y="123"/>
      <point x="1371" y="49"/>
      <point x="1305" y="49" type="curve" smooth="yes"/>
      <point x="1234" y="49"/>
      <point x="1191" y="145"/>
      <point x="1191" y="231" type="curve" smooth="yes"/>
      <point x="1191" y="351"/>
      <point x="1272" y="500"/>
      <point x="1524" y="500" type="curve" smooth="yes"/>
      <point x="1847" y="500" type="line"/>
      <point x="1847" y="554" type="line"/>
      <point x="1524" y="554" type="line" smooth="yes"/>
      <point x="1264" y="554"/>
      <point x="1135" y="405"/>
      <point x="1135" y="229" type="curve" smooth="yes"/>
      <point x="1135" y="109"/>
      <point x="1200" y="-5"/>
      <point x="1312" y="-5" type="curve" smooth="yes"/>
      <point x="1416" y="-5"/>
      <point x="1506" y="91"/>
      <point x="1506" y="237" type="curve" smooth="yes"/>
      <point x="1506" y="414"/>
      <point x="1375" y="559"/>
      <point x="1181" y="559" type="curve" smooth="yes"/>
      <point x="959" y="559"/>
      <point x="870" y="395"/>
      <point x="870" y="248" type="curve" smooth="yes"/>
      <point x="870" y="165"/>
      <point x="896" y="96"/>
    </contour>
    <contour>
      <point x="579" y="57" type="line"/>
      <point x="579" y="-5" type="line"/>
      <point x="1008" y="-5" type="line"/>
      <point x="1008" y="56" type="line"/>
    </contour>
  </outline>
</glyph>
<glyph name="ka_gran" format="2">
  <advance width="1145"/>
  <unicode hex="11315"/>
  <outline>
    <contour>
      <point x="225" y="44" type="curve" smooth="yes"/>
      <point x="168" y="44"/>
      <point x="128" y="86"/>
      <point x="128" y="146" type="curve" smooth="yes"/>
      <point x="128" y="223"/>
      <point x="197" y="275"/>
      <point x="299" y="275" type="curve" smooth="yes"/>
      <point x="559" y="275" type="line"/>
      <point x="559" y="189" type="line" smooth="yes"/>
      <point x="559" y="97"/>
      <point x="534" y="42"/>
      <point x="483" y="42" type="curve" smooth="yes"/>
      <point x="426" y="42"/>
      <point x="406" y="109"/>
      <point x="406" y="171" type="curve"/>
      <point x="329" y="171" type="line"/>
      <point x="329" y="110"/>
      <point x="297" y="44"/>
    </contour>
    <contour>
      <point x="815" y="275" type="line" smooth="yes"/>
      <point x="938" y="275"/>
      <point x="1005" y="214"/>
      <point x="1005" y="139" type="curve" smooth="yes"/>
      <point x="1005" y="77"/>
      <point x="959" y="42"/>
      <point x="903" y="42" type="curve" smooth="yes"/>
      <point x="841" y="42"/>
      <point x="802" y="76"/>
      <point x="802" y="136" type="curve" smooth="yes"/>
      <point x="802" y="223"/>
      <point x="865" y="249"/>
      <point x="917" y="269" type="curve"/>
      <point x="881" y="296" type="line"/>
      <point x="799" y="281"/>
      <point x="745" y="216"/>
      <point x="745" y="135" type="curve" smooth="yes"/>
      <point x="745" y="43"/>
      <point x="814" y="-12"/>
      <point x="908" y="-12" type="curve" smooth="yes"/>
      <point x="1002" y="-12"/>
      <point x="1091" y="42"/>
      <point x="1091" y="142" type="curve" smooth="yes"/>
      <point x="1091" y="247"/>
      <point x="997" y="329"/>
      <point x="855" y="329" type="curve" smooth="yes"/>
      <point x="654" y="329" type="line"/>
      <point x="654" y="500" type="line"/>
      <point x="849" y="500" type="line"/>
      <point x="849" y="554" type="line"/>
      <point x="236" y="554" type="line"/>
      <point x="236" y="286" type="line"/>
      <point x="298" y="286" type="line"/>
      <point x="298" y="500" type="line"/>
      <point x="559" y="500" type="line"/>
      <point x="559" y="329" type="line"/>
      <point x="291" y="329" type="line" smooth="yes"/>
      <point x="146" y="329"/>
      <point x="63" y="248"/>
      <point x="63" y="147" type="curve" smooth="yes"/>
      <point x="63" y="51"/>
      <point x="133" y="-12"/>
      <point x="225" y="-12" type="curve" smooth="yes"/>
      <point x="310" y="-12"/>
      <point x="353" y="42"/>
      <point x="376" y="91" type="curve"/>
      <point x="355" y="91" type="line"/>
      <point x="377" y="42"/>
      <point x="412" y="-12"/>
      <point x="496" y="-12" type="curve" smooth="yes"/>
      <point x="607" y="-12"/>
      <point x="654" y="78"/>
      <point x="654" y="200" type="curve" smooth="yes"/>
      <point x="654" y="275" type="line"/>
    </contour>
  </outline>
</glyph>
<glyph name="kha_gran" format="2">
  <advance width="1338"/>
  <unicode hex="11316"/>
  <outline>
    <contour>
      <point x="814" y="294" type="curve" smooth="yes"/>
      <point x="814" y="458"/>
      <point x="660" y="559"/>
      <point x="468" y="559" type="curve" smooth="yes"/>
      <point x="242" y="559"/>
      <point x="70" y="430"/>
      <point x="70" y="224" type="curve" smooth="yes"/>
      <point x="70" y="67"/>
      <point x="178" y="-14"/>
      <point x="290" y="-14" type="curve" smooth="yes"/>
      <point x="398" y="-14"/>
      <point x="470" y="50"/>
      <point x="470" y="140" type="curve" smooth="yes"/>
      <point x="470" y="232"/>
      <point x="412" y="294"/>
      <point x="318" y="294" type="curve" smooth="yes"/>
      <point x="221" y="294"/>
      <point x="139" y="219"/>
      <point x="132" y="114" type="curve"/>
      <point x="162" y="87" type="line"/>
      <point x="168" y="175"/>
      <point x="217" y="226"/>
      <point x="281" y="226" type="curve" smooth="yes"/>
      <point x="349" y="226"/>
      <point x="378" y="181"/>
      <point x="378" y="136" type="curve" smooth="yes"/>
      <point x="378" y="82"/>
      <point x="339" y="39"/>
      <point x="273" y="39" type="curve" smooth="yes"/>
      <point x="201" y="39"/>
      <point x="128" y="99"/>
      <point x="128" y="221" type="curve" smooth="yes"/>
      <point x="128" y="393"/>
      <point x="263" y="505"/>
      <point x="455" y="505" type="curve" smooth="yes"/>
      <point x="604" y="505"/>
      <point x="719" y="427"/>
      <point x="719" y="302" type="curve" smooth="yes"/>
      <point x="719" y="257"/>
      <point x="701" y="214"/>
      <point x="657" y="177" type="curve" smooth="yes"/>
      <point x="613" y="140"/>
      <point x="555" y="126"/>
      <point x="555" y="75" type="curve" smooth="yes"/>
      <point x="555" y="27"/>
      <point x="591" y="0"/>
      <point x="655" y="0" type="curve" smooth="yes"/>
      <point x="1097" y="0" type="line"/>
      <point x="1097" y="54" type="line"/>
      <point x="654" y="54" type="line" smooth="yes"/>
      <point x="633" y="54"/>
      <point x="615" y="62"/>
      <point x="615" y="79" type="curve" smooth="yes"/>
      <point x="615" y="104"/>
      <point x="676" y="111"/>
      <point x="740" y="159" type="curve" smooth="yes"/>
      <point x="771" y="182"/>
      <point x="814" y="221"/>
    </contour>
    <contour>
      <point x="933" y="54" type="line"/>
      <point x="933" y="0" type="line"/>
      <point x="1258" y="0" type="line"/>
      <point x="1258" y="554" type="line"/>
      <point x="1163" y="554" type="line"/>
      <point x="1163" y="54" type="line"/>
    </contour>
  </outline>
</glyph>
<glyph name="gha_gran" format="2">
  <advance width="1423"/>
  <unicode hex="11318"/>
  <outline>
    <contour>
      <point x="1258" y="0" type="line"/>
      <point x="1343" y="0" type="line"/>
      <point x="1343" y="554" type="line"/>
      <point x="1258" y="554" type="line"/>
    </contour>
    <component base="gha.base" xOffset="11"/>
  </outline>
</glyph>
<glyph name="nga_gran" format="2">
  <advance width="924"/>
  <unicode hex="11319"/>
  <outline>
    <contour>
      <point x="427" y="-76" type="line"/>
      <point x="427" y="-240" type="line"/>
      <point x="522" y="-240" type="line"/>
      <point x="522" y="-76" type="line"/>
    </contour>
    <contour>
      <point x="301" y="-33" type="line" smooth="yes"/>
      <point x="224" y="-33"/>
      <point x="182" y="-8"/>
      <point x="182" y="43" type="curve" smooth="yes"/>
      <point x="182" y="144"/>
      <point x="316" y="125"/>
      <point x="397" y="125" type="curve" smooth="yes"/>
      <point x="520" y="125" type="line" smooth="yes"/>
      <point x="739" y="125"/>
      <point x="854" y="224"/>
      <point x="854" y="401" type="curve" smooth="yes"/>
      <point x="854" y="551"/>
      <point x="747" y="590"/>
      <point x="661" y="590" type="curve" smooth="yes"/>
      <point x="574" y="590"/>
      <point x="519" y="552"/>
      <point x="491" y="481" type="curve"/>
      <point x="459" y="553"/>
      <point x="377" y="590"/>
      <point x="291" y="590" type="curve" smooth="yes"/>
      <point x="170" y="590"/>
      <point x="70" y="515"/>
      <point x="70" y="399" type="curve" smooth="yes"/>
      <point x="70" y="298"/>
      <point x="133" y="224"/>
      <point x="225" y="224" type="curve" smooth="yes"/>
      <point x="300" y="224"/>
      <point x="362" y="265"/>
      <point x="362" y="343" type="curve" smooth="yes"/>
      <point x="362" y="412"/>
      <point x="308" y="457"/>
      <point x="242" y="457" type="curve" smooth="yes"/>
      <point x="190" y="457"/>
      <point x="118" y="426"/>
      <point x="108" y="320" type="curve"/>
      <point x="133" y="286" type="line"/>
      <point x="141" y="375"/>
      <point x="179" y="402"/>
      <point x="219" y="402" type="curve" smooth="yes"/>
      <point x="255" y="402"/>
      <point x="278" y="376"/>
      <point x="278" y="336" type="curve" smooth="yes"/>
      <point x="278" y="301"/>
      <point x="258" y="273"/>
      <point x="217" y="273" type="curve" smooth="yes"/>
      <point x="171" y="273"/>
      <point x="124" y="303"/>
      <point x="124" y="395" type="curve" smooth="yes"/>
      <point x="124" y="490"/>
      <point x="200" y="536"/>
      <point x="281" y="536" type="curve" smooth="yes"/>
      <point x="376" y="536"/>
      <point x="444" y="487"/>
      <point x="444" y="382" type="curve" smooth="yes"/>
      <point x="444" y="297" type="line"/>
      <point x="531" y="297" type="line"/>
      <point x="531" y="406" type="line" smooth="yes"/>
      <point x="531" y="481"/>
      <point x="571" y="536"/>
      <point x="654" y="536" type="curve" smooth="yes"/>
      <point x="733" y="536"/>
      <point x="759" y="487"/>
      <point x="759" y="400" type="curve" smooth="yes"/>
      <point x="759" y="260"/>
      <point x="680" y="177"/>
      <point x="520" y="177" type="curve" smooth="yes"/>
      <point x="359" y="177" type="line" smooth="yes"/>
      <point x="203" y="177"/>
      <point x="87" y="159"/>
      <point x="87" y="42" type="curve" smooth="yes"/>
      <point x="87" y="-50"/>
      <point x="171" y="-87"/>
      <point x="292" y="-87" type="curve" smooth="yes"/>
      <point x="831" y="-87" type="line"/>
      <point x="831" y="-33" type="line"/>
    </contour>
  </outline>
</glyph>
<glyph name="ca_gran" format="2">
  <advance width="1068"/>
  <unicode hex="1131A"/>
  <outline>
    <contour>
      <point x="893" y="554" type="line"/>
      <point x="893" y="16" type="line"/>
      <point x="988" y="16" type="line"/>
      <point x="988" y="554" type="line"/>
    </contour>
    <component base="ca.base"/>
  </outline>
</glyph>
<glyph name="cha_gran" format="2">
  <advance width="1330"/>
  <unicode hex="1131B"/>
  <outline>
    <contour>
      <point x="1228" y="54" type="line"/>
      <point x="900" y="54" type="line"/>
      <point x="900" y="0" type="line"/>
      <point x="1228" y="0" type="line"/>
    </contour>
    <contour>
      <point x="919" y="390" type="curve" smooth="yes"/>
      <point x="919" y="0" type="line"/>
      <point x="1014" y="0" type="line"/>
      <point x="1014" y="391" type="line" smooth="yes"/>
      <point x="1014" y="459"/>
      <point x="1044" y="505"/>
      <point x="1105" y="505" type="curve" smooth="yes"/>
      <point x="1154" y="505"/>
      <point x="1193" y="470"/>
      <point x="1193" y="404" type="curve" smooth="yes"/>
      <point x="1193" y="0" type="line"/>
      <point x="1254" y="0" type="line"/>
      <point x="1254" y="404" type="line" smooth="yes"/>
      <point x="1254" y="505"/>
      <point x="1187" y="559"/>
      <point x="1098" y="559" type="curve" smooth="yes"/>
      <point x="978" y="559"/>
      <point x="919" y="489"/>
    </contour>
    <component base="ca.base"/>
  </outline>
</glyph>
<glyph name="ja_gran" format="2">
  <advance width="889"/>
  <unicode hex="1131C"/>
  <outline>
    <contour>
      <point x="268" y="-122" type="curve" smooth="yes"/>
      <point x="470" y="-122"/>
      <point x="480" y="99"/>
      <point x="629" y="99" type="curve" smooth="yes"/>
      <point x="693" y="99"/>
      <point x="724" y="69"/>
      <point x="724" y="13" type="curve" smooth="yes"/>
      <point x="724" y="-37"/>
      <point x="692" y="-71"/>
      <point x="631" y="-71" type="curve" smooth="yes"/>
      <point x="607" y="-71"/>
      <point x="580" y="-65"/>
      <point x="548" y="-48" type="curve"/>
      <point x="532" y="-90" type="line"/>
      <point x="569" y="-112"/>
      <point x="608" y="-122"/>
      <point x="646" y="-122" type="curve" smooth="yes"/>
      <point x="730" y="-122"/>
      <point x="813" y="-71"/>
      <point x="813" y="9" type="curve" smooth="yes"/>
      <point x="813" y="110"/>
      <point x="724" y="153"/>
      <point x="637" y="153" type="curve" smooth="yes"/>
      <point x="446" y="153"/>
      <point x="435" y="-68"/>
      <point x="271" y="-68" type="curve" smooth="yes"/>
      <point x="201" y="-68"/>
      <point x="165" y="-34"/>
      <point x="165" y="37" type="curve" smooth="yes"/>
      <point x="165" y="167"/>
      <point x="323" y="163"/>
      <point x="478" y="178" type="curve" smooth="yes"/>
      <point x="646" y="194"/>
      <point x="819" y="237"/>
      <point x="819" y="407" type="curve" smooth="yes"/>
      <point x="819" y="543"/>
      <point x="713" y="585"/>
      <point x="626" y="585" type="curve" smooth="yes"/>
      <point x="556" y="585"/>
      <point x="492" y="550"/>
      <point x="466" y="486" type="curve"/>
      <point x="437" y="551"/>
      <point x="368" y="585"/>
      <point x="296" y="585" type="curve" smooth="yes"/>
      <point x="169" y="585"/>
      <point x="79" y="516"/>
      <point x="79" y="411" type="curve" smooth="yes"/>
      <point x="79" y="320"/>
      <point x="136" y="244"/>
      <point x="229" y="244" type="curve" smooth="yes"/>
      <point x="298" y="244"/>
      <point x="364" y="295"/>
      <point x="364" y="357" type="curve" smooth="yes"/>
      <point x="364" y="429"/>
      <point x="305" y="463"/>
      <point x="245" y="463" type="curve" smooth="yes"/>
      <point x="198" y="463"/>
      <point x="132" y="435"/>
      <point x="123" y="339" type="curve"/>
      <point x="146" y="308" type="line"/>
      <point x="153" y="389"/>
      <point x="188" y="414"/>
      <point x="224" y="414" type="curve" smooth="yes"/>
      <point x="256" y="414"/>
      <point x="278" y="390"/>
      <point x="278" y="353" type="curve" smooth="yes"/>
      <point x="278" y="322"/>
      <point x="260" y="298"/>
      <point x="223" y="298" type="curve" smooth="yes"/>
      <point x="180" y="298"/>
      <point x="137" y="324"/>
      <point x="137" y="407" type="curve" smooth="yes"/>
      <point x="137" y="494"/>
      <point x="207" y="530"/>
      <point x="280" y="530" type="curve" smooth="yes"/>
      <point x="366" y="530"/>
      <point x="427" y="491"/>
      <point x="427" y="396" type="curve" smooth="yes"/>
      <point x="427" y="328" type="line"/>
      <point x="513" y="328" type="line"/>
      <point x="513" y="417" type="line" smooth="yes"/>
      <point x="513" y="486"/>
      <point x="544" y="530"/>
      <point x="615" y="530" type="curve" smooth="yes"/>
      <point x="691" y="530"/>
      <point x="724" y="491"/>
      <point x="724" y="412" type="curve" smooth="yes"/>
      <point x="724" y="277"/>
      <point x="633" y="243"/>
      <point x="426" y="225" type="curve" smooth="yes"/>
      <point x="254" y="210"/>
      <point x="70" y="193"/>
      <point x="70" y="37" type="curve" smooth="yes"/>
      <point x="70" y="-67"/>
      <point x="166" y="-122"/>
    </contour>
  </outline>
</glyph>
<glyph name="jha_gran" format="2">
  <advance width="1352"/>
  <unicode hex="1131D"/>
  <outline>
    <contour>
      <point x="1090" y="520" type="line"/>
      <point x="1153" y="449"/>
      <point x="1187" y="379"/>
      <point x="1187" y="285" type="curve" smooth="yes"/>
      <point x="1187" y="131"/>
      <point x="1102" y="42"/>
      <point x="992" y="42" type="curve" smooth="yes"/>
      <point x="882" y="42"/>
      <point x="797" y="131"/>
      <point x="797" y="285" type="curve" smooth="yes"/>
      <point x="797" y="379"/>
      <point x="824" y="449"/>
      <point x="884" y="520" type="curve"/>
      <point x="821" y="570" type="line"/>
      <point x="758" y="504"/>
      <point x="702" y="398"/>
      <point x="702" y="280" type="curve" smooth="yes"/>
      <point x="702" y="149"/>
      <point x="779" y="-12"/>
      <point x="989" y="-12" type="curve" smooth="yes"/>
      <point x="1199" y="-12"/>
      <point x="1282" y="162"/>
      <point x="1282" y="289" type="curve" smooth="yes"/>
      <point x="1282" y="411"/>
      <point x="1216" y="504"/>
      <point x="1153" y="570" type="curve"/>
    </contour>
    <contour>
      <point x="484" y="500" type="line"/>
      <point x="484" y="54" type="line"/>
      <point x="348" y="54" type="line"/>
      <point x="348" y="208" type="line"/>
      <point x="753" y="208" type="line"/>
      <point x="752" y="262" type="line"/>
      <point x="283" y="262" type="line"/>
      <point x="283" y="0" type="line"/>
      <point x="579" y="0" type="line"/>
      <point x="579" y="500" type="line"/>
      <point x="653" y="500" type="line"/>
      <point x="653" y="554" type="line"/>
      <point x="80" y="554" type="line"/>
      <point x="80" y="0" type="line"/>
      <point x="145" y="0" type="line"/>
      <point x="145" y="500" type="line"/>
    </contour>
  </outline>
</glyph>
<glyph name="nya_gran" format="2">
  <advance width="1163"/>
  <unicode hex="1131E"/>
  <anchor x="630" y="-296" name="anudatta"/>
  <anchor x="1163" y="0" name="anusvara"/>
  <anchor x="548" y="-211" name="bottom"/>
  <anchor x="890" y="595" name="iiMatra"/>
  <anchor x="1156" y="0" name="post"/>
  <anchor x="1136" y="0" name="repha"/>
  <anchor x="585" y="900" name="svara"/>
  <anchor x="585" y="633" name="top"/>
  <anchor x="1105" y="566" name="topright"/>
  <anchor x="1106" y="0" name="vattu"/>
  <anchor x="905" y="481" name="virama"/>
  <anchor x="1098" y="0" name="yaphalaa"/>
  <outline>
    <contour>
      <point x="187" y="155" type="curve"/>
      <point x="130" y="155" type="line"/>
      <point x="162" y="-36"/>
      <point x="347" y="-213"/>
      <point x="649" y="-213" type="curve" smooth="yes"/>
      <point x="904" y="-213"/>
      <point x="1103" y="-89"/>
      <point x="1103" y="95" type="curve" smooth="yes"/>
      <point x="1103" y="232"/>
      <point x="988" y="348"/>
      <point x="756" y="348" type="curve" smooth="yes"/>
      <point x="651" y="348" type="line" smooth="yes"/>
      <point x="449" y="348"/>
      <point x="358" y="277"/>
      <point x="358" y="176" type="curve" smooth="yes"/>
      <point x="358" y="75"/>
      <point x="459" y="6"/>
      <point x="581" y="6" type="curve" smooth="yes"/>
      <point x="739" y="6"/>
      <point x="816" y="115"/>
      <point x="816" y="254" type="curve" smooth="yes"/>
      <point x="816" y="500" type="line"/>
      <point x="1005" y="500" type="line"/>
      <point x="1005" y="554" type="line"/>
      <point x="479" y="554" type="line"/>
      <point x="479" y="304" type="line"/>
      <point x="559" y="320" type="line"/>
      <point x="559" y="500" type="line"/>
      <point x="721" y="500" type="line"/>
      <point x="721" y="231" type="line" smooth="yes"/>
      <point x="721" y="122"/>
      <point x="688" y="60"/>
      <point x="588" y="60" type="curve" smooth="yes"/>
      <point x="499" y="60"/>
      <point x="454" y="115"/>
      <point x="454" y="179" type="curve" smooth="yes"/>
      <point x="454" y="258"/>
      <point x="540" y="294"/>
      <point x="644" y="294" type="curve" smooth="yes"/>
      <point x="768" y="294" type="line" smooth="yes"/>
      <point x="906" y="294"/>
      <point x="1008" y="218"/>
      <point x="1008" y="95" type="curve" smooth="yes"/>
      <point x="1008" y="-44"/>
      <point x="881" y="-159"/>
      <point x="650" y="-159" type="curve" smooth="yes"/>
      <point x="380" y="-159"/>
      <point x="228" y="-13"/>
    </contour>
    <contour>
      <point x="405" y="262" type="curve"/>
      <point x="463" y="263" type="line"/>
      <point x="433" y="378"/>
      <point x="345" y="500"/>
      <point x="193" y="500" type="curve" smooth="yes"/>
      <point x="83" y="500"/>
      <point x="0" y="439"/>
      <point x="0" y="353" type="curve" smooth="yes"/>
      <point x="0" y="277"/>
      <point x="63" y="220"/>
      <point x="155" y="220" type="curve" smooth="yes"/>
      <point x="250" y="220"/>
      <point x="304" y="279"/>
      <point x="304" y="358" type="curve" smooth="yes"/>
      <point x="304" y="393"/>
      <point x="293" y="433"/>
      <point x="270" y="473" type="curve"/>
      <point x="227" y="469" type="line"/>
      <point x="243" y="438"/>
      <point x="253" y="411"/>
      <point x="253" y="378" type="curve" smooth="yes"/>
      <point x="253" y="323"/>
      <point x="226" y="274"/>
      <point x="164" y="274" type="curve" smooth="yes"/>
      <point x="115" y="274"/>
      <point x="83" y="303"/>
      <point x="83" y="350" type="curve" smooth="yes"/>
      <point x="83" y="408"/>
      <point x="134" y="446"/>
      <point x="209" y="446" type="curve" smooth="yes"/>
      <point x="319" y="446"/>
      <point x="375" y="348"/>
    </contour>
  </outline>
</glyph>
<glyph name="tta_gran" format="2">
  <advance width="932"/>
  <unicode hex="1131F"/>
  <outline>
    <contour>
      <point x="80" y="0" type="line"/>
      <point x="872" y="0" type="line"/>
      <point x="872" y="54" type="line"/>
      <point x="174" y="54" type="line"/>
      <point x="174" y="554" type="line"/>
      <point x="80" y="554" type="line"/>
    </contour>
    <contour>
      <point x="431" y="37" type="line"/>
      <point x="431" y="-127" type="line"/>
      <point x="517" y="-127" type="line"/>
      <point x="517" y="37" type="line"/>
    </contour>
  </outline>
</glyph>
<glyph name="ttha_gran" format="2">
  <advance width="703"/>
  <unicode hex="11320"/>
  <anchor x="362" y="-100" name="anudatta"/>
  <anchor x="703" y="0" name="anusvara"/>
  <anchor x="362" y="-60" name="bottom"/>
  <anchor x="361" y="578" name="iiMatra"/>
  <anchor x="724" y="0" name="post"/>
  <anchor x="624" y="0" name="repha"/>
  <anchor x="362" y="900" name="svara"/>
  <anchor x="362" y="640" name="top"/>
  <anchor x="675" y="566" name="topright"/>
  <anchor x="766" y="0" name="vattu"/>
  <anchor x="500" y="466" name="virama"/>
  <anchor x="668" y="0" name="yaphalaa"/>
  <outline>
    <contour>
      <point x="357" y="-5" type="curve" smooth="yes"/>
      <point x="530" y="-5"/>
      <point x="633" y="107"/>
      <point x="633" y="277" type="curve" smooth="yes"/>
      <point x="633" y="442"/>
      <point x="530" y="559"/>
      <point x="357" y="559" type="curve" smooth="yes"/>
      <point x="174" y="559"/>
      <point x="70" y="439"/>
      <point x="70" y="277" type="curve" smooth="yes"/>
      <point x="70" y="115"/>
      <point x="174" y="-5"/>
    </contour>
    <contour>
      <point x="338" y="56" type="curve" smooth="yes"/>
      <point x="200" y="56"/>
      <point x="131" y="155"/>
      <point x="131" y="277" type="curve" smooth="yes"/>
      <point x="131" y="394"/>
      <point x="200" y="498"/>
      <point x="338" y="498" type="curve" smooth="yes"/>
      <point x="469" y="498"/>
      <point x="538" y="414"/>
      <point x="538" y="277" type="curve" smooth="yes"/>
      <point x="538" y="135"/>
      <point x="469" y="56"/>
    </contour>
  </outline>
</glyph>
<glyph name="dda_gran" format="2">
  <advance width="984"/>
  <unicode hex="11321"/>
  <outline>
    <contour>
      <point x="489" y="131" type="curve"/>
      <point x="469" y="131" type="line"/>
      <point x="490" y="56"/>
      <point x="545" y="-22"/>
      <point x="652" y="-22" type="curve" smooth="yes"/>
      <point x="823" y="-22"/>
      <point x="914" y="150"/>
      <point x="914" y="294" type="curve" smooth="yes"/>
      <point x="914" y="479"/>
      <point x="761" y="586"/>
      <point x="650" y="599" type="curve"/>
      <point x="643" y="544" type="line"/>
      <point x="715" y="529"/>
      <point x="829" y="445"/>
      <point x="829" y="286" type="curve" smooth="yes"/>
      <point x="829" y="154"/>
      <point x="758" y="36"/>
      <point x="655" y="36" type="curve" smooth="yes"/>
      <point x="566" y="36"/>
      <point x="525" y="156"/>
      <point x="516" y="189" type="curve"/>
      <point x="446" y="189" type="line"/>
      <point x="433" y="134"/>
      <point x="358" y="32"/>
      <point x="253" y="32" type="curve" smooth="yes"/>
      <point x="190" y="32"/>
      <point x="162" y="62"/>
      <point x="162" y="107" type="curve" smooth="yes"/>
      <point x="162" y="138"/>
      <point x="179" y="168"/>
      <point x="236" y="188" type="curve" smooth="yes"/>
      <point x="284" y="205" type="line" smooth="yes"/>
      <point x="377" y="238"/>
      <point x="472" y="309"/>
      <point x="472" y="418" type="curve" smooth="yes"/>
      <point x="472" y="532"/>
      <point x="377" y="599"/>
      <point x="269" y="599" type="curve" smooth="yes"/>
      <point x="155" y="599"/>
      <point x="70" y="530"/>
      <point x="70" y="427" type="curve" smooth="yes"/>
      <point x="70" y="352"/>
      <point x="131" y="302"/>
      <point x="208" y="302" type="curve" smooth="yes"/>
      <point x="297" y="302"/>
      <point x="358" y="356"/>
      <point x="358" y="428" type="curve" smooth="yes"/>
      <point x="358" y="497"/>
      <point x="298" y="553"/>
      <point x="239" y="559" type="curve"/>
      <point x="185" y="556" type="line"/>
      <point x="244" y="540"/>
      <point x="267" y="479"/>
      <point x="267" y="436" type="curve" smooth="yes"/>
      <point x="267" y="402"/>
      <point x="252" y="356"/>
      <point x="194" y="356" type="curve" smooth="yes"/>
      <point x="153" y="356"/>
      <point x="128" y="380"/>
      <point x="128" y="427" type="curve" smooth="yes"/>
      <point x="128" y="501"/>
      <point x="191" y="545"/>
      <point x="256" y="545" type="curve" smooth="yes"/>
      <point x="339" y="545"/>
      <point x="402" y="497"/>
      <point x="402" y="418" type="curve" smooth="yes"/>
      <point x="402" y="338"/>
      <point x="339" y="289"/>
      <point x="266" y="262" type="curve" smooth="yes"/>
      <point x="214" y="243" type="line" smooth="yes"/>
      <point x="137" y="215"/>
      <point x="72" y="173"/>
      <point x="72" y="102" type="curve" smooth="yes"/>
      <point x="72" y="19"/>
      <point x="141" y="-22"/>
      <point x="246" y="-22" type="curve" smooth="yes"/>
      <point x="364" y="-22"/>
      <point x="452" y="48"/>
    </contour>
  </outline>
</glyph>
<glyph name="ddha_gran" format="2">
  <advance width="1066"/>
  <unicode hex="11322"/>
  <guideline x="282" y="198" angle="201.413"/>
  <anchor x="494" y="-100" name="anudatta"/>
  <anchor x="1066" y="0" name="anusvara"/>
  <anchor x="494" y="-60" name="bottom"/>
  <anchor x="711" y="627" name="iiMatra"/>
  <anchor x="1067" y="0" name="post"/>
  <anchor x="957" y="0" name="repha"/>
  <anchor x="494" y="900" name="svara"/>
  <anchor x="494" y="640" name="top"/>
  <anchor x="1067" y="566" name="topright"/>
  <anchor x="1108" y="0" name="vattu"/>
  <anchor x="900" y="497" name="virama"/>
  <anchor x="965" y="0" name="yaphalaa"/>
  <outline>
    <contour>
      <point x="256" y="545" type="curve" smooth="yes"/>
      <point x="339" y="545"/>
      <point x="402" y="497"/>
      <point x="402" y="418" type="curve" smooth="yes"/>
      <point x="402" y="338"/>
      <point x="339" y="288"/>
      <point x="266" y="262" type="curve" smooth="yes"/>
      <point x="214" y="243" type="line" smooth="yes"/>
      <point x="137" y="215"/>
      <point x="72" y="173"/>
      <point x="72" y="102" type="curve" smooth="yes"/>
      <point x="72" y="19"/>
      <point x="141" y="-22"/>
      <point x="246" y="-22" type="curve" smooth="yes"/>
      <point x="364" y="-22"/>
      <point x="452" y="48"/>
      <point x="489" y="131" type="curve"/>
      <point x="470" y="131" type="line"/>
      <point x="491" y="56"/>
      <point x="563" y="-22"/>
      <point x="698" y="-22" type="curve" smooth="yes"/>
      <point x="873" y="-22"/>
      <point x="996" y="117"/>
      <point x="996" y="311" type="curve" smooth="yes"/>
      <point x="996" y="477"/>
      <point x="897" y="599"/>
      <point x="747" y="599" type="curve" smooth="yes"/>
      <point x="643" y="599"/>
      <point x="558" y="533"/>
      <point x="558" y="433" type="curve" smooth="yes"/>
      <point x="558" y="350"/>
      <point x="610" y="302"/>
      <point x="695" y="302" type="curve" smooth="yes"/>
      <point x="784" y="302"/>
      <point x="846" y="356"/>
      <point x="846" y="428" type="curve" smooth="yes"/>
      <point x="846" y="497"/>
      <point x="786" y="553"/>
      <point x="727" y="559" type="curve"/>
      <point x="673" y="556" type="line"/>
      <point x="732" y="540"/>
      <point x="755" y="484"/>
      <point x="755" y="439" type="curve" smooth="yes"/>
      <point x="755" y="397"/>
      <point x="735" y="356"/>
      <point x="684" y="356" type="curve" smooth="yes"/>
      <point x="646" y="356"/>
      <point x="616" y="379"/>
      <point x="616" y="427" type="curve" smooth="yes"/>
      <point x="616" y="497"/>
      <point x="679" y="545"/>
      <point x="744" y="545" type="curve" smooth="yes"/>
      <point x="831" y="545"/>
      <point x="906" y="465"/>
      <point x="906" y="310" type="curve" smooth="yes"/>
      <point x="906" y="134"/>
      <point x="818" y="32"/>
      <point x="702" y="32" type="curve" smooth="yes"/>
      <point x="586" y="32"/>
      <point x="530" y="133"/>
      <point x="516" y="189" type="curve"/>
      <point x="446" y="189" type="line"/>
      <point x="433" y="134"/>
      <point x="358" y="32"/>
      <point x="254" y="32" type="curve" smooth="yes"/>
      <point x="191" y="32"/>
      <point x="162" y="61"/>
      <point x="162" y="107" type="curve" smooth="yes"/>
      <point x="162" y="138"/>
      <point x="179" y="168"/>
      <point x="236" y="188" type="curve" smooth="yes"/>
      <point x="284" y="205" type="line" smooth="yes"/>
      <point x="377" y="237"/>
      <point x="472" y="309"/>
      <point x="472" y="418" type="curve" smooth="yes"/>
      <point x="472" y="532"/>
      <point x="377" y="599"/>
      <point x="269" y="599" type="curve" smooth="yes"/>
      <point x="155" y="599"/>
      <point x="70" y="530"/>
      <point x="70" y="427" type="curve" smooth="yes"/>
      <point x="70" y="352"/>
      <point x="131" y="302"/>
      <point x="208" y="302" type="curve" smooth="yes"/>
      <point x="297" y="302"/>
      <point x="358" y="356"/>
      <point x="358" y="428" type="curve" smooth="yes"/>
      <point x="358" y="497"/>
      <point x="298" y="553"/>
      <point x="239" y="559" type="curve"/>
      <point x="185" y="556" type="line"/>
      <point x="244" y="540"/>
      <point x="267" y="479"/>
      <point x="267" y="436" type="curve" smooth="yes"/>
      <point x="267" y="402"/>
      <point x="252" y="356"/>
      <point x="194" y="356" type="curve" smooth="yes"/>
      <point x="153" y="356"/>
      <point x="128" y="380"/>
      <point x="128" y="427" type="curve" smooth="yes"/>
      <point x="128" y="501"/>
      <point x="191" y="545"/>
    </contour>
  </outline>
</glyph>
<glyph name="nna_gran" format="2">
  <advance width="1769"/>
  <unicode hex="11323"/>
  <anchor x="871" y="-100" name="anudatta"/>
  <anchor x="1707" y="0" name="anusvara"/>
  <anchor x="871" y="-60" name="bottom"/>
  <anchor x="1436" y="595" name="iiMatra"/>
  <anchor x="1712" y="0" name="post"/>
  <anchor x="1656" y="0" name="repha"/>
  <anchor x="861" y="900" name="svara"/>
  <anchor x="861" y="640" name="top"/>
  <anchor x="1762" y="566" name="topright"/>
  <anchor x="1732" y="0" name="vattu"/>
  <anchor x="1648" y="481" name="virama"/>
  <anchor x="1639" y="0" name="yaphalaa"/>
  <outline>
    <contour>
      <point x="722" y="-5" type="curve" smooth="yes"/>
      <point x="834" y="-5"/>
      <point x="907" y="77"/>
      <point x="907" y="194" type="curve" smooth="yes"/>
      <point x="907" y="412"/>
      <point x="711" y="559"/>
      <point x="473" y="559" type="curve" smooth="yes"/>
      <point x="261" y="559"/>
      <point x="70" y="445"/>
      <point x="70" y="234" type="curve" smooth="yes"/>
      <point x="70" y="77"/>
      <point x="178" y="-4"/>
      <point x="290" y="-4" type="curve" smooth="yes"/>
      <point x="398" y="-4"/>
      <point x="470" y="60"/>
      <point x="470" y="150" type="curve" smooth="yes"/>
      <point x="470" y="242"/>
      <point x="412" y="304"/>
      <point x="318" y="304" type="curve" smooth="yes"/>
      <point x="221" y="304"/>
      <point x="139" y="229"/>
      <point x="132" y="124" type="curve"/>
      <point x="162" y="97" type="line"/>
      <point x="168" y="185"/>
      <point x="217" y="236"/>
      <point x="281" y="236" type="curve" smooth="yes"/>
      <point x="349" y="236"/>
      <point x="378" y="191"/>
      <point x="378" y="146" type="curve" smooth="yes"/>
      <point x="378" y="92"/>
      <point x="339" y="49"/>
      <point x="273" y="49" type="curve" smooth="yes"/>
      <point x="201" y="49"/>
      <point x="128" y="109"/>
      <point x="128" y="231" type="curve" smooth="yes"/>
      <point x="128" y="407"/>
      <point x="280" y="505"/>
      <point x="459" y="505" type="curve" smooth="yes"/>
      <point x="675" y="505"/>
      <point x="809" y="399"/>
      <point x="809" y="195" type="curve" smooth="yes"/>
      <point x="809" y="113"/>
      <point x="777" y="49"/>
      <point x="704" y="49" type="curve" smooth="yes"/>
      <point x="633" y="49"/>
      <point x="602" y="108"/>
      <point x="602" y="193" type="curve" smooth="yes"/>
      <point x="602" y="375"/>
      <point x="733" y="505"/>
      <point x="933" y="505" type="curve" smooth="yes"/>
      <point x="1134" y="505"/>
      <point x="1261" y="366"/>
      <point x="1261" y="184" type="curve" smooth="yes"/>
      <point x="1261" y="99"/>
      <point x="1224" y="49"/>
      <point x="1158" y="49" type="curve" smooth="yes"/>
      <point x="1087" y="49"/>
      <point x="1054" y="115"/>
      <point x="1054" y="196" type="curve" smooth="yes"/>
      <point x="1054" y="331"/>
      <point x="1175" y="500"/>
      <point x="1407" y="500" type="curve" smooth="yes"/>
      <point x="1750" y="500" type="line"/>
      <point x="1750" y="554" type="line"/>
      <point x="1407" y="554" type="line" smooth="yes"/>
      <point x="1167" y="554"/>
      <point x="998" y="385"/>
      <point x="998" y="196" type="curve" smooth="yes"/>
      <point x="998" y="79"/>
      <point x="1063" y="-5"/>
      <point x="1175" y="-5" type="curve" smooth="yes"/>
      <point x="1279" y="-5"/>
      <point x="1359" y="66"/>
      <point x="1359" y="182" type="curve" smooth="yes"/>
      <point x="1359" y="389"/>
      <point x="1178" y="559"/>
      <point x="947" y="559" type="curve" smooth="yes"/>
      <point x="714" y="559"/>
      <point x="546" y="411"/>
      <point x="546" y="197" type="curve" smooth="yes"/>
      <point x="546" y="77"/>
      <point x="608" y="-5"/>
    </contour>
    <contour>
      <point x="1479" y="0" type="line"/>
      <point x="1574" y="0" type="line"/>
      <point x="1574" y="529" type="line"/>
      <point x="1479" y="529" type="line"/>
    </contour>
  </outline>
</glyph>
<glyph name="ta_gran" format="2">
  <advance width="872"/>
  <unicode hex="11324"/>
  <guideline x="1963" y="488" angle="90"/>
  <anchor x="422" y="-240" name="anudatta"/>
  <anchor x="872" y="0" name="anusvara"/>
  <anchor x="422" y="-200" name="bottom"/>
  <anchor x="581" y="595" name="iiMatra"/>
  <anchor x="852" y="0" name="post"/>
  <anchor x="842" y="0" name="repha"/>
  <anchor x="439" y="900" name="svara"/>
  <anchor x="439" y="640" name="top"/>
  <anchor x="813" y="566" name="topright"/>
  <anchor x="850" y="0" name="vattu"/>
  <anchor x="656" y="481" name="virama"/>
  <anchor x="832" y="0" name="yaphalaa"/>
  <outline>
    <contour>
      <point x="159" y="-249" type="curve"/>
      <point x="159" y="-180"/>
      <point x="179" y="-140"/>
      <point x="273" y="-140" type="curve" smooth="yes"/>
      <point x="451" y="-140" type="line" smooth="yes"/>
      <point x="683" y="-140"/>
      <point x="802" y="-61"/>
      <point x="802" y="98" type="curve" smooth="yes"/>
      <point x="802" y="233"/>
      <point x="692" y="329"/>
      <point x="548" y="329" type="curve" smooth="yes"/>
      <point x="521" y="329" type="line"/>
      <point x="521" y="500" type="line"/>
      <point x="696" y="500" type="line"/>
      <point x="696" y="554" type="line"/>
      <point x="202" y="554" type="line"/>
      <point x="202" y="286" type="line"/>
      <point x="263" y="286" type="line"/>
      <point x="263" y="500" type="line"/>
      <point x="426" y="500" type="line"/>
      <point x="426" y="329" type="line"/>
      <point x="258" y="329" type="line" smooth="yes"/>
      <point x="143" y="329"/>
      <point x="70" y="256"/>
      <point x="70" y="162" type="curve" smooth="yes"/>
      <point x="70" y="51"/>
      <point x="166" y="-12"/>
      <point x="285" y="-12" type="curve" smooth="yes"/>
      <point x="434" y="-12"/>
      <point x="521" y="72"/>
      <point x="521" y="200" type="curve" smooth="yes"/>
      <point x="521" y="275" type="line"/>
      <point x="548" y="275" type="line" smooth="yes"/>
      <point x="646" y="275"/>
      <point x="709" y="194"/>
      <point x="709" y="101" type="curve" smooth="yes"/>
      <point x="709" y="-9"/>
      <point x="636" y="-86"/>
      <point x="424" y="-86" type="curve" smooth="yes"/>
      <point x="238" y="-86" type="line" smooth="yes"/>
      <point x="150" y="-86"/>
      <point x="70" y="-108"/>
      <point x="70" y="-179" type="curve" smooth="yes"/>
      <point x="70" y="-228"/>
      <point x="101" y="-249"/>
    </contour>
    <contour>
      <point x="277" y="41" type="curve" smooth="yes"/>
      <point x="196" y="41"/>
      <point x="132" y="76"/>
      <point x="132" y="160" type="curve" smooth="yes"/>
      <point x="132" y="223"/>
      <point x="180" y="275"/>
      <point x="266" y="275" type="curve" smooth="yes"/>
      <point x="426" y="275" type="line"/>
      <point x="426" y="189" type="line" smooth="yes"/>
      <point x="426" y="82"/>
      <point x="358" y="41"/>
    </contour>
  </outline>
</glyph>
<glyph name="tha_gran" format="2">
  <advance width="1175"/>
  <unicode hex="11325"/>
  <outline>
    <contour>
      <point x="716" y="-102" type="curve" smooth="yes"/>
      <point x="934" y="-102"/>
      <point x="1105" y="37"/>
      <point x="1105" y="290" type="curve" smooth="yes"/>
      <point x="1105" y="442"/>
      <point x="1022" y="579"/>
      <point x="845" y="579" type="curve" smooth="yes"/>
      <point x="720" y="579"/>
      <point x="618" y="516"/>
      <point x="618" y="405" type="curve" smooth="yes"/>
      <point x="618" y="327"/>
      <point x="686" y="267"/>
      <point x="779" y="267" type="curve" smooth="yes"/>
      <point x="861" y="267"/>
      <point x="927" y="316"/>
      <point x="927" y="397" type="curve" smooth="yes"/>
      <point x="927" y="472"/>
      <point x="857" y="533"/>
      <point x="798" y="539" type="curve"/>
      <point x="743" y="536" type="line"/>
      <point x="803" y="520"/>
      <point x="836" y="459"/>
      <point x="836" y="406" type="curve" smooth="yes"/>
      <point x="836" y="357"/>
      <point x="811" y="321"/>
      <point x="758" y="321" type="curve" smooth="yes"/>
      <point x="712" y="321"/>
      <point x="677" y="348"/>
      <point x="677" y="402" type="curve" smooth="yes"/>
      <point x="677" y="481"/>
      <point x="747" y="525"/>
      <point x="833" y="525" type="curve" smooth="yes"/>
      <point x="960" y="525"/>
      <point x="1010" y="408"/>
      <point x="1010" y="290" type="curve" smooth="yes"/>
      <point x="1010" y="77"/>
      <point x="883" y="-48"/>
      <point x="721" y="-48" type="curve" smooth="yes"/>
      <point x="585" y="-48"/>
      <point x="446" y="46"/>
      <point x="446" y="208" type="curve" smooth="yes"/>
      <point x="446" y="554" type="line"/>
      <point x="351" y="554" type="line"/>
      <point x="351" y="180" type="line" smooth="yes"/>
      <point x="351" y="76"/>
      <point x="285" y="54"/>
      <point x="246" y="54" type="curve" smooth="yes"/>
      <point x="198" y="54"/>
      <point x="141" y="87"/>
      <point x="141" y="196" type="curve" smooth="yes"/>
      <point x="141" y="554" type="line"/>
      <point x="66" y="554" type="line"/>
      <point x="66" y="195" type="line" smooth="yes"/>
      <point x="66" y="50"/>
      <point x="148" y="-5"/>
      <point x="231" y="-5" type="curve" smooth="yes"/>
      <point x="302" y="-5"/>
      <point x="373" y="32"/>
      <point x="419" y="107" type="curve"/>
      <point x="399" y="107" type="line"/>
      <point x="429" y="-8"/>
      <point x="541" y="-102"/>
    </contour>
  </outline>
</glyph>
<glyph name="da_gran" format="2">
  <advance width="782"/>
  <unicode hex="11326"/>
  <guideline x="2137" y="858" angle="90"/>
  <anchor x="415" y="-183" name="anudatta"/>
  <anchor x="782" y="0" name="anusvara"/>
  <anchor x="415" y="-127" name="bottom"/>
  <anchor x="375" y="-128" name="bottom_exception"/>
  <anchor x="322" y="579" name="iiMatra"/>
  <anchor x="812" y="0" name="post"/>
  <anchor x="789" y="0" name="repha"/>
  <anchor x="412" y="900" name="svara"/>
  <anchor x="332" y="640" name="top"/>
  <anchor x="692" y="566" name="topright"/>
  <anchor x="755" y="0" name="vattu"/>
  <anchor x="488" y="458" name="virama"/>
  <anchor x="733" y="0" name="yaphalaa"/>
  <outline>
    <contour>
      <point x="175" y="0" type="curve" smooth="yes"/>
      <point x="730" y="0" type="line"/>
      <point x="730" y="54" type="line"/>
      <point x="167" y="54" type="line" smooth="yes"/>
      <point x="146" y="54"/>
      <point x="128" y="69"/>
      <point x="128" y="94" type="curve" smooth="yes"/>
      <point x="128" y="120"/>
      <point x="146" y="135"/>
      <point x="167" y="135" type="curve" smooth="yes"/>
      <point x="317" y="135" type="line" smooth="yes"/>
      <point x="469" y="135"/>
      <point x="587" y="200"/>
      <point x="587" y="336" type="curve" smooth="yes"/>
      <point x="587" y="481"/>
      <point x="465" y="559"/>
      <point x="305" y="559" type="curve" smooth="yes"/>
      <point x="170" y="559"/>
      <point x="70" y="495"/>
      <point x="70" y="385" type="curve" smooth="yes"/>
      <point x="70" y="307"/>
      <point x="138" y="247"/>
      <point x="230" y="247" type="curve" smooth="yes"/>
      <point x="312" y="247"/>
      <point x="378" y="296"/>
      <point x="378" y="377" type="curve" smooth="yes"/>
      <point x="378" y="452"/>
      <point x="308" y="513"/>
      <point x="249" y="519" type="curve"/>
      <point x="195" y="516" type="line"/>
      <point x="254" y="500"/>
      <point x="287" y="439"/>
      <point x="287" y="386" type="curve" smooth="yes"/>
      <point x="287" y="337"/>
      <point x="262" y="301"/>
      <point x="209" y="301" type="curve" smooth="yes"/>
      <point x="163" y="301"/>
      <point x="128" y="328"/>
      <point x="128" y="382" type="curve" smooth="yes"/>
      <point x="128" y="461"/>
      <point x="199" y="505"/>
      <point x="284" y="505" type="curve" smooth="yes"/>
      <point x="396" y="505"/>
      <point x="492" y="447"/>
      <point x="492" y="349" type="curve" smooth="yes"/>
      <point x="492" y="244"/>
      <point x="426" y="188"/>
      <point x="303" y="188" type="curve" smooth="yes"/>
      <point x="175" y="188" type="line" smooth="yes"/>
      <point x="111" y="188"/>
      <point x="70" y="154"/>
      <point x="70" y="94" type="curve" smooth="yes"/>
      <point x="70" y="35"/>
      <point x="111" y="0"/>
    </contour>
    <contour>
      <point x="401" y="37" type="line"/>
      <point x="401" y="-127" type="line"/>
      <point x="495" y="-127" type="line"/>
      <point x="495" y="37" type="line"/>
    </contour>
  </outline>
</glyph>
<glyph name="dha_gran" format="2">
  <advance width="1050"/>
  <unicode hex="11327"/>
  <anchor x="527" y="-180" name="anudatta"/>
  <anchor x="1050" y="0" name="anusvara"/>
  <anchor x="527" y="-90" name="bottom"/>
  <anchor x="1045" y="0" name="post"/>
  <anchor x="985" y="0" name="repha"/>
  <anchor x="522" y="900" name="svara"/>
  <anchor x="522" y="640" name="top"/>
  <anchor x="1035" y="566" name="topright"/>
  <anchor x="1087" y="0" name="vattu"/>
  <anchor x="977" y="0" name="yaphalaa"/>
  <outline>
    <contour>
      <point x="636" y="-85" type="curve" smooth="yes"/>
      <point x="812" y="-85"/>
      <point x="980" y="38"/>
      <point x="980" y="256" type="curve" smooth="yes"/>
      <point x="980" y="453"/>
      <point x="840" y="560"/>
      <point x="701" y="576" type="curve"/>
      <point x="691" y="515" type="line"/>
      <point x="812" y="486"/>
      <point x="885" y="382"/>
      <point x="885" y="244" type="curve" smooth="yes"/>
      <point x="885" y="66"/>
      <point x="760" y="-26"/>
      <point x="636" y="-26" type="curve" smooth="yes"/>
      <point x="534" y="-26"/>
      <point x="446" y="36"/>
      <point x="446" y="148" type="curve" smooth="yes"/>
      <point x="446" y="554" type="line"/>
      <point x="351" y="554" type="line"/>
      <point x="351" y="180" type="line" smooth="yes"/>
      <point x="351" y="76"/>
      <point x="285" y="54"/>
      <point x="246" y="54" type="curve" smooth="yes"/>
      <point x="198" y="54"/>
      <point x="141" y="87"/>
      <point x="141" y="196" type="curve" smooth="yes"/>
      <point x="141" y="554" type="line"/>
      <point x="66" y="554" type="line"/>
      <point x="66" y="195" type="line" smooth="yes"/>
      <point x="66" y="50"/>
      <point x="148" y="-5"/>
      <point x="234" y="-5" type="curve" smooth="yes"/>
      <point x="282" y="-5"/>
      <point x="359" y="13"/>
      <point x="399" y="107" type="curve"/>
      <point x="379" y="107" type="line"/>
      <point x="409" y="-22"/>
      <point x="511" y="-85"/>
    </contour>
  </outline>
</glyph>
<glyph name="na_gran" format="2">
  <advance width="805"/>
  <unicode hex="11328"/>
  <anchor x="356" y="-240" name="anudatta"/>
  <anchor x="838" y="0" name="anusvara"/>
  <anchor x="356" y="-200" name="bottom"/>
  <anchor x="492" y="595" name="iiMatra"/>
  <anchor x="793" y="0" name="post"/>
  <anchor x="763" y="0" name="repha"/>
  <anchor x="392" y="900" name="svara"/>
  <anchor x="339" y="640" name="top"/>
  <anchor x="701" y="566" name="topright"/>
  <anchor x="796" y="0" name="vattu"/>
  <anchor x="566" y="481" name="virama"/>
  <anchor x="739" y="0" name="yaphalaa"/>
  <outline>
    <contour>
      <point x="159" y="-249" type="curve"/>
      <point x="159" y="-180"/>
      <point x="179" y="-140"/>
      <point x="272" y="-140" type="curve" smooth="yes"/>
      <point x="358" y="-140" type="line" smooth="yes"/>
      <point x="560" y="-140"/>
      <point x="725" y="-62"/>
      <point x="725" y="143" type="curve" smooth="yes"/>
      <point x="725" y="275"/>
      <point x="646" y="345"/>
      <point x="546" y="345" type="curve" smooth="yes"/>
      <point x="474" y="345"/>
      <point x="435" y="302"/>
      <point x="426" y="272" type="curve"/>
      <point x="426" y="500" type="line"/>
      <point x="607" y="500" type="line"/>
      <point x="607" y="554" type="line"/>
      <point x="80" y="554" type="line"/>
      <point x="80" y="0" type="line"/>
      <point x="141" y="0" type="line"/>
      <point x="141" y="500" type="line"/>
      <point x="331" y="500" type="line"/>
      <point x="331" y="0" type="line"/>
      <point x="426" y="0" type="line"/>
      <point x="426" y="183" type="line" smooth="yes"/>
      <point x="426" y="236"/>
      <point x="460" y="286"/>
      <point x="520" y="286" type="curve" smooth="yes"/>
      <point x="584" y="286"/>
      <point x="629" y="239"/>
      <point x="629" y="132" type="curve" smooth="yes"/>
      <point x="629" y="-30"/>
      <point x="536" y="-86"/>
      <point x="331" y="-86" type="curve" smooth="yes"/>
      <point x="238" y="-86" type="line" smooth="yes"/>
      <point x="150" y="-86"/>
      <point x="70" y="-108"/>
      <point x="70" y="-179" type="curve" smooth="yes"/>
      <point x="70" y="-225"/>
      <point x="101" y="-249"/>
    </contour>
  </outline>
</glyph>
<glyph name="pa_gran" format="2">
  <advance width="1478"/>
  <unicode hex="1132A"/>
  <guideline x="967" y="0" angle="180"/>
  <anchor x="766" y="-100" name="anudatta"/>
  <anchor x="1478" y="0" name="anusvara"/>
  <anchor x="734" y="-60" name="bottom"/>
  <anchor x="969" y="-60" name="bottom_right"/>
  <anchor x="1467" y="0" name="post"/>
  <anchor x="1458" y="0" name="repha"/>
  <anchor x="739" y="900" name="svara"/>
  <anchor x="766" y="640" name="top"/>
  <anchor x="1487" y="566" name="topright"/>
  <anchor x="1521" y="0" name="vattu"/>
  <anchor x="1297" y="481" name="virama"/>
  <anchor x="1419" y="0" name="yaphalaa"/>
  <outline>
    <contour>
      <point x="290" y="-4" type="curve" smooth="yes"/>
      <point x="398" y="-4"/>
      <point x="470" y="60"/>
      <point x="470" y="150" type="curve" smooth="yes"/>
      <point x="470" y="242"/>
      <point x="412" y="304"/>
      <point x="318" y="304" type="curve" smooth="yes"/>
      <point x="221" y="304"/>
      <point x="139" y="229"/>
      <point x="132" y="124" type="curve"/>
      <point x="162" y="97" type="line"/>
      <point x="168" y="185"/>
      <point x="217" y="236"/>
      <point x="281" y="236" type="curve" smooth="yes"/>
      <point x="349" y="236"/>
      <point x="378" y="191"/>
      <point x="378" y="146" type="curve" smooth="yes"/>
      <point x="378" y="92"/>
      <point x="339" y="49"/>
      <point x="273" y="49" type="curve" smooth="yes"/>
      <point x="201" y="49"/>
      <point x="128" y="109"/>
      <point x="128" y="231" type="curve" smooth="yes"/>
      <point x="128" y="403"/>
      <point x="243" y="505"/>
      <point x="405" y="505" type="curve" smooth="yes"/>
      <point x="554" y="505"/>
      <point x="669" y="402"/>
      <point x="669" y="257" type="curve" smooth="yes"/>
      <point x="669" y="150"/>
      <point x="630" y="83"/>
      <point x="588" y="43" type="curve"/>
      <point x="606" y="0" type="line"/>
      <point x="1398" y="0" type="line"/>
      <point x="1398" y="554" type="line"/>
      <point x="1303" y="554" type="line"/>
      <point x="1303" y="54" type="line"/>
      <point x="677" y="54" type="line"/>
      <point x="720" y="97"/>
      <point x="765" y="164"/>
      <point x="765" y="261" type="curve" smooth="yes"/>
      <point x="765" y="441"/>
      <point x="610" y="559"/>
      <point x="418" y="559" type="curve" smooth="yes"/>
      <point x="222" y="559"/>
      <point x="70" y="440"/>
      <point x="70" y="234" type="curve" smooth="yes"/>
      <point x="70" y="77"/>
      <point x="178" y="-4"/>
    </contour>
  </outline>
</glyph>
<glyph name="pha_gran" format="2">
  <advance width="1540"/>
  <unicode hex="1132B"/>
  <outline>
    <contour>
      <point x="290" y="-4" type="curve" smooth="yes"/>
      <point x="398" y="-4"/>
      <point x="470" y="60"/>
      <point x="470" y="150" type="curve" smooth="yes"/>
      <point x="470" y="242"/>
      <point x="412" y="304"/>
      <point x="318" y="304" type="curve" smooth="yes"/>
      <point x="221" y="304"/>
      <point x="139" y="229"/>
      <point x="132" y="124" type="curve"/>
      <point x="162" y="97" type="line"/>
      <point x="168" y="185"/>
      <point x="217" y="236"/>
      <point x="281" y="236" type="curve" smooth="yes"/>
      <point x="349" y="236"/>
      <point x="378" y="191"/>
      <point x="378" y="146" type="curve" smooth="yes"/>
      <point x="378" y="92"/>
      <point x="339" y="49"/>
      <point x="273" y="49" type="curve" smooth="yes"/>
      <point x="201" y="49"/>
      <point x="128" y="109"/>
      <point x="128" y="231" type="curve" smooth="yes"/>
      <point x="128" y="403"/>
      <point x="243" y="505"/>
      <point x="405" y="505" type="curve" smooth="yes"/>
      <point x="554" y="505"/>
      <point x="669" y="402"/>
      <point x="669" y="257" type="curve" smooth="yes"/>
      <point x="669" y="150"/>
      <point x="630" y="83"/>
      <point x="588" y="43" type="curve"/>
      <point x="606" y="0" type="line"/>
      <point x="1460" y="0" type="line"/>
      <point x="1460" y="54" type="line"/>
      <point x="677" y="54" type="line"/>
      <point x="720" y="97"/>
      <point x="765" y="164"/>
      <point x="765" y="261" type="curve" smooth="yes"/>
      <point x="765" y="441"/>
      <point x="610" y="559"/>
      <point x="418" y="559" type="curve" smooth="yes"/>
      <point x="222" y="559"/>
      <point x="70" y="440"/>
      <point x="70" y="234" type="curve" smooth="yes"/>
      <point x="70" y="77"/>
      <point x="178" y="-4"/>
    </contour>
    <contour>
      <point x="1125" y="390" type="curve" smooth="yes"/>
      <point x="1125" y="0" type="line"/>
      <point x="1220" y="0" type="line"/>
      <point x="1220" y="391" type="line" smooth="yes"/>
      <point x="1220" y="459"/>
      <point x="1250" y="505"/>
      <point x="1311" y="505" type="curve" smooth="yes"/>
      <point x="1360" y="505"/>
      <point x="1399" y="470"/>
      <point x="1399" y="404" type="curve" smooth="yes"/>
      <point x="1399" y="0" type="line"/>
      <point x="1460" y="0" type="line"/>
      <point x="1460" y="404" type="line" smooth="yes"/>
      <point x="1460" y="505"/>
      <point x="1393" y="559"/>
      <point x="1304" y="559" type="curve" smooth="yes"/>
      <point x="1184" y="559"/>
      <point x="1125" y="489"/>
    </contour>
  </outline>
</glyph>
<glyph name="ba_gran" format="2">
  <advance width="1591"/>
  <unicode hex="1132C"/>
  <outline>
    <contour>
      <point x="1511" y="0" type="line"/>
      <point x="1511" y="554" type="line"/>
      <point x="1425" y="554" type="line"/>
      <point x="1425" y="0" type="line"/>
    </contour>
    <component base="ba.base" xOffset="11"/>
  </outline>
</glyph>
<glyph name="bha_gran" format="2">
  <advance width="1391"/>
  <unicode hex="1132D"/>
  <outline>
    <contour>
      <point x="684" y="192" type="curve" smooth="yes"/>
      <point x="684" y="318" type="line" smooth="yes"/>
      <point x="684" y="462"/>
      <point x="559" y="559"/>
      <point x="394" y="559" type="curve" smooth="yes"/>
      <point x="207" y="559"/>
      <point x="70" y="440"/>
      <point x="70" y="234" type="curve" smooth="yes"/>
      <point x="70" y="77"/>
      <point x="178" y="-4"/>
      <point x="290" y="-4" type="curve" smooth="yes"/>
      <point x="398" y="-4"/>
      <point x="470" y="60"/>
      <point x="470" y="150" type="curve" smooth="yes"/>
      <point x="470" y="242"/>
      <point x="412" y="304"/>
      <point x="318" y="304" type="curve" smooth="yes"/>
      <point x="221" y="304"/>
      <point x="139" y="229"/>
      <point x="132" y="124" type="curve"/>
      <point x="162" y="97" type="line"/>
      <point x="168" y="185"/>
      <point x="217" y="236"/>
      <point x="281" y="236" type="curve" smooth="yes"/>
      <point x="349" y="236"/>
      <point x="378" y="191"/>
      <point x="378" y="146" type="curve" smooth="yes"/>
      <point x="378" y="92"/>
      <point x="339" y="49"/>
      <point x="273" y="49" type="curve" smooth="yes"/>
      <point x="201" y="49"/>
      <point x="128" y="109"/>
      <point x="128" y="231" type="curve" smooth="yes"/>
      <point x="128" y="403"/>
      <point x="231" y="505"/>
      <point x="385" y="505" type="curve" smooth="yes"/>
      <point x="510" y="505"/>
      <point x="589" y="430"/>
      <point x="589" y="320" type="curve" smooth="yes"/>
      <point x="589" y="227" type="line" smooth="yes"/>
      <point x="589" y="42"/>
      <point x="669" y="-15"/>
      <point x="773" y="-15" type="curve" smooth="yes"/>
      <point x="877" y="-15"/>
      <point x="957" y="42"/>
      <point x="957" y="227" type="curve" smooth="yes"/>
      <point x="957" y="353" type="line" smooth="yes"/>
      <point x="957" y="471"/>
      <point x="1012" y="505"/>
      <point x="1076" y="505" type="curve" smooth="yes"/>
      <point x="1152" y="505"/>
      <point x="1226" y="448"/>
      <point x="1226" y="255" type="curve" smooth="yes"/>
      <point x="1226" y="-8"/>
      <point x="1099" y="-86"/>
      <point x="810" y="-86" type="curve" smooth="yes"/>
      <point x="258" y="-86" type="line" smooth="yes"/>
      <point x="170" y="-86"/>
      <point x="90" y="-104"/>
      <point x="90" y="-176" type="curve" smooth="yes"/>
      <point x="90" y="-225"/>
      <point x="121" y="-246"/>
      <point x="179" y="-246" type="curve"/>
      <point x="179" y="-179"/>
      <point x="199" y="-140"/>
      <point x="292" y="-140" type="curve" smooth="yes"/>
      <point x="826" y="-140" type="line" smooth="yes"/>
      <point x="1139" y="-140"/>
      <point x="1321" y="-37"/>
      <point x="1321" y="244" type="curve" smooth="yes"/>
      <point x="1321" y="389"/>
      <point x="1266" y="559"/>
      <point x="1077" y="559" type="curve" smooth="yes"/>
      <point x="966" y="559"/>
      <point x="862" y="495"/>
      <point x="862" y="343" type="curve" smooth="yes"/>
      <point x="862" y="192" type="line" smooth="yes"/>
      <point x="862" y="80"/>
      <point x="832" y="46"/>
      <point x="773" y="46" type="curve" smooth="yes"/>
      <point x="711" y="46"/>
      <point x="684" y="80"/>
    </contour>
  </outline>
</glyph>
<glyph name="ma_gran" format="2">
  <advance width="648"/>
  <unicode hex="1132E"/>
  <outline>
    <contour>
      <point x="284" y="177" type="curve" smooth="yes"/>
      <point x="364" y="207" type="line" smooth="yes"/>
      <point x="460" y="243"/>
      <point x="588" y="299"/>
      <point x="588" y="415" type="curve" smooth="yes"/>
      <point x="588" y="527"/>
      <point x="473" y="599"/>
      <point x="317" y="599" type="curve" smooth="yes"/>
      <point x="171" y="599"/>
      <point x="60" y="533"/>
      <point x="60" y="426" type="curve" smooth="yes"/>
      <point x="60" y="344"/>
      <point x="128" y="287"/>
      <point x="221" y="287" type="curve" smooth="yes"/>
      <point x="303" y="287"/>
      <point x="369" y="343"/>
      <point x="369" y="420" type="curve" smooth="yes"/>
      <point x="369" y="499"/>
      <point x="299" y="553"/>
      <point x="240" y="559" type="curve"/>
      <point x="185" y="556" type="line"/>
      <point x="245" y="540"/>
      <point x="278" y="479"/>
      <point x="278" y="426" type="curve" smooth="yes"/>
      <point x="278" y="377"/>
      <point x="253" y="341"/>
      <point x="200" y="341" type="curve" smooth="yes"/>
      <point x="154" y="341"/>
      <point x="119" y="368"/>
      <point x="119" y="422" type="curve" smooth="yes"/>
      <point x="119" y="501"/>
      <point x="189" y="545"/>
      <point x="315" y="545" type="curve" smooth="yes"/>
      <point x="402" y="545"/>
      <point x="492" y="499"/>
      <point x="492" y="412" type="curve" smooth="yes"/>
      <point x="492" y="327"/>
      <point x="391" y="272"/>
      <point x="313" y="243" type="curve" smooth="yes"/>
      <point x="251" y="220" type="line" smooth="yes"/>
      <point x="130" y="175"/>
      <point x="65" y="122"/>
      <point x="65" y="42" type="curve" smooth="yes"/>
      <point x="65" y="-51"/>
      <point x="162" y="-112"/>
      <point x="293" y="-112" type="curve" smooth="yes"/>
      <point x="447" y="-112"/>
      <point x="556" y="-13"/>
      <point x="556" y="86" type="curve" smooth="yes"/>
      <point x="556" y="133"/>
      <point x="529" y="168"/>
      <point x="508" y="190" type="curve"/>
      <point x="457" y="166" type="line"/>
      <point x="474" y="150"/>
      <point x="496" y="123"/>
      <point x="496" y="85" type="curve" smooth="yes"/>
      <point x="496" y="19"/>
      <point x="439" y="-58"/>
      <point x="300" y="-58" type="curve" smooth="yes"/>
      <point x="200" y="-58"/>
      <point x="151" y="-10"/>
      <point x="151" y="43" type="curve" smooth="yes"/>
      <point x="151" y="103"/>
      <point x="199" y="145"/>
    </contour>
  </outline>
</glyph>
<glyph name="ya_gran" format="2">
  <advance width="956"/>
  <unicode hex="1132F"/>
  <anchor x="469" y="-100" name="anudatta"/>
  <anchor x="956" y="0" name="anusvara"/>
  <anchor x="470" y="-60" name="bottom"/>
  <anchor x="944" y="0" name="post"/>
  <anchor x="936" y="0" name="repha"/>
  <anchor x="470" y="900" name="svara"/>
  <anchor x="470" y="640" name="top"/>
  <anchor x="964" y="566" name="topright"/>
  <anchor x="999" y="0" name="vattu"/>
  <anchor x="775" y="481" name="virama"/>
  <anchor x="896" y="0" name="yaphalaa"/>
  <outline>
    <contour>
      <point x="244" y="-5" type="curve" smooth="yes"/>
      <point x="317" y="-5"/>
      <point x="357" y="49"/>
      <point x="366" y="71" type="curve"/>
      <point x="366" y="0" type="line"/>
      <point x="876" y="0" type="line"/>
      <point x="876" y="554" type="line"/>
      <point x="781" y="554" type="line"/>
      <point x="781" y="54" type="line"/>
      <point x="455" y="54" type="line"/>
      <point x="455" y="554" type="line"/>
      <point x="360" y="554" type="line"/>
      <point x="360" y="160" type="line" smooth="yes"/>
      <point x="360" y="100"/>
      <point x="316" y="56"/>
      <point x="257" y="56" type="curve" smooth="yes"/>
      <point x="193" y="56"/>
      <point x="155" y="90"/>
      <point x="155" y="151" type="curve" smooth="yes"/>
      <point x="155" y="554" type="line"/>
      <point x="80" y="554" type="line"/>
      <point x="80" y="168" type="line" smooth="yes"/>
      <point x="80" y="52"/>
      <point x="148" y="-5"/>
    </contour>
  </outline>
</glyph>
<glyph name="ra_gran" format="2">
  <advance width="854"/>
  <unicode hex="11330"/>
  <outline>
    <contour>
      <point x="635" y="554" type="line"/>
      <point x="635" y="210" type="line" smooth="yes"/>
      <point x="635" y="76"/>
      <point x="584" y="54"/>
      <point x="524" y="54" type="curve" smooth="yes"/>
      <point x="467" y="54"/>
      <point x="419" y="87"/>
      <point x="419" y="196" type="curve" smooth="yes"/>
      <point x="419" y="554" type="line"/>
      <point x="324" y="554" type="line"/>
      <point x="324" y="195" type="line" smooth="yes"/>
      <point x="324" y="50"/>
      <point x="411" y="-5"/>
      <point x="514" y="-5" type="curve" smooth="yes"/>
      <point x="616" y="-5"/>
      <point x="694" y="47"/>
      <point x="694" y="210" type="curve" smooth="yes"/>
      <point x="694" y="554" type="line"/>
    </contour>
    <contour>
      <point x="80" y="0" type="line"/>
      <point x="145" y="0" type="line"/>
      <point x="145" y="500" type="line"/>
      <point x="790" y="500" type="line"/>
      <point x="790" y="554" type="line"/>
      <point x="80" y="554" type="line"/>
    </contour>
  </outline>
</glyph>
<glyph name="la_gran" format="2">
  <advance width="1138"/>
  <unicode hex="11332"/>
  <outline>
    <contour>
      <point x="537" y="-168" type="curve" smooth="yes"/>
      <point x="871" y="-168"/>
      <point x="1068" y="55"/>
      <point x="1068" y="318" type="curve" smooth="yes"/>
      <point x="1068" y="424"/>
      <point x="1033" y="568"/>
      <point x="929" y="649" type="curve"/>
      <point x="887" y="609" type="line"/>
      <point x="978" y="540"/>
      <point x="1004" y="419"/>
      <point x="1004" y="328" type="curve" smooth="yes"/>
      <point x="1004" y="96"/>
      <point x="838" y="-114"/>
      <point x="534" y="-114" type="curve" smooth="yes"/>
      <point x="265" y="-114"/>
      <point x="145" y="47"/>
      <point x="145" y="242" type="curve" smooth="yes"/>
      <point x="145" y="454"/>
      <point x="304" y="592"/>
      <point x="498" y="592" type="curve" smooth="yes"/>
      <point x="692" y="592"/>
      <point x="762" y="475"/>
      <point x="762" y="321" type="curve" smooth="yes"/>
      <point x="762" y="246"/>
      <point x="740" y="142"/>
      <point x="673" y="142" type="curve" smooth="yes"/>
      <point x="605" y="142"/>
      <point x="580" y="250"/>
      <point x="580" y="333" type="curve" smooth="yes"/>
      <point x="580" y="344" type="line"/>
      <point x="510" y="344" type="line"/>
      <point x="510" y="333" type="line" smooth="yes"/>
      <point x="510" y="242"/>
      <point x="467" y="142"/>
      <point x="401" y="142" type="curve" smooth="yes"/>
      <point x="354" y="142"/>
      <point x="327" y="187"/>
      <point x="327" y="248" type="curve" smooth="yes"/>
      <point x="327" y="308"/>
      <point x="353" y="350"/>
      <point x="393" y="388" type="curve"/>
      <point x="336" y="424" type="line"/>
      <point x="281" y="373"/>
      <point x="247" y="316"/>
      <point x="247" y="249" type="curve" smooth="yes"/>
      <point x="247" y="160"/>
      <point x="296" y="88"/>
      <point x="400" y="88" type="curve" smooth="yes"/>
      <point x="486" y="88"/>
      <point x="531" y="138"/>
      <point x="553" y="194" type="curve"/>
      <point x="532" y="201" type="line"/>
      <point x="559" y="131"/>
      <point x="606" y="88"/>
      <point x="674" y="88" type="curve" smooth="yes"/>
      <point x="790" y="88"/>
      <point x="857" y="210"/>
      <point x="857" y="335" type="curve" smooth="yes"/>
      <point x="857" y="515"/>
      <point x="732" y="647"/>
      <point x="504" y="647" type="curve" smooth="yes"/>
      <point x="249" y="647"/>
      <point x="70" y="470"/>
      <point x="70" y="239" type="curve" smooth="yes"/>
      <point x="70" y="9"/>
      <point x="223" y="-168"/>
    </contour>
  </outline>
</glyph>
<glyph name="lla_gran" format="2">
  <advance width="1379"/>
  <unicode hex="11333"/>
  <anchor x="643" y="-100" name="anudatta"/>
  <anchor x="1379" y="0" name="anusvara"/>
  <anchor x="695" y="-60" name="bottom"/>
  <anchor x="1408" y="0" name="post"/>
  <anchor x="1379" y="0" name="repha"/>
  <anchor x="709" y="900" name="svara"/>
  <anchor x="633" y="640" name="top"/>
  <anchor x="1208" y="566" name="topright"/>
  <anchor x="1423" y="0" name="vattu"/>
  <anchor x="1041" y="469" name="virama"/>
  <anchor x="1340" y="0" name="yaphalaa"/>
  <outline>
    <contour>
      <point x="1319" y="0" type="line"/>
      <point x="1319" y="54" type="line"/>
      <point x="1077" y="54" type="line"/>
      <point x="1160" y="97"/>
      <point x="1205" y="165"/>
      <point x="1205" y="272" type="curve" smooth="yes"/>
      <point x="1205" y="442"/>
      <point x="1073" y="559"/>
      <point x="911" y="559" type="curve" smooth="yes"/>
      <point x="800" y="559"/>
      <point x="686" y="503"/>
      <point x="646" y="326" type="curve"/>
      <point x="705" y="274" type="line"/>
      <point x="722" y="455"/>
      <point x="825" y="505"/>
      <point x="905" y="505" type="curve" smooth="yes"/>
      <point x="1021" y="505"/>
      <point x="1109" y="402"/>
      <point x="1109" y="257" type="curve" smooth="yes"/>
      <point x="1109" y="150"/>
      <point x="1070" y="83"/>
      <point x="988" y="43" type="curve"/>
      <point x="1006" y="0" type="line"/>
    </contour>
    <contour>
      <point x="610" y="272" type="curve" smooth="yes"/>
      <point x="610" y="0" type="line"/>
      <point x="705" y="0" type="line"/>
      <point x="705" y="273" type="line" smooth="yes"/>
      <point x="705" y="455"/>
      <point x="598" y="559"/>
      <point x="403" y="559" type="curve" smooth="yes"/>
      <point x="226" y="559"/>
      <point x="70" y="454"/>
      <point x="70" y="250" type="curve" smooth="yes"/>
      <point x="70" y="83"/>
      <point x="173" y="-4"/>
      <point x="289" y="-4" type="curve" smooth="yes"/>
      <point x="398" y="-4"/>
      <point x="470" y="60"/>
      <point x="470" y="150" type="curve" smooth="yes"/>
      <point x="470" y="242"/>
      <point x="412" y="304"/>
      <point x="318" y="304" type="curve" smooth="yes"/>
      <point x="220" y="304"/>
      <point x="138" y="229"/>
      <point x="131" y="124" type="curve"/>
      <point x="161" y="97" type="line"/>
      <point x="167" y="185"/>
      <point x="216" y="236"/>
      <point x="281" y="236" type="curve" smooth="yes"/>
      <point x="348" y="236"/>
      <point x="377" y="191"/>
      <point x="377" y="146" type="curve" smooth="yes"/>
      <point x="377" y="92"/>
      <point x="338" y="49"/>
      <point x="272" y="49" type="curve" smooth="yes"/>
      <point x="198" y="49"/>
      <point x="128" y="115"/>
      <point x="128" y="249" type="curve" smooth="yes"/>
      <point x="128" y="415"/>
      <point x="247" y="505"/>
      <point x="395" y="505" type="curve" smooth="yes"/>
      <point x="561" y="505"/>
      <point x="610" y="418"/>
    </contour>
  </outline>
</glyph>
<glyph name="sha_gran" format="2">
  <advance width="1193"/>
  <unicode hex="11336"/>
  <outline>
    <contour>
      <point x="409" y="554" type="line"/>
      <point x="409" y="210" type="line" smooth="yes"/>
      <point x="409" y="76"/>
      <point x="350" y="54"/>
      <point x="290" y="54" type="curve" smooth="yes"/>
      <point x="233" y="54"/>
      <point x="175" y="87"/>
      <point x="175" y="196" type="curve" smooth="yes"/>
      <point x="175" y="554" type="line"/>
      <point x="80" y="554" type="line"/>
      <point x="80" y="195" type="line" smooth="yes"/>
      <point x="80" y="50"/>
      <point x="177" y="-5"/>
      <point x="280" y="-5" type="curve" smooth="yes"/>
      <point x="382" y="-5"/>
      <point x="470" y="47"/>
      <point x="470" y="210" type="curve" smooth="yes"/>
      <point x="470" y="554" type="line"/>
    </contour>
    <contour>
      <point x="1034" y="500" type="line"/>
      <point x="1133" y="500" type="line"/>
      <point x="1133" y="554" type="line"/>
      <point x="973" y="554" type="line"/>
      <point x="973" y="210" type="line" smooth="yes"/>
      <point x="973" y="76"/>
      <point x="914" y="54"/>
      <point x="854" y="54" type="curve" smooth="yes"/>
      <point x="797" y="54"/>
      <point x="739" y="87"/>
      <point x="739" y="196" type="curve" smooth="yes"/>
      <point x="739" y="554" type="line"/>
      <point x="644" y="554" type="line"/>
      <point x="644" y="195" type="line" smooth="yes"/>
      <point x="644" y="50"/>
      <point x="741" y="-5"/>
      <point x="844" y="-5" type="curve" smooth="yes"/>
      <point x="946" y="-5"/>
      <point x="1034" y="47"/>
      <point x="1034" y="210" type="curve" smooth="yes"/>
    </contour>
    <contour>
      <point x="412" y="554" type="line"/>
      <point x="412" y="500" type="line"/>
      <point x="1024" y="500" type="line"/>
      <point x="1024" y="554" type="line"/>
    </contour>
  </outline>
</glyph>
<glyph name="ssa_gran" format="2">
  <advance width="1455"/>
  <unicode hex="11337"/>
  <guideline x="1009" y="-23" angle="75.8349"/>
  <anchor x="694" y="-100" name="anudatta"/>
  <anchor x="1455" y="0" name="anusvara"/>
  <anchor x="694" y="-70" name="bottom"/>
  <anchor x="940" y="593" name="iiMatra"/>
  <anchor x="1487" y="0" name="post"/>
  <anchor x="1445" y="0" name="repha"/>
  <anchor x="695" y="900" name="svara"/>
  <anchor x="695" y="640" name="top"/>
  <anchor x="1200" y="566" name="topright"/>
  <anchor x="1498" y="0" name="vattu"/>
  <anchor x="1110" y="471" name="virama"/>
  <anchor x="1395" y="0" name="yaphalaa"/>
  <outline>
    <contour>
      <point x="290" y="-4" type="curve" smooth="yes"/>
      <point x="398" y="-4"/>
      <point x="470" y="60"/>
      <point x="470" y="150" type="curve" smooth="yes"/>
      <point x="470" y="242"/>
      <point x="412" y="304"/>
      <point x="318" y="304" type="curve" smooth="yes"/>
      <point x="221" y="304"/>
      <point x="139" y="229"/>
      <point x="132" y="124" type="curve"/>
      <point x="162" y="97" type="line"/>
      <point x="168" y="185"/>
      <point x="217" y="236"/>
      <point x="281" y="236" type="curve" smooth="yes"/>
      <point x="349" y="236"/>
      <point x="378" y="191"/>
      <point x="378" y="146" type="curve" smooth="yes"/>
      <point x="378" y="92"/>
      <point x="339" y="49"/>
      <point x="273" y="49" type="curve" smooth="yes"/>
      <point x="201" y="49"/>
      <point x="128" y="109"/>
      <point x="128" y="231" type="curve" smooth="yes"/>
      <point x="128" y="403"/>
      <point x="243" y="505"/>
      <point x="415" y="505" type="curve" smooth="yes"/>
      <point x="564" y="505"/>
      <point x="679" y="402"/>
      <point x="679" y="257" type="curve" smooth="yes"/>
      <point x="679" y="150"/>
      <point x="640" y="83"/>
      <point x="598" y="43" type="curve"/>
      <point x="616" y="0" type="line"/>
      <point x="1385" y="0" type="line"/>
      <point x="1385" y="345" type="line"/>
      <point x="1290" y="294" type="line"/>
      <point x="1290" y="54" type="line"/>
      <point x="687" y="54" type="line"/>
      <point x="730" y="97"/>
      <point x="774" y="164"/>
      <point x="774" y="261" type="curve" smooth="yes"/>
      <point x="774" y="441"/>
      <point x="620" y="559"/>
      <point x="428" y="559" type="curve" smooth="yes"/>
      <point x="222" y="559"/>
      <point x="70" y="440"/>
      <point x="70" y="234" type="curve" smooth="yes"/>
      <point x="70" y="77"/>
      <point x="178" y="-4"/>
    </contour>
    <contour>
      <point x="1049" y="-296" type="line"/>
      <point x="1135" y="-296" type="line"/>
      <point x="1135" y="432" type="line" smooth="yes"/>
      <point x="1135" y="503"/>
      <point x="1090" y="559"/>
      <point x="1009" y="559" type="curve" smooth="yes"/>
      <point x="911" y="559"/>
      <point x="859" y="503"/>
      <point x="859" y="415" type="curve" smooth="yes"/>
      <point x="859" y="287"/>
      <point x="957" y="218"/>
      <point x="1088" y="218" type="curve" smooth="yes"/>
      <point x="1184" y="218"/>
      <point x="1278" y="230"/>
      <point x="1385" y="340" type="curve"/>
      <point x="1385" y="351" type="line"/>
      <point x="1344" y="378" type="line"/>
      <point x="1266" y="300"/>
      <point x="1193" y="271"/>
      <point x="1086" y="271" type="curve" smooth="yes"/>
      <point x="985" y="271"/>
      <point x="914" y="307"/>
      <point x="914" y="414" type="curve" smooth="yes"/>
      <point x="914" y="467"/>
      <point x="940" y="505"/>
      <point x="989" y="505" type="curve" smooth="yes"/>
      <point x="1026" y="505"/>
      <point x="1049" y="484"/>
      <point x="1049" y="445" type="curve" smooth="yes"/>
    </contour>
  </outline>
</glyph>
<glyph name="sa_gran" format="2">
  <advance width="1634"/>
  <unicode hex="11338"/>
  <outline>
    <contour>
      <point x="1146" y="433" type="curve"/>
      <point x="1188" y="481" type="line"/>
      <point x="1172" y="514"/>
      <point x="1133" y="558"/>
      <point x="1058" y="558" type="curve" smooth="yes"/>
      <point x="975" y="558"/>
      <point x="905" y="504"/>
      <point x="905" y="403" type="curve" smooth="yes"/>
      <point x="905" y="54" type="line"/>
      <point x="687" y="54" type="line"/>
      <point x="730" y="97"/>
      <point x="775" y="164"/>
      <point x="775" y="261" type="curve" smooth="yes"/>
      <point x="775" y="441"/>
      <point x="620" y="559"/>
      <point x="428" y="559" type="curve" smooth="yes"/>
      <point x="222" y="559"/>
      <point x="70" y="440"/>
      <point x="70" y="234" type="curve" smooth="yes"/>
      <point x="70" y="77"/>
      <point x="178" y="-4"/>
      <point x="290" y="-4" type="curve" smooth="yes"/>
      <point x="398" y="-4"/>
      <point x="470" y="60"/>
      <point x="470" y="150" type="curve" smooth="yes"/>
      <point x="470" y="242"/>
      <point x="412" y="304"/>
      <point x="318" y="304" type="curve" smooth="yes"/>
      <point x="221" y="304"/>
      <point x="139" y="229"/>
      <point x="132" y="124" type="curve"/>
      <point x="162" y="97" type="line"/>
      <point x="168" y="185"/>
      <point x="217" y="236"/>
      <point x="281" y="236" type="curve" smooth="yes"/>
      <point x="349" y="236"/>
      <point x="378" y="191"/>
      <point x="378" y="146" type="curve" smooth="yes"/>
      <point x="378" y="92"/>
      <point x="339" y="49"/>
      <point x="273" y="49" type="curve" smooth="yes"/>
      <point x="201" y="49"/>
      <point x="128" y="109"/>
      <point x="128" y="231" type="curve" smooth="yes"/>
      <point x="128" y="403"/>
      <point x="243" y="505"/>
      <point x="415" y="505" type="curve" smooth="yes"/>
      <point x="564" y="505"/>
      <point x="679" y="402"/>
      <point x="679" y="257" type="curve" smooth="yes"/>
      <point x="679" y="150"/>
      <point x="640" y="83"/>
      <point x="598" y="43" type="curve"/>
      <point x="616" y="0" type="line"/>
      <point x="966" y="0" type="line"/>
      <point x="966" y="403" type="line" smooth="yes"/>
      <point x="966" y="469"/>
      <point x="1003" y="504"/>
      <point x="1057" y="504" type="curve" smooth="yes"/>
      <point x="1104" y="504"/>
      <point x="1134" y="477"/>
    </contour>
    <contour>
      <point x="905" y="0" type="line"/>
      <point x="956" y="0" type="line"/>
      <point x="956" y="404" type="line" smooth="yes"/>
      <point x="956" y="463"/>
      <point x="987" y="504"/>
      <point x="1052" y="504" type="curve" smooth="yes"/>
      <point x="1108" y="504"/>
      <point x="1141" y="471"/>
      <point x="1141" y="417" type="curve" smooth="yes"/>
      <point x="1141" y="178" type="line" smooth="yes"/>
      <point x="1141" y="63"/>
      <point x="1224" y="0"/>
      <point x="1322" y="0" type="curve" smooth="yes"/>
      <point x="1476" y="0"/>
      <point x="1564" y="131"/>
      <point x="1564" y="279" type="curve" smooth="yes"/>
      <point x="1564" y="375"/>
      <point x="1532" y="478"/>
      <point x="1444" y="559" type="curve"/>
      <point x="1402" y="519" type="line"/>
      <point x="1477" y="450"/>
      <point x="1500" y="370"/>
      <point x="1500" y="289" type="curve" smooth="yes"/>
      <point x="1500" y="163"/>
      <point x="1433" y="59"/>
      <point x="1332" y="59" type="curve" smooth="yes"/>
      <point x="1284" y="59"/>
      <point x="1236" y="94"/>
      <point x="1236" y="177" type="curve" smooth="yes"/>
      <point x="1236" y="401" type="line" smooth="yes"/>
      <point x="1236" y="498"/>
      <point x="1163" y="559"/>
      <point x="1066" y="559" type="curve" smooth="yes"/>
      <point x="958" y="559"/>
      <point x="905" y="489"/>
      <point x="905" y="410" type="curve" smooth="yes"/>
    </contour>
  </outline>
</glyph>
<glyph name="binducomb_gran" format="2">
  <unicode hex="1133B"/>
  <outline>
    <contour>
      <point x="-302" y="-364" type="curve" smooth="yes"/>
      <point x="-258" y="-364"/>
      <point x="-223" y="-329"/>
      <point x="-223" y="-285" type="curve" smooth="yes"/>
      <point x="-223" y="-242"/>
      <point x="-258" y="-207"/>
      <point x="-302" y="-207" type="curve" smooth="yes"/>
      <point x="-346" y="-207"/>
      <point x="-381" y="-242"/>
      <point x="-381" y="-285" type="curve" smooth="yes"/>
      <point x="-381" y="-329"/>
      <point x="-346" y="-364"/>
    </contour>
  </outline>
</glyph>
<glyph name="nukta_gran" format="2">
  <unicode hex="1133C"/>
  <outline>
    <contour>
      <point x="-438" y="-364" type="curve" smooth="yes"/>
      <point x="-394" y="-364"/>
      <point x="-359" y="-329"/>
      <point x="-359" y="-285" type="curve" smooth="yes"/>
      <point x="-359" y="-242"/>
      <point x="-394" y="-207"/>
      <point x="-438" y="-207" type="curve" smooth="yes"/>
      <point x="-482" y="-207"/>
      <point x="-517" y="-242"/>
      <point x="-517" y="-285" type="curve" smooth="yes"/>
      <point x="-517" y="-329"/>
      <point x="-482" y="-364"/>
    </contour>
    <contour>
      <point x="-168" y="-363" type="curve" smooth="yes"/>
      <point x="-124" y="-363"/>
      <point x="-89" y="-328"/>
      <point x="-89" y="-284" type="curve" smooth="yes"/>
      <point x="-89" y="-241"/>
      <point x="-124" y="-206"/>
      <point x="-168" y="-206" type="curve" smooth="yes"/>
      <point x="-212" y="-206"/>
      <point x="-247" y="-241"/>
      <point x="-247" y="-284" type="curve" smooth="yes"/>
      <point x="-247" y="-328"/>
      <point x="-212" y="-363"/>
    </contour>
  </outline>
</glyph>
<glyph name="avagraha_gran" format="2">
  <advance width="498"/>
  <unicode hex="1133D"/>
  <guideline x="263" y="241" angle="163.0812"/>
  <anchor x="498" y="0" name="anusvara"/>
  <anchor x="498" y="0" name="post"/>
  <anchor x="498" y="566" name="topright"/>
  <outline>
    <contour>
      <point x="179" y="326" type="line"/>
      <point x="392" y="542" type="line"/>
      <point x="339" y="586" type="line"/>
      <point x="65" y="301" type="line"/>
      <point x="324" y="222" type="line"/>
      <point x="48" y="-53" type="line"/>
      <point x="111" y="-90" type="line"/>
      <point x="442" y="246" type="line"/>
    </contour>
  </outline>
</glyph>
<glyph name="aaMatra_gran" format="2">
  <unicode hex="1133E"/>
  <outline>
    <contour>
      <point x="98" y="0" type="line"/>
      <point x="159" y="0" type="line"/>
      <point x="159" y="500" type="line"/>
      <point x="387" y="500" type="line"/>
      <point x="387" y="0" type="line"/>
      <point x="481" y="0" type="line"/>
      <point x="481" y="500" type="line"/>
      <point x="657" y="500" type="line"/>
      <point x="657" y="554" type="line"/>
      <point x="98" y="554" type="line"/>
    </contour>
  </outline>
</glyph>
<glyph name="iMatra_gran" format="2">
  <unicode hex="1133F"/>
  <outline>
    <contour>
      <point x="88" y="0" type="line"/>
      <point x="149" y="0" type="line"/>
      <point x="149" y="570" type="line" smooth="yes"/>
      <point x="149" y="736"/>
      <point x="19" y="834"/>
      <point x="-153" y="834" type="curve" smooth="yes"/>
      <point x="-312" y="834"/>
      <point x="-418" y="757"/>
      <point x="-418" y="646" type="curve" smooth="yes"/>
      <point x="-418" y="560"/>
      <point x="-350" y="500"/>
      <point x="-268" y="500" type="curve" smooth="yes"/>
      <point x="-263" y="500" type="line"/>
      <point x="-263" y="554" type="line"/>
      <point x="-268" y="554" type="line" smooth="yes"/>
      <point x="-318" y="554"/>
      <point x="-353" y="587"/>
      <point x="-353" y="637" type="curve" smooth="yes"/>
      <point x="-353" y="709"/>
      <point x="-277" y="746"/>
      <point x="-164" y="746" type="curve" smooth="yes"/>
      <point x="-9" y="746"/>
      <point x="88" y="678"/>
      <point x="88" y="540" type="curve" smooth="yes"/>
    </contour>
  </outline>
</glyph>
<glyph name="iiMatra_gran" format="2">
  <unicode hex="11340"/>
  <anchor x="-369" y="537" name="_iiMatra"/>
  <outline>
    <contour>
      <point x="-254" y="452" type="curve"/>
      <point x="-254" y="496" type="line"/>
      <point x="-325" y="520"/>
      <point x="-364" y="559"/>
      <point x="-364" y="634" type="curve" smooth="yes"/>
      <point x="-364" y="720"/>
      <point x="-308" y="778"/>
      <point x="-198" y="778" type="curve" smooth="yes"/>
      <point x="-123" y="778"/>
      <point x="-72" y="742"/>
      <point x="-72" y="680" type="curve" smooth="yes"/>
      <point x="-72" y="637"/>
      <point x="-105" y="606"/>
      <point x="-150" y="606" type="curve" smooth="yes"/>
      <point x="-245" y="606"/>
      <point x="-266" y="706"/>
      <point x="-216" y="801" type="curve"/>
      <point x="-259" y="805" type="line"/>
      <point x="-333" y="679"/>
      <point x="-281" y="552"/>
      <point x="-136" y="552" type="curve" smooth="yes"/>
      <point x="-50" y="552"/>
      <point x="11" y="606"/>
      <point x="11" y="675" type="curve" smooth="yes"/>
      <point x="11" y="768"/>
      <point x="-68" y="832"/>
      <point x="-194" y="832" type="curve" smooth="yes"/>
      <point x="-329" y="832"/>
      <point x="-422" y="750"/>
      <point x="-422" y="635" type="curve" smooth="yes"/>
      <point x="-422" y="535"/>
      <point x="-347" y="476"/>
    </contour>
  </outline>
</glyph>
<glyph name="uuMatra_gran" format="2">
  <unicode hex="11342"/>
  <anchor x="-40" y="566" name="_topright"/>
  <anchor x="1000" y="0" name="anusvara"/>
  <anchor x="996" y="0" name="post"/>
  <outline>
    <contour>
      <point x="514" y="0" type="curve" smooth="yes"/>
      <point x="801" y="0"/>
      <point x="970" y="169"/>
      <point x="970" y="411" type="curve" smooth="yes"/>
      <point x="970" y="590"/>
      <point x="833" y="780"/>
      <point x="605" y="780" type="curve" smooth="yes"/>
      <point x="386" y="780"/>
      <point x="288" y="648"/>
      <point x="288" y="523" type="curve" smooth="yes"/>
      <point x="288" y="403" type="line" smooth="yes"/>
      <point x="288" y="284"/>
      <point x="359" y="214"/>
      <point x="475" y="214" type="curve" smooth="yes"/>
      <point x="577" y="214"/>
      <point x="654" y="279"/>
      <point x="654" y="383" type="curve" smooth="yes"/>
      <point x="654" y="554" type="line"/>
      <point x="-40" y="554" type="line"/>
      <point x="-40" y="500" type="line"/>
      <point x="560" y="500" type="line"/>
      <point x="560" y="374" type="line" smooth="yes"/>
      <point x="560" y="313"/>
      <point x="517" y="268"/>
      <point x="456" y="268" type="curve" smooth="yes"/>
      <point x="384" y="268"/>
      <point x="349" y="318"/>
      <point x="349" y="398" type="curve" smooth="yes"/>
      <point x="349" y="523" type="line" smooth="yes"/>
      <point x="349" y="630"/>
      <point x="434" y="727"/>
      <point x="587" y="727" type="curve" smooth="yes"/>
      <point x="801" y="727"/>
      <point x="875" y="570"/>
      <point x="875" y="425" type="curve" smooth="yes"/>
      <point x="875" y="217"/>
      <point x="778" y="54"/>
      <point x="515" y="54" type="curve" smooth="yes"/>
      <point x="394" y="54"/>
      <point x="271" y="100"/>
      <point x="190" y="217" type="curve"/>
      <point x="151" y="186" type="line"/>
      <point x="238" y="66"/>
      <point x="364" y="0"/>
    </contour>
  </outline>
</glyph>
<glyph name="rVocalicMatra_gran" format="2">
  <unicode hex="11343"/>
  <outline>
    <contour>
      <point x="347" y="334" type="line"/>
      <point x="347" y="388" type="line"/>
      <point x="-43" y="388" type="line"/>
      <point x="-43" y="334" type="line"/>
    </contour>
    <contour>
      <point x="-284" y="-388" type="curve" smooth="yes"/>
      <point x="-284" y="-495"/>
      <point x="-184" y="-553"/>
      <point x="-71" y="-553" type="curve" smooth="yes"/>
      <point x="21" y="-553"/>
      <point x="234" y="-515"/>
      <point x="234" y="-166" type="curve" smooth="yes"/>
      <point x="234" y="345" type="line"/>
      <point x="140" y="345" type="line"/>
      <point x="140" y="-235" type="line" smooth="yes"/>
      <point x="140" y="-448"/>
      <point x="2" y="-499"/>
      <point x="-69" y="-499" type="curve" smooth="yes"/>
      <point x="-149" y="-499"/>
      <point x="-190" y="-442"/>
      <point x="-190" y="-384" type="curve" smooth="yes"/>
      <point x="-190" y="-330"/>
      <point x="-149" y="-275"/>
      <point x="-85" y="-275" type="curve" smooth="yes"/>
      <point x="-24" y="-275"/>
      <point x="21" y="-321"/>
      <point x="21" y="-392" type="curve" smooth="yes"/>
      <point x="21" y="-413"/>
      <point x="17" y="-458"/>
      <point x="-28" y="-494" type="curve"/>
      <point x="7" y="-502" type="line"/>
      <point x="47" y="-477"/>
      <point x="79" y="-439"/>
      <point x="79" y="-375" type="curve" smooth="yes"/>
      <point x="79" y="-289"/>
      <point x="22" y="-221"/>
      <point x="-85" y="-221" type="curve" smooth="yes"/>
      <point x="-183" y="-221"/>
      <point x="-284" y="-273"/>
    </contour>
  </outline>
</glyph>
<glyph name="rrVocalicMatra_gran" format="2">
  <unicode hex="11344"/>
  <outline>
    <contour>
      <point x="347" y="334" type="line"/>
      <point x="347" y="388" type="line"/>
      <point x="-43" y="388" type="line"/>
      <point x="-43" y="334" type="line"/>
    </contour>
    <contour>
      <point x="-499" y="-388" type="curve" smooth="yes"/>
      <point x="-499" y="-480"/>
      <point x="-428" y="-603"/>
      <point x="-195" y="-603" type="curve" smooth="yes"/>
      <point x="-69" y="-603"/>
      <point x="235" y="-529"/>
      <point x="235" y="-245" type="curve" smooth="yes"/>
      <point x="235" y="353" type="line"/>
      <point x="140" y="353" type="line"/>
      <point x="140" y="-274" type="line" smooth="yes"/>
      <point x="140" y="-467"/>
      <point x="-67" y="-549"/>
      <point x="-195" y="-549" type="curve" smooth="yes"/>
      <point x="-364" y="-549"/>
      <point x="-435" y="-475"/>
      <point x="-435" y="-386" type="curve" smooth="yes"/>
      <point x="-435" y="-337"/>
      <point x="-418" y="-283"/>
      <point x="-357" y="-283" type="curve" smooth="yes"/>
      <point x="-296" y="-283"/>
      <point x="-259" y="-348"/>
      <point x="-259" y="-427" type="curve"/>
      <point x="-185" y="-427" type="line"/>
      <point x="-185" y="-359"/>
      <point x="-151" y="-283"/>
      <point x="-90" y="-283" type="curve" smooth="yes"/>
      <point x="-46" y="-283"/>
      <point x="-20" y="-318"/>
      <point x="-20" y="-381" type="curve" smooth="yes"/>
      <point x="-20" y="-467"/>
      <point x="-95" y="-529"/>
      <point x="-139" y="-546" type="curve"/>
      <point x="-177" y="-597" type="line"/>
      <point x="-111" y="-573"/>
      <point x="65" y="-504"/>
      <point x="65" y="-378" type="curve" smooth="yes"/>
      <point x="65" y="-287"/>
      <point x="9" y="-229"/>
      <point x="-83" y="-229" type="curve" smooth="yes"/>
      <point x="-161" y="-229"/>
      <point x="-207" y="-268"/>
      <point x="-229" y="-334" type="curve"/>
      <point x="-208" y="-334" type="line"/>
      <point x="-235" y="-254"/>
      <point x="-290" y="-229"/>
      <point x="-356" y="-229" type="curve" smooth="yes"/>
      <point x="-435" y="-229"/>
      <point x="-499" y="-293"/>
    </contour>
  </outline>
</glyph>
<glyph name="eeMatra_gran" format="2">
  <advance width="867"/>
  <unicode hex="11347"/>
  <outline>
    <contour>
      <point x="359" y="-4" type="curve" smooth="yes"/>
      <point x="467" y="-4"/>
      <point x="539" y="60"/>
      <point x="539" y="150" type="curve" smooth="yes"/>
      <point x="539" y="247"/>
      <point x="481" y="309"/>
      <point x="382" y="309" type="curve" smooth="yes"/>
      <point x="280" y="309"/>
      <point x="193" y="229"/>
      <point x="191" y="99" type="curve"/>
      <point x="221" y="72" type="line"/>
      <point x="222" y="185"/>
      <point x="276" y="241"/>
      <point x="345" y="241" type="curve" smooth="yes"/>
      <point x="418" y="241"/>
      <point x="446" y="196"/>
      <point x="446" y="146" type="curve" smooth="yes"/>
      <point x="446" y="92"/>
      <point x="407" y="49"/>
      <point x="341" y="49" type="curve" smooth="yes"/>
      <point x="158" y="49"/>
      <point x="129" y="257"/>
      <point x="129" y="376" type="curve" smooth="yes"/>
      <point x="129" y="599"/>
      <point x="245" y="739"/>
      <point x="456" y="739" type="curve" smooth="yes"/>
      <point x="647" y="739"/>
      <point x="726" y="650"/>
      <point x="726" y="446" type="curve" smooth="yes"/>
      <point x="726" y="0" type="line"/>
      <point x="787" y="0" type="line"/>
      <point x="787" y="446" type="line" smooth="yes"/>
      <point x="787" y="698"/>
      <point x="681" y="829"/>
      <point x="460" y="829" type="curve" smooth="yes"/>
      <point x="219" y="829"/>
      <point x="70" y="637"/>
      <point x="70" y="388" type="curve" smooth="yes"/>
      <point x="70" y="241"/>
      <point x="123" y="-4"/>
    </contour>
  </outline>
</glyph>
<glyph name="virama_gran" format="2">
  <unicode hex="1134D"/>
  <outline>
    <contour>
      <point x="79" y="873" type="line"/>
      <point x="5" y="873" type="line" smooth="yes"/>
      <point x="-241" y="873"/>
      <point x="-290" y="814"/>
      <point x="-290" y="755" type="curve" smooth="yes"/>
      <point x="-290" y="713"/>
      <point x="-263" y="690"/>
      <point x="-237" y="675" type="curve"/>
      <point x="-237" y="692" type="line"/>
      <point x="-282" y="680"/>
      <point x="-305" y="650"/>
      <point x="-305" y="604" type="curve" smooth="yes"/>
      <point x="-305" y="537"/>
      <point x="-255" y="494"/>
      <point x="-149" y="494" type="curve" smooth="yes"/>
      <point x="-59" y="494" type="line"/>
      <point x="-59" y="548" type="line"/>
      <point x="-135" y="548" type="line" smooth="yes"/>
      <point x="-196" y="548"/>
      <point x="-229" y="577"/>
      <point x="-229" y="606" type="curve" smooth="yes"/>
      <point x="-229" y="635"/>
      <point x="-196" y="654"/>
      <point x="-135" y="654" type="curve" smooth="yes"/>
      <point x="-39" y="654" type="line"/>
      <point x="-39" y="708" type="line"/>
      <point x="-125" y="708" type="line" smooth="yes"/>
      <point x="-172" y="708"/>
      <point x="-224" y="724"/>
      <point x="-224" y="759" type="curve" smooth="yes"/>
      <point x="-224" y="787"/>
      <point x="-191" y="823"/>
      <point x="26" y="823" type="curve" smooth="yes"/>
      <point x="70" y="823" type="line"/>
    </contour>
  </outline>
</glyph>
<glyph name="om_gran" format="2">
  <advance width="1122"/>
  <unicode hex="11350"/>
  <outline>
    <contour>
      <point x="957" y="923" type="curve"/>
      <point x="966" y="863" type="line"/>
      <point x="895" y="855"/>
      <point x="757" y="783"/>
      <point x="668" y="659" type="curve" smooth="yes"/>
      <point x="607" y="573"/>
      <point x="567" y="445"/>
      <point x="588" y="254" type="curve" smooth="yes"/>
      <point x="601" y="138"/>
      <point x="648" y="10"/>
      <point x="648" y="-85" type="curve" smooth="yes"/>
      <point x="648" y="-255"/>
      <point x="561" y="-370"/>
      <point x="431" y="-370" type="curve" smooth="yes"/>
      <point x="326" y="-370"/>
      <point x="296" y="-296"/>
      <point x="296" y="-242" type="curve" smooth="yes"/>
      <point x="296" y="-157"/>
      <point x="370" y="-81"/>
      <point x="543" y="-81" type="curve" smooth="yes"/>
      <point x="720" y="-81" type="line" smooth="yes"/>
      <point x="859" y="-81"/>
      <point x="910" y="-46"/>
      <point x="910" y="-8" type="curve" smooth="yes"/>
      <point x="910" y="11"/>
      <point x="897" y="29"/>
      <point x="860" y="29" type="curve" smooth="yes"/>
      <point x="830" y="29"/>
      <point x="806" y="10"/>
      <point x="797" y="-8" type="curve"/>
      <point x="742" y="-8" type="line"/>
      <point x="757" y="38"/>
      <point x="801" y="83"/>
      <point x="880" y="83" type="curve" smooth="yes"/>
      <point x="958" y="83"/>
      <point x="996" y="42"/>
      <point x="996" y="-4" type="curve" smooth="yes"/>
      <point x="996" y="-79"/>
      <point x="921" y="-135"/>
      <point x="721" y="-135" type="curve" smooth="yes"/>
      <point x="512" y="-135" type="line" smooth="yes"/>
      <point x="413" y="-135"/>
      <point x="363" y="-183"/>
      <point x="363" y="-239" type="curve" smooth="yes"/>
      <point x="363" y="-274"/>
      <point x="379" y="-316"/>
      <point x="431" y="-316" type="curve" smooth="yes"/>
      <point x="505" y="-316"/>
      <point x="552" y="-229"/>
      <point x="552" y="-97" type="curve" smooth="yes"/>
      <point x="552" y="-2"/>
      <point x="528" y="109"/>
      <point x="513" y="249" type="curve" smooth="yes"/>
      <point x="493" y="438"/>
      <point x="526" y="576"/>
      <point x="601" y="692" type="curve" smooth="yes"/>
      <point x="678" y="812"/>
      <point x="812" y="904"/>
    </contour>
    <contour>
      <point x="843" y="189" type="line"/>
      <point x="921" y="189" type="line"/>
      <point x="921" y="69" type="line"/>
      <point x="843" y="69" type="line"/>
    </contour>
    <contour>
      <point x="706" y="180" type="line"/>
      <point x="688" y="223" type="line"/>
      <point x="730" y="263"/>
      <point x="769" y="330"/>
      <point x="769" y="437" type="curve" smooth="yes"/>
      <point x="769" y="582"/>
      <point x="654" y="685"/>
      <point x="475" y="685" type="curve" smooth="yes"/>
      <point x="273" y="685"/>
      <point x="118" y="583"/>
      <point x="118" y="411" type="curve" smooth="yes"/>
      <point x="118" y="289"/>
      <point x="191" y="229"/>
      <point x="263" y="229" type="curve" smooth="yes"/>
      <point x="329" y="229"/>
      <point x="368" y="272"/>
      <point x="368" y="326" type="curve" smooth="yes"/>
      <point x="368" y="371"/>
      <point x="339" y="416"/>
      <point x="271" y="416" type="curve" smooth="yes"/>
      <point x="207" y="416"/>
      <point x="158" y="365"/>
      <point x="152" y="277" type="curve"/>
      <point x="122" y="304" type="line"/>
      <point x="129" y="409"/>
      <point x="211" y="484"/>
      <point x="308" y="484" type="curve" smooth="yes"/>
      <point x="402" y="484"/>
      <point x="460" y="422"/>
      <point x="460" y="330" type="curve" smooth="yes"/>
      <point x="460" y="240"/>
      <point x="388" y="176"/>
      <point x="280" y="176" type="curve" smooth="yes"/>
      <point x="168" y="176"/>
      <point x="60" y="257"/>
      <point x="60" y="414" type="curve" smooth="yes"/>
      <point x="60" y="620"/>
      <point x="252" y="739"/>
      <point x="488" y="739" type="curve" smooth="yes"/>
      <point x="710" y="739"/>
      <point x="865" y="621"/>
      <point x="865" y="441" type="curve" smooth="yes"/>
      <point x="865" y="344"/>
      <point x="820" y="277"/>
      <point x="777" y="234" type="curve"/>
      <point x="1081" y="234" type="line"/>
      <point x="1081" y="180" type="line"/>
    </contour>
  </outline>
</glyph>
<glyph name="pluta_gran" format="2">
  <advance width="480"/>
  <unicode hex="1135D"/>
  <outline>
    <contour>
      <point x="109" y="340" type="curve"/>
      <point x="151" y="367" type="line"/>
      <point x="143" y="377"/>
      <point x="139" y="388"/>
      <point x="139" y="399" type="curve" smooth="yes"/>
      <point x="139" y="426"/>
      <point x="166" y="445"/>
      <point x="197" y="469" type="curve" smooth="yes"/>
      <point x="228" y="492" type="line" smooth="yes"/>
      <point x="279" y="531"/>
      <point x="319" y="579"/>
      <point x="319" y="651" type="curve" smooth="yes"/>
      <point x="319" y="662" type="line"/>
      <point x="261" y="662" type="line"/>
      <point x="261" y="650" type="line" smooth="yes"/>
      <point x="261" y="601"/>
      <point x="233" y="562"/>
      <point x="199" y="537" type="curve" smooth="yes"/>
      <point x="172" y="517" type="line" smooth="yes"/>
      <point x="124" y="482"/>
      <point x="78" y="455"/>
      <point x="78" y="402" type="curve" smooth="yes"/>
      <point x="78" y="378"/>
      <point x="88" y="363"/>
    </contour>
    <contour>
      <point x="431" y="-44" type="line"/>
      <point x="399" y="-62"/>
      <point x="350" y="-83"/>
      <point x="279" y="-83" type="curve" smooth="yes"/>
      <point x="188" y="-83"/>
      <point x="159" y="-46"/>
      <point x="159" y="-10" type="curve" smooth="yes"/>
      <point x="159" y="20"/>
      <point x="180" y="52"/>
      <point x="221" y="52" type="curve" smooth="yes"/>
      <point x="352" y="52" type="line"/>
      <point x="352" y="106" type="line"/>
      <point x="236" y="106" type="line" smooth="yes"/>
      <point x="185" y="106"/>
      <point x="159" y="124"/>
      <point x="159" y="154" type="curve" smooth="yes"/>
      <point x="159" y="184"/>
      <point x="185" y="203"/>
      <point x="236" y="203" type="curve" smooth="yes"/>
      <point x="339" y="203" type="line"/>
      <point x="339" y="257" type="line"/>
      <point x="236" y="257" type="line" smooth="yes"/>
      <point x="188" y="257"/>
      <point x="159" y="283"/>
      <point x="159" y="313" type="curve" smooth="yes"/>
      <point x="159" y="341"/>
      <point x="183" y="368"/>
      <point x="236" y="368" type="curve" smooth="yes"/>
      <point x="339" y="368" type="line"/>
      <point x="339" y="422" type="line"/>
      <point x="284" y="422" type="line" smooth="yes"/>
      <point x="127" y="422"/>
      <point x="73" y="385"/>
      <point x="73" y="310" type="curve" smooth="yes"/>
      <point x="73" y="271"/>
      <point x="92" y="245"/>
      <point x="127" y="229" type="curve"/>
      <point x="127" y="228" type="line"/>
      <point x="97" y="210"/>
      <point x="73" y="184"/>
      <point x="73" y="142" type="curve" smooth="yes"/>
      <point x="73" y="109"/>
      <point x="88" y="85"/>
      <point x="107" y="70" type="curve"/>
      <point x="107" y="69" type="line"/>
      <point x="89" y="51"/>
      <point x="70" y="25"/>
      <point x="70" y="-21" type="curve" smooth="yes"/>
      <point x="70" y="-89"/>
      <point x="132" y="-137"/>
      <point x="261" y="-137" type="curve" smooth="yes"/>
      <point x="370" y="-137"/>
      <point x="438" y="-99"/>
      <point x="460" y="-86" type="curve"/>
    </contour>
  </outline>
</glyph>
<glyph name="anusvaraVedic_gran" format="2">
  <advance width="1029"/>
  <unicode hex="1135E"/>
  <guideline x="515" y="485" angle="0"/>
  <anchor x="515" y="-42" name="anudatta"/>
  <anchor x="515" y="900" name="svara"/>
  <anchor x="515" y="640" name="top"/>
  <outline>
    <contour>
      <point x="515" y="261" type="curve" smooth="yes"/>
      <point x="597" y="261"/>
      <point x="658" y="318"/>
      <point x="658" y="400" type="curve" smooth="yes"/>
      <point x="658" y="482"/>
      <point x="597" y="539"/>
      <point x="515" y="539" type="curve" smooth="yes"/>
      <point x="433" y="539"/>
      <point x="372" y="482"/>
      <point x="372" y="400" type="curve" smooth="yes"/>
      <point x="372" y="318"/>
      <point x="433" y="261"/>
    </contour>
    <contour>
      <point x="515" y="333" type="curve" smooth="yes"/>
      <point x="477" y="333"/>
      <point x="448" y="362"/>
      <point x="448" y="400" type="curve" smooth="yes"/>
      <point x="448" y="438"/>
      <point x="477" y="467"/>
      <point x="515" y="467" type="curve" smooth="yes"/>
      <point x="553" y="467"/>
      <point x="582" y="438"/>
      <point x="582" y="400" type="curve" smooth="yes"/>
      <point x="582" y="362"/>
      <point x="553" y="333"/>
    </contour>
    <contour>
      <point x="999" y="485" type="curve"/>
      <point x="921" y="485" type="line"/>
      <point x="921" y="166"/>
      <point x="715" y="47"/>
      <point x="515" y="47" type="curve" smooth="yes"/>
      <point x="315" y="47"/>
      <point x="108" y="165"/>
      <point x="108" y="485" type="curve"/>
      <point x="30" y="485" type="line"/>
      <point x="30" y="155"/>
      <point x="245" y="-7"/>
      <point x="515" y="-7" type="curve" smooth="yes"/>
      <point x="785" y="-7"/>
      <point x="995" y="155"/>
    </contour>
  </outline>
</glyph>
<glyph name="doubleAnusvaraVedic_gran" format="2">
  <advance width="1169"/>
  <unicode hex="1135F"/>
  <guideline x="584" y="566" angle="180"/>
  <anchor x="584" y="-123" name="anudatta"/>
  <anchor x="584" y="900" name="svara"/>
  <anchor x="584" y="640" name="top"/>
  <outline>
    <contour>
      <point x="585" y="311" type="curve" smooth="yes"/>
      <point x="667" y="311"/>
      <point x="728" y="368"/>
      <point x="728" y="450" type="curve" smooth="yes"/>
      <point x="728" y="532"/>
      <point x="667" y="589"/>
      <point x="585" y="589" type="curve" smooth="yes"/>
      <point x="503" y="589"/>
      <point x="442" y="532"/>
      <point x="442" y="450" type="curve" smooth="yes"/>
      <point x="442" y="368"/>
      <point x="503" y="311"/>
    </contour>
    <contour>
      <point x="585" y="383" type="curve" smooth="yes"/>
      <point x="547" y="383"/>
      <point x="518" y="412"/>
      <point x="518" y="450" type="curve" smooth="yes"/>
      <point x="518" y="488"/>
      <point x="547" y="517"/>
      <point x="585" y="517" type="curve" smooth="yes"/>
      <point x="623" y="517"/>
      <point x="652" y="488"/>
      <point x="652" y="450" type="curve" smooth="yes"/>
      <point x="652" y="412"/>
      <point x="623" y="383"/>
    </contour>
    <contour>
      <point x="1139" y="559" type="curve"/>
      <point x="1061" y="559" type="line"/>
      <point x="1061" y="269"/>
      <point x="945" y="-9"/>
      <point x="585" y="-9" type="curve" smooth="yes"/>
      <point x="225" y="-9"/>
      <point x="108" y="269"/>
      <point x="108" y="559" type="curve"/>
      <point x="30" y="559" type="line"/>
      <point x="30" y="249"/>
      <point x="165" y="-63"/>
      <point x="585" y="-63" type="curve" smooth="yes"/>
      <point x="1005" y="-63"/>
      <point x="1135" y="249"/>
    </contour>
    <contour>
      <point x="979" y="559" type="curve"/>
      <point x="901" y="559" type="line"/>
      <point x="901" y="269"/>
      <point x="765" y="165"/>
      <point x="585" y="165" type="curve" smooth="yes"/>
      <point x="405" y="165"/>
      <point x="268" y="269"/>
      <point x="268" y="559" type="curve"/>
      <point x="190" y="559" type="line"/>
      <point x="190" y="238"/>
      <point x="355" y="111"/>
      <point x="585" y="111" type="curve" smooth="yes"/>
      <point x="815" y="111"/>
      <point x="975" y="238"/>
    </contour>
  </outline>
</glyph>
<glyph name="llVocalicMatra_gran" format="2">
  <unicode hex="11363"/>
  <outline>
    <contour>
      <point x="1494" y="230" type="curve" smooth="yes"/>
      <point x="1494" y="-123"/>
      <point x="1290" y="-390"/>
      <point x="974" y="-390" type="curve" smooth="yes"/>
      <point x="704" y="-390"/>
      <point x="567" y="-238"/>
      <point x="507" y="-73" type="curve"/>
      <point x="445" y="-73" type="line"/>
      <point x="495" y="-260"/>
      <point x="659" y="-444"/>
      <point x="974" y="-444" type="curve" smooth="yes"/>
      <point x="1313" y="-444"/>
      <point x="1588" y="-180"/>
      <point x="1588" y="233" type="curve" smooth="yes"/>
      <point x="1588" y="613"/>
      <point x="1369" y="777"/>
      <point x="1155" y="777" type="curve" smooth="yes"/>
      <point x="1004" y="777"/>
      <point x="879" y="679"/>
      <point x="876" y="543" type="curve" smooth="yes"/>
      <point x="875" y="498" type="line"/>
      <point x="961" y="498" type="line"/>
      <point x="962" y="545" type="line" smooth="yes"/>
      <point x="964" y="632"/>
      <point x="1028" y="723"/>
      <point x="1156" y="723" type="curve" smooth="yes"/>
      <point x="1313" y="723"/>
      <point x="1494" y="596"/>
    </contour>
    <component base="lVocalicMatra_gran"/>
  </outline>
</glyph>
<glyph name="zerocomb_gran" format="2">
  <unicode hex="11366"/>
  <outline>
    <contour>
      <point x="-200" y="633" type="curve" smooth="yes"/>
      <point x="-102" y="633"/>
      <point x="-43" y="708"/>
      <point x="-43" y="807" type="curve" smooth="yes"/>
      <point x="-43" y="894"/>
      <point x="-92" y="980"/>
      <point x="-200" y="980" type="curve" smooth="yes"/>
      <point x="-299" y="980"/>
      <point x="-359" y="907"/>
      <point x="-359" y="807" type="curve" smooth="yes"/>
      <point x="-359" y="707"/>
      <point x="-300" y="633"/>
    </contour>
    <contour>
      <point x="-200" y="932" type="curve" smooth="yes"/>
      <point x="-145" y="932"/>
      <point x="-105" y="871"/>
      <point x="-105" y="807" type="curve" smooth="yes"/>
      <point x="-105" y="741"/>
      <point x="-145" y="681"/>
      <point x="-201" y="681" type="curve" smooth="yes"/>
      <point x="-259" y="681"/>
      <point x="-297" y="744"/>
      <point x="-297" y="807" type="curve" smooth="yes"/>
      <point x="-297" y="870"/>
      <point x="-258" y="932"/>
    </contour>
  </outline>
</glyph>
<glyph name="onecomb_gran" format="2">
  <unicode hex="11367"/>
  <outline>
    <contour>
      <point x="-352" y="633" type="curve" smooth="yes"/>
      <point x="-260" y="633"/>
      <point x="-206" y="686"/>
      <point x="-206" y="760" type="curve" smooth="yes"/>
      <point x="-206" y="799" type="line"/>
      <point x="-178" y="799" type="line" smooth="yes"/>
      <point x="-126" y="799"/>
      <point x="-96" y="778"/>
      <point x="-96" y="731" type="curve" smooth="yes"/>
      <point x="-96" y="701"/>
      <point x="-118" y="674"/>
      <point x="-157" y="674" type="curve" smooth="yes"/>
      <point x="-189" y="674"/>
      <point x="-217" y="682"/>
      <point x="-240" y="705" type="curve"/>
      <point x="-259" y="681" type="line"/>
      <point x="-227" y="649"/>
      <point x="-193" y="633"/>
      <point x="-147" y="633" type="curve" smooth="yes"/>
      <point x="-83" y="633"/>
      <point x="-31" y="670"/>
      <point x="-31" y="730" type="curve" smooth="yes"/>
      <point x="-31" y="797"/>
      <point x="-89" y="839"/>
      <point x="-179" y="839" type="curve" smooth="yes"/>
      <point x="-206" y="839" type="line"/>
      <point x="-206" y="940" type="line"/>
      <point x="-97" y="940" type="line"/>
      <point x="-97" y="980" type="line"/>
      <point x="-414" y="980" type="line"/>
      <point x="-414" y="814" type="line"/>
      <point x="-367" y="814" type="line"/>
      <point x="-367" y="940" type="line"/>
      <point x="-276" y="940" type="line"/>
      <point x="-276" y="839" type="line"/>
      <point x="-372" y="839" type="line" smooth="yes"/>
      <point x="-440" y="839"/>
      <point x="-487" y="798"/>
      <point x="-487" y="736" type="curve" smooth="yes"/>
      <point x="-487" y="674"/>
      <point x="-427" y="633"/>
    </contour>
    <contour>
      <point x="-358" y="673" type="curve" smooth="yes"/>
      <point x="-409" y="673"/>
      <point x="-442" y="696"/>
      <point x="-442" y="736" type="curve" smooth="yes"/>
      <point x="-442" y="775"/>
      <point x="-413" y="799"/>
      <point x="-371" y="799" type="curve" smooth="yes"/>
      <point x="-276" y="799" type="line"/>
      <point x="-276" y="753" type="line" smooth="yes"/>
      <point x="-276" y="700"/>
      <point x="-307" y="673"/>
    </contour>
  </outline>
</glyph>
<glyph name="twocomb_gran" format="2">
  <unicode hex="11368"/>
  <outline>
    <contour>
      <point x="-598" y="633" type="curve" smooth="yes"/>
      <point x="-189" y="633" type="line"/>
      <point x="-189" y="673" type="line"/>
      <point x="-603" y="673" type="line" smooth="yes"/>
      <point x="-616" y="673"/>
      <point x="-627" y="682"/>
      <point x="-627" y="696" type="curve" smooth="yes"/>
      <point x="-627" y="711"/>
      <point x="-616" y="717"/>
      <point x="-603" y="717" type="curve" smooth="yes"/>
      <point x="-458" y="717" type="line" smooth="yes"/>
      <point x="-369" y="717"/>
      <point x="-285" y="765"/>
      <point x="-285" y="842" type="curve" smooth="yes"/>
      <point x="-285" y="933"/>
      <point x="-382" y="980"/>
      <point x="-471" y="980" type="curve" smooth="yes"/>
      <point x="-561" y="980"/>
      <point x="-631" y="937"/>
      <point x="-631" y="848" type="curve" smooth="yes"/>
      <point x="-631" y="762"/>
      <point x="-553" y="725"/>
      <point x="-467" y="725" type="curve"/>
      <point x="-467" y="757" type="line"/>
      <point x="-548" y="757"/>
      <point x="-591" y="786"/>
      <point x="-591" y="848" type="curve" smooth="yes"/>
      <point x="-591" y="912"/>
      <point x="-546" y="940"/>
      <point x="-475" y="940" type="curve" smooth="yes"/>
      <point x="-409" y="940"/>
      <point x="-355" y="912"/>
      <point x="-355" y="848" type="curve" smooth="yes"/>
      <point x="-355" y="791"/>
      <point x="-396" y="757"/>
      <point x="-466" y="757" type="curve" smooth="yes"/>
      <point x="-598" y="757" type="line" smooth="yes"/>
      <point x="-638" y="757"/>
      <point x="-667" y="734"/>
      <point x="-667" y="696" type="curve" smooth="yes"/>
      <point x="-667" y="660"/>
      <point x="-638" y="633"/>
    </contour>
  </outline>
</glyph>
<glyph name="threecomb_gran" format="2">
  <unicode hex="11369"/>
  <outline>
    <contour>
      <point x="-575" y="633" type="line"/>
      <point x="-536" y="633" type="line"/>
      <point x="-536" y="937" type="line"/>
      <point x="-438" y="937" type="line"/>
      <point x="-438" y="755" type="line"/>
      <point x="-368" y="755" type="line"/>
      <point x="-368" y="771" type="line" smooth="yes"/>
      <point x="-368" y="805"/>
      <point x="-348" y="829"/>
      <point x="-315" y="829" type="curve" smooth="yes"/>
      <point x="-281" y="829"/>
      <point x="-257" y="803"/>
      <point x="-257" y="763" type="curve" smooth="yes"/>
      <point x="-257" y="686"/>
      <point x="-325" y="673"/>
      <point x="-363" y="673" type="curve" smooth="yes"/>
      <point x="-427" y="673" type="line"/>
      <point x="-427" y="633" type="line"/>
      <point x="-87" y="633" type="line"/>
      <point x="-87" y="673" type="line"/>
      <point x="-288" y="673" type="line"/>
      <point x="-231" y="682"/>
      <point x="-187" y="719"/>
      <point x="-187" y="773" type="curve" smooth="yes"/>
      <point x="-187" y="829"/>
      <point x="-232" y="873"/>
      <point x="-296" y="873" type="curve" smooth="yes"/>
      <point x="-338" y="873"/>
      <point x="-362" y="848"/>
      <point x="-368" y="831" type="curve"/>
      <point x="-368" y="937" type="line"/>
      <point x="-260" y="937" type="line"/>
      <point x="-260" y="977" type="line"/>
      <point x="-575" y="977" type="line"/>
    </contour>
  </outline>
</glyph>
<glyph name="fourcomb_gran" format="2">
  <unicode hex="1136A"/>
  <outline>
    <contour>
      <point x="-414" y="635" type="curve" smooth="yes"/>
      <point x="-321" y="635"/>
      <point x="-256" y="687"/>
      <point x="-256" y="761" type="curve" smooth="yes"/>
      <point x="-256" y="801" type="line"/>
      <point x="-60" y="801" type="line"/>
      <point x="-60" y="981" type="line"/>
      <point x="-100" y="981" type="line"/>
      <point x="-100" y="841" type="line"/>
      <point x="-256" y="841" type="line"/>
      <point x="-256" y="941" type="line"/>
      <point x="-169" y="941" type="line"/>
      <point x="-169" y="981" type="line"/>
      <point x="-465" y="981" type="line"/>
      <point x="-465" y="815" type="line"/>
      <point x="-425" y="815" type="line"/>
      <point x="-425" y="941" type="line"/>
      <point x="-326" y="941" type="line"/>
      <point x="-326" y="841" type="line"/>
      <point x="-430" y="841" type="line" smooth="yes"/>
      <point x="-502" y="841"/>
      <point x="-547" y="796"/>
      <point x="-547" y="738" type="curve" smooth="yes"/>
      <point x="-547" y="674"/>
      <point x="-488" y="635"/>
    </contour>
    <contour>
      <point x="-419" y="675" type="curve" smooth="yes"/>
      <point x="-469" y="675"/>
      <point x="-502" y="696"/>
      <point x="-502" y="737" type="curve" smooth="yes"/>
      <point x="-502" y="776"/>
      <point x="-479" y="801"/>
      <point x="-426" y="801" type="curve" smooth="yes"/>
      <point x="-326" y="801" type="line"/>
      <point x="-326" y="755" type="line" smooth="yes"/>
      <point x="-326" y="700"/>
      <point x="-368" y="675"/>
    </contour>
  </outline>
</glyph>
<glyph name="fivecomb_gran" format="2">
  <unicode hex="1136B"/>
  <anchor x="-341" y="431" name="_svara"/>
  <anchor x="-711" y="807" name="_svara_mkmk"/>
  <anchor x="-20" y="807" name="svara_mkmk"/>
  <outline>
    <contour>
      <point x="-334" y="473" type="curve" smooth="yes"/>
      <point x="-152" y="473"/>
      <point x="-52" y="589"/>
      <point x="-52" y="707" type="curve" smooth="yes"/>
      <point x="-52" y="789"/>
      <point x="-104" y="856"/>
      <point x="-174" y="856" type="curve" smooth="yes"/>
      <point x="-231" y="856"/>
      <point x="-268" y="817"/>
      <point x="-268" y="757" type="curve" smooth="yes"/>
      <point x="-268" y="728" type="line"/>
      <point x="-251" y="723" type="line"/>
      <point x="-251" y="751" type="line" smooth="yes"/>
      <point x="-251" y="784"/>
      <point x="-232" y="815"/>
      <point x="-195" y="815" type="curve" smooth="yes"/>
      <point x="-142" y="815"/>
      <point x="-123" y="762"/>
      <point x="-123" y="700" type="curve" smooth="yes"/>
      <point x="-123" y="600"/>
      <point x="-182" y="513"/>
      <point x="-334" y="513" type="curve" smooth="yes"/>
      <point x="-504" y="513"/>
      <point x="-597" y="650"/>
      <point x="-597" y="801" type="curve" smooth="yes"/>
      <point x="-597" y="978"/>
      <point x="-504" y="1086"/>
      <point x="-319" y="1086" type="curve" smooth="yes"/>
      <point x="-160" y="1086"/>
      <point x="-72" y="1013"/>
      <point x="-62" y="873" type="curve"/>
      <point x="-22" y="873" type="line"/>
      <point x="-32" y="1031"/>
      <point x="-150" y="1142"/>
      <point x="-319" y="1142" type="curve" smooth="yes"/>
      <point x="-530" y="1142"/>
      <point x="-637" y="1000"/>
      <point x="-637" y="801" type="curve" smooth="yes"/>
      <point x="-637" y="633"/>
      <point x="-526" y="473"/>
    </contour>
    <contour>
      <point x="-466" y="637" type="line"/>
      <point x="-426" y="637" type="line"/>
      <point x="-426" y="941" type="line"/>
      <point x="-321" y="941" type="line"/>
      <point x="-321" y="637" type="line"/>
      <point x="-251" y="637" type="line"/>
      <point x="-251" y="941" type="line"/>
      <point x="-142" y="941" type="line"/>
      <point x="-142" y="981" type="line"/>
      <point x="-466" y="981" type="line"/>
    </contour>
  </outline>
</glyph>
<glyph name="sixcomb_gran" format="2">
  <unicode hex="1136C"/>
  <outline>
    <contour>
      <point x="-487" y="633" type="curve" smooth="yes"/>
      <point x="-395" y="633"/>
      <point x="-341" y="685"/>
      <point x="-341" y="759" type="curve" smooth="yes"/>
      <point x="-341" y="799" type="line"/>
      <point x="-292" y="799" type="line" smooth="yes"/>
      <point x="-273" y="799"/>
      <point x="-262" y="788"/>
      <point x="-262" y="768" type="curve" smooth="yes"/>
      <point x="-262" y="635" type="line"/>
      <point x="-202" y="635" type="line"/>
      <point x="-202" y="768" type="line" smooth="yes"/>
      <point x="-202" y="788"/>
      <point x="-191" y="799"/>
      <point x="-171" y="799" type="curve" smooth="yes"/>
      <point x="-4" y="799" type="line"/>
      <point x="-4" y="839" type="line"/>
      <point x="-177" y="839" type="line" smooth="yes"/>
      <point x="-206" y="839"/>
      <point x="-226" y="818"/>
      <point x="-230" y="794" type="curve"/>
      <point x="-235" y="818"/>
      <point x="-254" y="839"/>
      <point x="-284" y="839" type="curve" smooth="yes"/>
      <point x="-341" y="839" type="line"/>
      <point x="-341" y="939" type="line"/>
      <point x="-232" y="939" type="line"/>
      <point x="-232" y="979" type="line"/>
      <point x="-539" y="979" type="line"/>
      <point x="-539" y="813" type="line"/>
      <point x="-499" y="813" type="line"/>
      <point x="-499" y="939" type="line"/>
      <point x="-411" y="939" type="line"/>
      <point x="-411" y="839" type="line"/>
      <point x="-504" y="839" type="line" smooth="yes"/>
      <point x="-575" y="839"/>
      <point x="-621" y="794"/>
      <point x="-621" y="736" type="curve" smooth="yes"/>
      <point x="-621" y="672"/>
      <point x="-561" y="633"/>
    </contour>
    <contour>
      <point x="-492" y="673" type="curve" smooth="yes"/>
      <point x="-543" y="673"/>
      <point x="-581" y="694"/>
      <point x="-581" y="735" type="curve" smooth="yes"/>
      <point x="-581" y="774"/>
      <point x="-552" y="799"/>
      <point x="-499" y="799" type="curve" smooth="yes"/>
      <point x="-411" y="799" type="line"/>
      <point x="-411" y="753" type="line" smooth="yes"/>
      <point x="-411" y="698"/>
      <point x="-442" y="673"/>
    </contour>
    <contour>
      <point x="-122" y="635" type="line"/>
      <point x="-62" y="635" type="line"/>
      <point x="-62" y="814" type="line"/>
      <point x="-122" y="814" type="line"/>
    </contour>
  </outline>
</glyph>
<glyph name="acomb_gran" format="2">
  <unicode hex="11370"/>
  <outline>
    <contour>
      <point x="-438" y="629" type="curve" smooth="yes"/>
      <point x="-346" y="629"/>
      <point x="-290" y="681"/>
      <point x="-290" y="761" type="curve" smooth="yes"/>
      <point x="-290" y="803" type="line"/>
      <point x="-31" y="803" type="line"/>
      <point x="-31" y="843" type="line"/>
      <point x="-290" y="843" type="line"/>
      <point x="-290" y="941" type="line"/>
      <point x="-181" y="941" type="line"/>
      <point x="-181" y="981" type="line"/>
      <point x="-488" y="981" type="line"/>
      <point x="-488" y="814" type="line"/>
      <point x="-448" y="814" type="line"/>
      <point x="-448" y="941" type="line"/>
      <point x="-360" y="941" type="line"/>
      <point x="-360" y="843" type="line"/>
      <point x="-453" y="843" type="line" smooth="yes"/>
      <point x="-524" y="843"/>
      <point x="-570" y="796"/>
      <point x="-570" y="737" type="curve" smooth="yes"/>
      <point x="-570" y="668"/>
      <point x="-524" y="629"/>
    </contour>
    <contour>
      <point x="-441" y="669" type="curve" smooth="yes"/>
      <point x="-491" y="669"/>
      <point x="-530" y="690"/>
      <point x="-530" y="736" type="curve" smooth="yes"/>
      <point x="-530" y="775"/>
      <point x="-501" y="803"/>
      <point x="-448" y="803" type="curve" smooth="yes"/>
      <point x="-360" y="803" type="line"/>
      <point x="-360" y="754" type="line" smooth="yes"/>
      <point x="-360" y="694"/>
      <point x="-391" y="669"/>
    </contour>
    <contour>
      <point x="-91" y="937" type="line"/>
      <point x="-91" y="730" type="line" smooth="yes"/>
      <point x="-91" y="686"/>
      <point x="-97" y="663"/>
      <point x="-129" y="663" type="curve" smooth="yes"/>
      <point x="-156" y="663"/>
      <point x="-178" y="679"/>
      <point x="-178" y="732" type="curve" smooth="yes"/>
      <point x="-178" y="813" type="line"/>
      <point x="-218" y="813" type="line"/>
      <point x="-218" y="732" type="line" smooth="yes"/>
      <point x="-218" y="668"/>
      <point x="-189" y="629"/>
      <point x="-129" y="629" type="curve" smooth="yes"/>
      <point x="-68" y="629"/>
      <point x="-31" y="674"/>
      <point x="-31" y="730" type="curve" smooth="yes"/>
      <point x="-31" y="937" type="line"/>
    </contour>
  </outline>
</glyph>
<glyph name="kacomb_gran" format="2">
  <unicode hex="11371"/>
  <outline>
    <contour>
      <point x="-576" y="669" type="curve" smooth="yes"/>
      <point x="-612" y="669"/>
      <point x="-637" y="695"/>
      <point x="-637" y="727" type="curve" smooth="yes"/>
      <point x="-637" y="775"/>
      <point x="-594" y="807"/>
      <point x="-531" y="807" type="curve" smooth="yes"/>
      <point x="-380" y="807" type="line"/>
      <point x="-380" y="754" type="line" smooth="yes"/>
      <point x="-380" y="702"/>
      <point x="-388" y="668"/>
      <point x="-420" y="668" type="curve" smooth="yes"/>
      <point x="-455" y="668"/>
      <point x="-464" y="709"/>
      <point x="-464" y="743" type="curve"/>
      <point x="-512" y="743" type="line"/>
      <point x="-512" y="710"/>
      <point x="-532" y="669"/>
    </contour>
    <contour>
      <point x="-210" y="807" type="line" smooth="yes"/>
      <point x="-134" y="807"/>
      <point x="-97" y="770"/>
      <point x="-97" y="726" type="curve" smooth="yes"/>
      <point x="-97" y="691"/>
      <point x="-121" y="669"/>
      <point x="-157" y="669" type="curve" smooth="yes"/>
      <point x="-193" y="669"/>
      <point x="-218" y="690"/>
      <point x="-218" y="721" type="curve" smooth="yes"/>
      <point x="-218" y="775"/>
      <point x="-179" y="791"/>
      <point x="-147" y="804" type="curve"/>
      <point x="-169" y="821" type="line"/>
      <point x="-220" y="811"/>
      <point x="-258" y="771"/>
      <point x="-258" y="721" type="curve" smooth="yes"/>
      <point x="-258" y="663"/>
      <point x="-211" y="629"/>
      <point x="-153" y="629" type="curve" smooth="yes"/>
      <point x="-94" y="629"/>
      <point x="-39" y="663"/>
      <point x="-39" y="726" type="curve" smooth="yes"/>
      <point x="-39" y="790"/>
      <point x="-97" y="847"/>
      <point x="-185" y="847" type="curve" smooth="yes"/>
      <point x="-310" y="847" type="line"/>
      <point x="-310" y="941" type="line"/>
      <point x="-189" y="941" type="line"/>
      <point x="-189" y="981" type="line"/>
      <point x="-570" y="981" type="line"/>
      <point x="-570" y="814" type="line"/>
      <point x="-530" y="814" type="line"/>
      <point x="-530" y="941" type="line"/>
      <point x="-380" y="941" type="line"/>
      <point x="-380" y="847" type="line"/>
      <point x="-536" y="847" type="line" smooth="yes"/>
      <point x="-626" y="847"/>
      <point x="-677" y="791"/>
      <point x="-677" y="728" type="curve" smooth="yes"/>
      <point x="-677" y="668"/>
      <point x="-632" y="629"/>
      <point x="-576" y="629" type="curve" smooth="yes"/>
      <point x="-522" y="629"/>
      <point x="-499" y="663"/>
      <point x="-485" y="693" type="curve"/>
      <point x="-498" y="693" type="line"/>
      <point x="-484" y="663"/>
      <point x="-463" y="629"/>
      <point x="-408" y="629" type="curve" smooth="yes"/>
      <point x="-339" y="629"/>
      <point x="-310" y="685"/>
      <point x="-310" y="761" type="curve" smooth="yes"/>
      <point x="-310" y="807" type="line"/>
    </contour>
  </outline>
</glyph>
<glyph name="nacomb_gran" format="2">
  <unicode hex="11372"/>
  <outline>
    <contour>
      <point x="-481" y="605" type="line"/>
      <point x="-481" y="565" type="line"/>
      <point x="-308" y="565" type="line" smooth="yes"/>
      <point x="-183" y="565"/>
      <point x="-70" y="613"/>
      <point x="-70" y="730" type="curve" smooth="yes"/>
      <point x="-70" y="812"/>
      <point x="-129" y="861"/>
      <point x="-191" y="861" type="curve" smooth="yes"/>
      <point x="-236" y="861"/>
      <point x="-260" y="834"/>
      <point x="-266" y="815" type="curve"/>
      <point x="-266" y="941" type="line"/>
      <point x="-153" y="941" type="line"/>
      <point x="-153" y="981" type="line"/>
      <point x="-481" y="981" type="line"/>
      <point x="-481" y="651" type="line"/>
      <point x="-441" y="651" type="line"/>
      <point x="-441" y="941" type="line"/>
      <point x="-336" y="941" type="line"/>
      <point x="-336" y="651" type="line"/>
      <point x="-266" y="651" type="line"/>
      <point x="-266" y="755" type="line" smooth="yes"/>
      <point x="-266" y="788"/>
      <point x="-245" y="819"/>
      <point x="-207" y="819" type="curve" smooth="yes"/>
      <point x="-168" y="819"/>
      <point x="-140" y="790"/>
      <point x="-140" y="723" type="curve" smooth="yes"/>
      <point x="-140" y="633"/>
      <point x="-198" y="605"/>
      <point x="-325" y="605" type="curve" smooth="yes"/>
    </contour>
  </outline>
</glyph>
<glyph name="vicomb_gran" format="2">
  <unicode hex="11373"/>
  <outline>
    <contour>
      <point x="-652" y="631" type="curve" smooth="yes"/>
      <point x="-585" y="631"/>
      <point x="-540" y="671"/>
      <point x="-540" y="726" type="curve" smooth="yes"/>
      <point x="-540" y="784"/>
      <point x="-576" y="822"/>
      <point x="-634" y="822" type="curve" smooth="yes"/>
      <point x="-695" y="822"/>
      <point x="-746" y="776"/>
      <point x="-750" y="710" type="curve"/>
      <point x="-731" y="694" type="line"/>
      <point x="-728" y="748"/>
      <point x="-697" y="780"/>
      <point x="-657" y="780" type="curve" smooth="yes"/>
      <point x="-615" y="780"/>
      <point x="-597" y="752"/>
      <point x="-597" y="724" type="curve" smooth="yes"/>
      <point x="-597" y="690"/>
      <point x="-621" y="664"/>
      <point x="-662" y="664" type="curve" smooth="yes"/>
      <point x="-707" y="664"/>
      <point x="-748" y="701"/>
      <point x="-748" y="777" type="curve" smooth="yes"/>
      <point x="-748" y="877"/>
      <point x="-681" y="940"/>
      <point x="-574" y="940" type="curve" smooth="yes"/>
      <point x="-482" y="940"/>
      <point x="-410" y="878"/>
      <point x="-410" y="783" type="curve" smooth="yes"/>
      <point x="-410" y="728"/>
      <point x="-434" y="685"/>
      <point x="-461" y="660" type="curve"/>
      <point x="-449" y="633" type="line"/>
      <point x="-158" y="633" type="line"/>
      <point x="-158" y="977" type="line"/>
      <point x="-228" y="977" type="line"/>
      <point x="-228" y="673" type="line"/>
      <point x="-400" y="673" type="line"/>
      <point x="-378" y="700"/>
      <point x="-351" y="735"/>
      <point x="-351" y="795" type="curve" smooth="yes"/>
      <point x="-351" y="907"/>
      <point x="-447" y="980"/>
      <point x="-566" y="980" type="curve" smooth="yes"/>
      <point x="-694" y="980"/>
      <point x="-788" y="907"/>
      <point x="-788" y="779" type="curve" smooth="yes"/>
      <point x="-788" y="681"/>
      <point x="-721" y="631"/>
    </contour>
    <contour>
      <point x="-47" y="633" type="line"/>
      <point x="-7" y="633" type="line"/>
      <point x="-7" y="987" type="line" smooth="yes"/>
      <point x="-7" y="1090"/>
      <point x="-71" y="1151"/>
      <point x="-170" y="1151" type="curve" smooth="yes"/>
      <point x="-254" y="1151"/>
      <point x="-315" y="1105"/>
      <point x="-315" y="1037" type="curve" smooth="yes"/>
      <point x="-315" y="982"/>
      <point x="-272" y="937"/>
      <point x="-221" y="937" type="curve" smooth="yes"/>
      <point x="-218" y="937" type="line"/>
      <point x="-218" y="977" type="line"/>
      <point x="-221" y="977" type="line" smooth="yes"/>
      <point x="-253" y="977"/>
      <point x="-274" y="998"/>
      <point x="-274" y="1029" type="curve" smooth="yes"/>
      <point x="-274" y="1074"/>
      <point x="-233" y="1097"/>
      <point x="-176" y="1097" type="curve" smooth="yes"/>
      <point x="-90" y="1097"/>
      <point x="-47" y="1054"/>
      <point x="-47" y="969" type="curve" smooth="yes"/>
    </contour>
  </outline>
</glyph>
<glyph name="pacomb_gran" format="2">
  <unicode hex="11374"/>
  <outline>
    <contour>
      <point x="-400" y="633" type="line"/>
      <point x="-72" y="633" type="line"/>
      <point x="-72" y="972" type="line"/>
      <point x="-142" y="972" type="line"/>
      <point x="-142" y="673" type="line"/>
      <point x="-330" y="673" type="line"/>
      <point x="-330" y="972" type="line"/>
      <point x="-400" y="972" type="line"/>
    </contour>
  </outline>
</glyph>
<glyph name="_part.iMatra" format="2">
  <advance width="262"/>
  <outline>
    <contour>
      <point x="88" y="0" type="line"/>
      <point x="149" y="0" type="line"/>
      <point x="149" y="570" type="line" smooth="yes"/>
      <point x="149" y="736"/>
      <point x="58" y="834"/>
      <point x="-95" y="834" type="curve" smooth="yes"/>
      <point x="-217" y="834"/>
      <point x="-311" y="760"/>
      <point x="-311" y="652" type="curve" smooth="yes"/>
      <point x="-311" y="563"/>
      <point x="-243" y="500"/>
      <point x="-161" y="500" type="curve" smooth="yes"/>
      <point x="-156" y="500" type="line"/>
      <point x="-156" y="554" type="line"/>
      <point x="-161" y="554" type="line" smooth="yes"/>
      <point x="-211" y="554"/>
      <point x="-246" y="587"/>
      <point x="-246" y="639" type="curve" smooth="yes"/>
      <point x="-246" y="709"/>
      <point x="-185" y="746"/>
      <point x="-102" y="746" type="curve" smooth="yes"/>
      <point x="26" y="746"/>
      <point x="88" y="678"/>
      <point x="88" y="540" type="curve" smooth="yes"/>
    </contour>
  </outline>
</glyph>
<glyph name="_part.ii_straight" format="2">
  <advance width="616"/>
  <outline>
    <contour>
      <point x="256" y="618" type="curve" smooth="yes"/>
      <point x="256" y="740"/>
      <point x="312" y="798"/>
      <point x="422" y="798" type="curve" smooth="yes"/>
      <point x="497" y="798"/>
      <point x="548" y="762"/>
      <point x="548" y="700" type="curve" smooth="yes"/>
      <point x="548" y="657"/>
      <point x="515" y="626"/>
      <point x="470" y="626" type="curve" smooth="yes"/>
      <point x="375" y="626"/>
      <point x="354" y="726"/>
      <point x="404" y="821" type="curve"/>
      <point x="361" y="825" type="line"/>
      <point x="287" y="699"/>
      <point x="339" y="572"/>
      <point x="484" y="572" type="curve" smooth="yes"/>
      <point x="570" y="572"/>
      <point x="631" y="626"/>
      <point x="631" y="695" type="curve" smooth="yes"/>
      <point x="631" y="788"/>
      <point x="552" y="852"/>
      <point x="426" y="852" type="curve" smooth="yes"/>
      <point x="291" y="852"/>
      <point x="198" y="770"/>
      <point x="198" y="618" type="curve" smooth="yes"/>
      <point x="198" y="439"/>
      <point x="259" y="263"/>
      <point x="259" y="103" type="curve" smooth="yes"/>
      <point x="259" y="0" type="line"/>
      <point x="345" y="0" type="line"/>
      <point x="345" y="95" type="line" smooth="yes"/>
      <point x="345" y="290"/>
      <point x="256" y="517"/>
    </contour>
  </outline>
</glyph>
<glyph name="_part.ravattu" format="2">
  <advance width="347"/>
  <outline>
    <contour>
      <point x="307" y="334" type="line"/>
      <point x="307" y="388" type="line"/>
      <point x="-83" y="388" type="line"/>
      <point x="-83" y="334" type="line"/>
    </contour>
    <contour>
      <point x="-553" y="-261" type="curve"/>
      <point x="-617" y="-261" type="line"/>
      <point x="-578" y="-422"/>
      <point x="-429" y="-503"/>
      <point x="-230" y="-503" type="curve" smooth="yes"/>
      <point x="-7" y="-503"/>
      <point x="195" y="-395"/>
      <point x="195" y="-135" type="curve" smooth="yes"/>
      <point x="195" y="345" type="line"/>
      <point x="100" y="345" type="line"/>
      <point x="100" y="-163" type="line" smooth="yes"/>
      <point x="100" y="-356"/>
      <point x="-34" y="-449"/>
      <point x="-230" y="-449" type="curve" smooth="yes"/>
      <point x="-406" y="-449"/>
      <point x="-509" y="-375"/>
    </contour>
  </outline>
</glyph>
<glyph name="_part.viramalig_loop" format="2">
  <advance width="747"/>
  <outline>
    <contour>
      <point x="315" y="664" type="line"/>
      <point x="370" y="608"/>
      <point x="451" y="507"/>
      <point x="451" y="346" type="curve" smooth="yes"/>
      <point x="451" y="136"/>
      <point x="323" y="48"/>
      <point x="323" y="-106" type="curve" smooth="yes"/>
      <point x="323" y="-210"/>
      <point x="385" y="-268"/>
      <point x="493" y="-268" type="curve" smooth="yes"/>
      <point x="592" y="-268"/>
      <point x="687" y="-211"/>
      <point x="687" y="-100" type="curve" smooth="yes"/>
      <point x="687" y="2"/>
      <point x="601" y="54"/>
      <point x="459" y="54" type="curve" smooth="yes"/>
      <point x="170" y="54" type="line"/>
      <point x="170" y="0" type="line"/>
      <point x="448" y="0" type="line" smooth="yes"/>
      <point x="543" y="0"/>
      <point x="592" y="-43"/>
      <point x="592" y="-106" type="curve" smooth="yes"/>
      <point x="592" y="-154"/>
      <point x="562" y="-214"/>
      <point x="492" y="-214" type="curve" smooth="yes"/>
      <point x="432" y="-214"/>
      <point x="397" y="-170"/>
      <point x="397" y="-105" type="curve" smooth="yes"/>
      <point x="397" y="26"/>
      <point x="513" y="173"/>
      <point x="513" y="357" type="curve" smooth="yes"/>
      <point x="513" y="513"/>
      <point x="428" y="632"/>
      <point x="370" y="691" type="curve"/>
    </contour>
  </outline>
</glyph>
<glyph name="ba.base" format="2">
  <advance width="1564"/>
  <outline>
    <contour>
      <point x="578" y="0" type="line"/>
      <point x="673" y="0" type="line"/>
      <point x="673" y="318" type="line" smooth="yes"/>
      <point x="673" y="462"/>
      <point x="548" y="559"/>
      <point x="383" y="559" type="curve" smooth="yes"/>
      <point x="196" y="559"/>
      <point x="59" y="440"/>
      <point x="59" y="234" type="curve" smooth="yes"/>
      <point x="59" y="77"/>
      <point x="167" y="-4"/>
      <point x="279" y="-4" type="curve" smooth="yes"/>
      <point x="387" y="-4"/>
      <point x="459" y="60"/>
      <point x="459" y="150" type="curve" smooth="yes"/>
      <point x="459" y="242"/>
      <point x="401" y="304"/>
      <point x="307" y="304" type="curve" smooth="yes"/>
      <point x="210" y="304"/>
      <point x="128" y="229"/>
      <point x="121" y="124" type="curve"/>
      <point x="151" y="97" type="line"/>
      <point x="157" y="185"/>
      <point x="206" y="236"/>
      <point x="270" y="236" type="curve" smooth="yes"/>
      <point x="338" y="236"/>
      <point x="367" y="191"/>
      <point x="367" y="146" type="curve" smooth="yes"/>
      <point x="367" y="92"/>
      <point x="328" y="49"/>
      <point x="262" y="49" type="curve" smooth="yes"/>
      <point x="190" y="49"/>
      <point x="117" y="109"/>
      <point x="117" y="231" type="curve" smooth="yes"/>
      <point x="117" y="403"/>
      <point x="220" y="505"/>
      <point x="374" y="505" type="curve" smooth="yes"/>
      <point x="499" y="505"/>
      <point x="578" y="430"/>
      <point x="578" y="320" type="curve" smooth="yes"/>
    </contour>
    <contour>
      <point x="598" y="320" type="curve"/>
      <point x="673" y="285" type="line"/>
      <point x="680" y="393"/>
      <point x="760" y="505"/>
      <point x="893" y="505" type="curve" smooth="yes"/>
      <point x="1014" y="505"/>
      <point x="1118" y="412"/>
      <point x="1118" y="257" type="curve" smooth="yes"/>
      <point x="1118" y="160"/>
      <point x="1075" y="86"/>
      <point x="1037" y="43" type="curve"/>
      <point x="1055" y="0" type="line"/>
      <point x="1483" y="0" type="line"/>
      <point x="1483" y="54" type="line"/>
      <point x="1126" y="54" type="line"/>
      <point x="1169" y="97"/>
      <point x="1214" y="164"/>
      <point x="1214" y="261" type="curve" smooth="yes"/>
      <point x="1214" y="441"/>
      <point x="1066" y="559"/>
      <point x="896" y="559" type="curve" smooth="yes"/>
      <point x="761" y="559"/>
      <point x="640" y="482"/>
    </contour>
  </outline>
</glyph>
<glyph name="ba_gran.below" format="2">
  <anchor x="-558" y="0" name="_bottom"/>
  <anchor x="-558" y="-660" name="anudatta"/>
  <anchor x="-558" y="-630" name="bottom"/>
  <outline>
    <contour>
      <point x="31" y="-541" type="line"/>
      <point x="31" y="-83" type="line"/>
      <point x="-47" y="-83" type="line"/>
      <point x="-47" y="-541" type="line"/>
    </contour>
    <contour>
      <point x="-719" y="-541" type="line"/>
      <point x="-634" y="-541" type="line"/>
      <point x="-634" y="-278" type="line" smooth="yes"/>
      <point x="-634" y="-159"/>
      <point x="-742" y="-79"/>
      <point x="-879" y="-79" type="curve" smooth="yes"/>
      <point x="-1033" y="-79"/>
      <point x="-1156" y="-180"/>
      <point x="-1156" y="-340" type="curve" smooth="yes"/>
      <point x="-1156" y="-480"/>
      <point x="-1057" y="-544"/>
      <point x="-965" y="-544" type="curve" smooth="yes"/>
      <point x="-875" y="-544"/>
      <point x="-816" y="-491"/>
      <point x="-816" y="-413" type="curve" smooth="yes"/>
      <point x="-816" y="-341"/>
      <point x="-864" y="-287"/>
      <point x="-946" y="-287" type="curve" smooth="yes"/>
      <point x="-1026" y="-287"/>
      <point x="-1093" y="-349"/>
      <point x="-1099" y="-435" type="curve"/>
      <point x="-1070" y="-461" type="line"/>
      <point x="-1065" y="-388"/>
      <point x="-1025" y="-346"/>
      <point x="-972" y="-346" type="curve" smooth="yes"/>
      <point x="-916" y="-346"/>
      <point x="-892" y="-383"/>
      <point x="-892" y="-420" type="curve" smooth="yes"/>
      <point x="-892" y="-459"/>
      <point x="-924" y="-494"/>
      <point x="-979" y="-494" type="curve" smooth="yes"/>
      <point x="-1038" y="-494"/>
      <point x="-1098" y="-445"/>
      <point x="-1098" y="-350" type="curve" smooth="yes"/>
      <point x="-1098" y="-214"/>
      <point x="-1013" y="-129"/>
      <point x="-886" y="-129" type="curve" smooth="yes"/>
      <point x="-783" y="-129"/>
      <point x="-719" y="-191"/>
      <point x="-719" y="-276" type="curve" smooth="yes"/>
    </contour>
    <contour>
      <point x="-688" y="-276" type="curve"/>
      <point x="-634" y="-319" type="line"/>
      <point x="-634" y="-209"/>
      <point x="-569" y="-129"/>
      <point x="-456" y="-129" type="curve" smooth="yes"/>
      <point x="-340" y="-129"/>
      <point x="-271" y="-213"/>
      <point x="-271" y="-332" type="curve" smooth="yes"/>
      <point x="-271" y="-415"/>
      <point x="-303" y="-472"/>
      <point x="-338" y="-505" type="curve"/>
      <point x="-323" y="-541" type="line"/>
      <point x="31" y="-541" type="line"/>
      <point x="31" y="-491" type="line"/>
      <point x="-258" y="-491" type="line"/>
      <point x="-222" y="-456"/>
      <point x="-186" y="-405"/>
      <point x="-186" y="-325" type="curve" smooth="yes"/>
      <point x="-186" y="-176"/>
      <point x="-309" y="-79"/>
      <point x="-451" y="-79" type="curve" smooth="yes"/>
      <point x="-566" y="-79"/>
      <point x="-657" y="-142"/>
    </contour>
  </outline>
</glyph>
<glyph name="ba_virama_gran.liga" format="2">
  <advance width="1764"/>
  <note>
b_virlig
</note>
  <anchor x="766" y="-100" name="anudatta"/>
  <anchor x="1734" y="0" name="anusvara"/>
  <anchor x="788" y="-60" name="bottom"/>
  <anchor x="1765" y="0" name="post"/>
  <anchor x="1745" y="0" name="repha"/>
  <anchor x="892" y="900" name="svara"/>
  <anchor x="793" y="640" name="top"/>
  <anchor x="1807" y="0" name="vattu"/>
  <anchor x="1785" y="0" name="yaphalaa"/>
  <outline>
    <contour>
      <point x="1375" y="664" type="line"/>
      <point x="1430" y="608"/>
      <point x="1511" y="507"/>
      <point x="1511" y="346" type="curve" smooth="yes"/>
      <point x="1511" y="136"/>
      <point x="1383" y="48"/>
      <point x="1383" y="-106" type="curve" smooth="yes"/>
      <point x="1383" y="-210"/>
      <point x="1445" y="-268"/>
      <point x="1553" y="-268" type="curve" smooth="yes"/>
      <point x="1652" y="-268"/>
      <point x="1747" y="-211"/>
      <point x="1747" y="-100" type="curve" smooth="yes"/>
      <point x="1747" y="2"/>
      <point x="1661" y="54"/>
      <point x="1519" y="54" type="curve" smooth="yes"/>
      <point x="1230" y="54" type="line"/>
      <point x="1230" y="0" type="line"/>
      <point x="1508" y="0" type="line" smooth="yes"/>
      <point x="1603" y="0"/>
      <point x="1652" y="-43"/>
      <point x="1652" y="-106" type="curve" smooth="yes"/>
      <point x="1652" y="-154"/>
      <point x="1622" y="-214"/>
      <point x="1552" y="-214" type="curve" smooth="yes"/>
      <point x="1492" y="-214"/>
      <point x="1457" y="-170"/>
      <point x="1457" y="-105" type="curve" smooth="yes"/>
      <point x="1457" y="26"/>
      <point x="1573" y="173"/>
      <point x="1573" y="357" type="curve" smooth="yes"/>
      <point x="1573" y="513"/>
      <point x="1488" y="632"/>
      <point x="1430" y="691" type="curve"/>
    </contour>
    <component base="ba.base" xOffset="11"/>
  </outline>
</glyph>
<glyph name="bha_gran.below" format="2">
  <outline>
    <contour>
      <point x="-553" y="-382" type="curve" smooth="yes"/>
      <point x="-553" y="-278" type="line" smooth="yes"/>
      <point x="-553" y="-159"/>
      <point x="-660" y="-79"/>
      <point x="-797" y="-79" type="curve" smooth="yes"/>
      <point x="-951" y="-79"/>
      <point x="-1074" y="-177"/>
      <point x="-1074" y="-347" type="curve" smooth="yes"/>
      <point x="-1074" y="-477"/>
      <point x="-975" y="-544"/>
      <point x="-883" y="-544" type="curve" smooth="yes"/>
      <point x="-783" y="-544"/>
      <point x="-724" y="-491"/>
      <point x="-724" y="-417" type="curve" smooth="yes"/>
      <point x="-724" y="-341"/>
      <point x="-772" y="-290"/>
      <point x="-859" y="-290" type="curve" smooth="yes"/>
      <point x="-940" y="-290"/>
      <point x="-1011" y="-352"/>
      <point x="-1017" y="-438" type="curve"/>
      <point x="-988" y="-461" type="line"/>
      <point x="-983" y="-388"/>
      <point x="-943" y="-346"/>
      <point x="-890" y="-346" type="curve" smooth="yes"/>
      <point x="-834" y="-346"/>
      <point x="-810" y="-383"/>
      <point x="-810" y="-420" type="curve" smooth="yes"/>
      <point x="-810" y="-459"/>
      <point x="-842" y="-494"/>
      <point x="-897" y="-494" type="curve" smooth="yes"/>
      <point x="-956" y="-494"/>
      <point x="-1016" y="-445"/>
      <point x="-1016" y="-350" type="curve" smooth="yes"/>
      <point x="-1016" y="-213"/>
      <point x="-931" y="-129"/>
      <point x="-804" y="-129" type="curve" smooth="yes"/>
      <point x="-701" y="-129"/>
      <point x="-638" y="-191"/>
      <point x="-638" y="-276" type="curve" smooth="yes"/>
      <point x="-638" y="-353" type="line" smooth="yes"/>
      <point x="-638" y="-506"/>
      <point x="-569" y="-553"/>
      <point x="-483" y="-553" type="curve" smooth="yes"/>
      <point x="-397" y="-553"/>
      <point x="-329" y="-506"/>
      <point x="-329" y="-353" type="curve" smooth="yes"/>
      <point x="-329" y="-249" type="line" smooth="yes"/>
      <point x="-329" y="-157"/>
      <point x="-286" y="-129"/>
      <point x="-233" y="-129" type="curve" smooth="yes"/>
      <point x="-170" y="-129"/>
      <point x="-109" y="-176"/>
      <point x="-109" y="-330" type="curve" smooth="yes"/>
      <point x="-109" y="-547"/>
      <point x="-214" y="-617"/>
      <point x="-453" y="-617" type="curve" smooth="yes"/>
      <point x="-922" y="-617" type="line" smooth="yes"/>
      <point x="-995" y="-617"/>
      <point x="-1061" y="-637"/>
      <point x="-1061" y="-696" type="curve" smooth="yes"/>
      <point x="-1061" y="-737"/>
      <point x="-1035" y="-754"/>
      <point x="-987" y="-754" type="curve"/>
      <point x="-987" y="-699"/>
      <point x="-971" y="-667"/>
      <point x="-894" y="-667" type="curve" smooth="yes"/>
      <point x="-440" y="-667" type="line" smooth="yes"/>
      <point x="-181" y="-667"/>
      <point x="-24" y="-571"/>
      <point x="-24" y="-339" type="curve" smooth="yes"/>
      <point x="-24" y="-219"/>
      <point x="-76" y="-79"/>
      <point x="-232" y="-79" type="curve" smooth="yes"/>
      <point x="-324" y="-79"/>
      <point x="-414" y="-132"/>
      <point x="-414" y="-257" type="curve" smooth="yes"/>
      <point x="-414" y="-382" type="line" smooth="yes"/>
      <point x="-414" y="-475"/>
      <point x="-435" y="-503"/>
      <point x="-483" y="-503" type="curve" smooth="yes"/>
      <point x="-535" y="-503"/>
      <point x="-553" y="-475"/>
    </contour>
  </outline>
</glyph>
<glyph name="bha_gran.flat" format="2">
  <advance width="1391"/>
  <anchor x="673" y="-240" name="anudatta"/>
  <anchor x="1392" y="0" name="anusvara"/>
  <anchor x="673" y="-200" name="bottom"/>
  <anchor x="1025" y="593" name="iiMatra"/>
  <anchor x="1332" y="0" name="post"/>
  <anchor x="1322" y="0" name="repha"/>
  <anchor x="673" y="900" name="svara"/>
  <anchor x="673" y="640" name="top"/>
  <anchor x="1332" y="566" name="topright"/>
  <anchor x="1435" y="0" name="vattu"/>
  <anchor x="1203" y="468" name="virama"/>
  <anchor x="1270" y="0" name="yaphalaa"/>
  <outline>
    <contour>
      <point x="80" y="-86" type="line"/>
      <point x="80" y="-140" type="line"/>
      <point x="826" y="-140" type="line" smooth="yes"/>
      <point x="1139" y="-140"/>
      <point x="1321" y="-37"/>
      <point x="1321" y="244" type="curve" smooth="yes"/>
      <point x="1321" y="389"/>
      <point x="1266" y="559"/>
      <point x="1077" y="559" type="curve" smooth="yes"/>
      <point x="966" y="559"/>
      <point x="862" y="495"/>
      <point x="862" y="343" type="curve" smooth="yes"/>
      <point x="862" y="192" type="line" smooth="yes"/>
      <point x="862" y="80"/>
      <point x="832" y="46"/>
      <point x="773" y="46" type="curve" smooth="yes"/>
      <point x="711" y="46"/>
      <point x="684" y="80"/>
      <point x="684" y="192" type="curve" smooth="yes"/>
      <point x="684" y="318" type="line" smooth="yes"/>
      <point x="684" y="462"/>
      <point x="559" y="559"/>
      <point x="394" y="559" type="curve" smooth="yes"/>
      <point x="207" y="559"/>
      <point x="70" y="440"/>
      <point x="70" y="234" type="curve" smooth="yes"/>
      <point x="70" y="77"/>
      <point x="178" y="-4"/>
      <point x="290" y="-4" type="curve" smooth="yes"/>
      <point x="398" y="-4"/>
      <point x="470" y="60"/>
      <point x="470" y="150" type="curve" smooth="yes"/>
      <point x="470" y="242"/>
      <point x="412" y="304"/>
      <point x="318" y="304" type="curve" smooth="yes"/>
      <point x="221" y="304"/>
      <point x="139" y="229"/>
      <point x="132" y="124" type="curve"/>
      <point x="162" y="97" type="line"/>
      <point x="168" y="185"/>
      <point x="217" y="236"/>
      <point x="281" y="236" type="curve" smooth="yes"/>
      <point x="349" y="236"/>
      <point x="378" y="191"/>
      <point x="378" y="146" type="curve" smooth="yes"/>
      <point x="378" y="92"/>
      <point x="339" y="49"/>
      <point x="273" y="49" type="curve" smooth="yes"/>
      <point x="201" y="49"/>
      <point x="128" y="109"/>
      <point x="128" y="231" type="curve" smooth="yes"/>
      <point x="128" y="403"/>
      <point x="231" y="505"/>
      <point x="385" y="505" type="curve" smooth="yes"/>
      <point x="510" y="505"/>
      <point x="589" y="430"/>
      <point x="589" y="320" type="curve" smooth="yes"/>
      <point x="589" y="227" type="line" smooth="yes"/>
      <point x="589" y="42"/>
      <point x="669" y="-15"/>
      <point x="773" y="-15" type="curve" smooth="yes"/>
      <point x="877" y="-15"/>
      <point x="957" y="42"/>
      <point x="957" y="227" type="curve" smooth="yes"/>
      <point x="957" y="353" type="line" smooth="yes"/>
      <point x="957" y="471"/>
      <point x="1012" y="505"/>
      <point x="1076" y="505" type="curve" smooth="yes"/>
      <point x="1152" y="505"/>
      <point x="1226" y="448"/>
      <point x="1226" y="255" type="curve" smooth="yes"/>
      <point x="1226" y="-8"/>
      <point x="1099" y="-86"/>
      <point x="810" y="-86" type="curve" smooth="yes"/>
    </contour>
  </outline>
</glyph>
<glyph name="bhi_gran" format="2">
  <advance width="1663"/>
  <note>
bhi
</note>
  <outline>
    <contour>
      <point x="1522" y="0" type="line"/>
      <point x="1583" y="0" type="line"/>
      <point x="1583" y="575" type="line" smooth="yes"/>
      <point x="1583" y="741"/>
      <point x="1422" y="839"/>
      <point x="1235" y="839" type="curve" smooth="yes"/>
      <point x="1045" y="839"/>
      <point x="931" y="758"/>
      <point x="931" y="646" type="curve" smooth="yes"/>
      <point x="931" y="561"/>
      <point x="999" y="505"/>
      <point x="1081" y="505" type="curve" smooth="yes"/>
      <point x="1086" y="505" type="line"/>
      <point x="1086" y="559" type="line"/>
      <point x="1081" y="559" type="line" smooth="yes"/>
      <point x="1031" y="559"/>
      <point x="996" y="592"/>
      <point x="996" y="640" type="curve" smooth="yes"/>
      <point x="996" y="714"/>
      <point x="1084" y="751"/>
      <point x="1221" y="751" type="curve" smooth="yes"/>
      <point x="1396" y="751"/>
      <point x="1522" y="683"/>
      <point x="1522" y="545" type="curve" smooth="yes"/>
    </contour>
    <component base="bha_gran"/>
  </outline>
</glyph>
<glyph name="bi_gran" format="2">
  <advance width="1882"/>
  <note>
bi
</note>
  <outline>
    <contour>
      <point x="1741" y="0" type="line"/>
      <point x="1802" y="0" type="line"/>
      <point x="1802" y="570" type="line" smooth="yes"/>
      <point x="1802" y="736"/>
      <point x="1688" y="834"/>
      <point x="1523" y="834" type="curve" smooth="yes"/>
      <point x="1379" y="834"/>
      <point x="1278" y="758"/>
      <point x="1278" y="649" type="curve" smooth="yes"/>
      <point x="1278" y="561"/>
      <point x="1346" y="500"/>
      <point x="1428" y="500" type="curve" smooth="yes"/>
      <point x="1433" y="500" type="line"/>
      <point x="1433" y="554" type="line"/>
      <point x="1428" y="554" type="line" smooth="yes"/>
      <point x="1378" y="554"/>
      <point x="1343" y="587"/>
      <point x="1343" y="638" type="curve" smooth="yes"/>
      <point x="1343" y="709"/>
      <point x="1413" y="746"/>
      <point x="1514" y="746" type="curve" smooth="yes"/>
      <point x="1658" y="746"/>
      <point x="1741" y="678"/>
      <point x="1741" y="540" type="curve" smooth="yes"/>
    </contour>
    <component base="ba_gran"/>
  </outline>
</glyph>
<glyph name="ca.base" format="2">
  <advance width="1068"/>
  <outline>
    <contour>
      <point x="30" y="54" type="line"/>
      <point x="30" y="0" type="line"/>
      <point x="988" y="0" type="line"/>
      <point x="988" y="54" type="line"/>
    </contour>
    <contour>
      <point x="230" y="54" type="line"/>
      <point x="200" y="1" type="line"/>
      <point x="256" y="1" type="line" smooth="yes"/>
      <point x="448" y="1"/>
      <point x="606" y="159"/>
      <point x="606" y="326" type="curve" smooth="yes"/>
      <point x="606" y="470"/>
      <point x="484" y="559"/>
      <point x="324" y="559" type="curve" smooth="yes"/>
      <point x="189" y="559"/>
      <point x="89" y="495"/>
      <point x="89" y="385" type="curve" smooth="yes"/>
      <point x="89" y="307"/>
      <point x="157" y="247"/>
      <point x="249" y="247" type="curve" smooth="yes"/>
      <point x="331" y="247"/>
      <point x="397" y="296"/>
      <point x="397" y="377" type="curve" smooth="yes"/>
      <point x="397" y="452"/>
      <point x="327" y="513"/>
      <point x="268" y="519" type="curve"/>
      <point x="214" y="516" type="line"/>
      <point x="273" y="500"/>
      <point x="306" y="439"/>
      <point x="306" y="386" type="curve" smooth="yes"/>
      <point x="306" y="337"/>
      <point x="281" y="301"/>
      <point x="228" y="301" type="curve" smooth="yes"/>
      <point x="182" y="301"/>
      <point x="147" y="328"/>
      <point x="147" y="382" type="curve" smooth="yes"/>
      <point x="147" y="461"/>
      <point x="218" y="505"/>
      <point x="303" y="505" type="curve" smooth="yes"/>
      <point x="415" y="505"/>
      <point x="511" y="427"/>
      <point x="511" y="302" type="curve" smooth="yes"/>
      <point x="511" y="194"/>
      <point x="435" y="54"/>
      <point x="272" y="54" type="curve" smooth="yes"/>
    </contour>
  </outline>
</glyph>
<glyph name="ca_gran.below" format="2">
  <outline>
    <contour>
      <point x="-208" y="-83" type="line"/>
      <point x="-208" y="-528" type="line"/>
      <point x="-123" y="-528" type="line"/>
      <point x="-123" y="-83" type="line"/>
    </contour>
    <contour>
      <point x="-899" y="-491" type="line"/>
      <point x="-899" y="-541" type="line"/>
      <point x="-123" y="-541" type="line"/>
      <point x="-123" y="-491" type="line"/>
    </contour>
    <contour>
      <point x="-729" y="-491" type="line"/>
      <point x="-754" y="-540" type="line"/>
      <point x="-708" y="-540" type="line" smooth="yes"/>
      <point x="-549" y="-540"/>
      <point x="-411" y="-409"/>
      <point x="-411" y="-271" type="curve" smooth="yes"/>
      <point x="-411" y="-152"/>
      <point x="-519" y="-79"/>
      <point x="-652" y="-79" type="curve" smooth="yes"/>
      <point x="-763" y="-79"/>
      <point x="-852" y="-132"/>
      <point x="-852" y="-223" type="curve" smooth="yes"/>
      <point x="-852" y="-287"/>
      <point x="-803" y="-341"/>
      <point x="-727" y="-341" type="curve" smooth="yes"/>
      <point x="-659" y="-341"/>
      <point x="-591" y="-296"/>
      <point x="-591" y="-229" type="curve" smooth="yes"/>
      <point x="-591" y="-167"/>
      <point x="-649" y="-117"/>
      <point x="-698" y="-112" type="curve"/>
      <point x="-742" y="-114" type="line"/>
      <point x="-694" y="-128"/>
      <point x="-666" y="-178"/>
      <point x="-666" y="-222" type="curve" smooth="yes"/>
      <point x="-666" y="-262"/>
      <point x="-687" y="-292"/>
      <point x="-731" y="-292" type="curve" smooth="yes"/>
      <point x="-769" y="-292"/>
      <point x="-798" y="-270"/>
      <point x="-798" y="-225" type="curve" smooth="yes"/>
      <point x="-798" y="-164"/>
      <point x="-739" y="-129"/>
      <point x="-669" y="-129" type="curve" smooth="yes"/>
      <point x="-576" y="-129"/>
      <point x="-497" y="-192"/>
      <point x="-497" y="-291" type="curve" smooth="yes"/>
      <point x="-497" y="-381"/>
      <point x="-560" y="-491"/>
      <point x="-695" y="-491" type="curve" smooth="yes"/>
    </contour>
  </outline>
</glyph>
<glyph name="ca_virama_gran.liga" format="2">
  <advance width="1304"/>
  <note>
c_virlig
</note>
  <outline>
    <contour>
      <point x="932" y="794" type="line"/>
      <point x="949" y="717"/>
      <point x="961" y="610"/>
      <point x="961" y="468" type="curve" smooth="yes"/>
      <point x="961" y="319"/>
      <point x="948" y="123"/>
      <point x="922" y="0" type="curve"/>
      <point x="988" y="0" type="line"/>
      <point x="1013" y="120"/>
      <point x="1027" y="316"/>
      <point x="1027" y="467" type="curve" smooth="yes"/>
      <point x="1027" y="620"/>
      <point x="1016" y="734"/>
      <point x="998" y="814" type="curve"/>
    </contour>
    <contour>
      <point x="985" y="422" type="curve"/>
      <point x="1026" y="422" type="line"/>
      <point x="1021" y="455"/>
      <point x="1027" y="479"/>
      <point x="1027" y="520" type="curve" smooth="yes"/>
      <point x="1027" y="586"/>
      <point x="1061" y="642"/>
      <point x="1138" y="642" type="curve" smooth="yes"/>
      <point x="1194" y="642"/>
      <point x="1225" y="612"/>
      <point x="1225" y="564" type="curve" smooth="yes"/>
      <point x="1225" y="510"/>
      <point x="1186" y="477"/>
      <point x="1129" y="477" type="curve" smooth="yes"/>
      <point x="1084" y="477"/>
      <point x="1036" y="499"/>
      <point x="1015" y="514" type="curve"/>
      <point x="1003" y="481" type="line"/>
      <point x="1021" y="453"/>
      <point x="1063" y="423"/>
      <point x="1131" y="423" type="curve" smooth="yes"/>
      <point x="1229" y="423"/>
      <point x="1311" y="484"/>
      <point x="1311" y="572" type="curve" smooth="yes"/>
      <point x="1311" y="659"/>
      <point x="1233" y="696"/>
      <point x="1157" y="696" type="curve" smooth="yes"/>
      <point x="1042" y="696"/>
      <point x="977" y="610"/>
      <point x="977" y="509" type="curve" smooth="yes"/>
      <point x="977" y="456"/>
      <point x="978" y="445"/>
    </contour>
    <component base="ca.base"/>
  </outline>
</glyph>
<glyph name="cha_gran.below" format="2">
  <outline>
    <contour>
      <point x="-1038" y="-491" type="line"/>
      <point x="-1038" y="-541" type="line"/>
      <point x="-100" y="-541" type="line"/>
      <point x="-100" y="-491" type="line"/>
    </contour>
    <contour>
      <point x="-869" y="-491" type="line"/>
      <point x="-894" y="-540" type="line"/>
      <point x="-848" y="-540" type="line" smooth="yes"/>
      <point x="-689" y="-540"/>
      <point x="-551" y="-409"/>
      <point x="-551" y="-271" type="curve" smooth="yes"/>
      <point x="-551" y="-152"/>
      <point x="-659" y="-79"/>
      <point x="-792" y="-79" type="curve" smooth="yes"/>
      <point x="-903" y="-79"/>
      <point x="-992" y="-132"/>
      <point x="-992" y="-223" type="curve" smooth="yes"/>
      <point x="-992" y="-287"/>
      <point x="-943" y="-341"/>
      <point x="-867" y="-341" type="curve" smooth="yes"/>
      <point x="-799" y="-341"/>
      <point x="-731" y="-296"/>
      <point x="-731" y="-229" type="curve" smooth="yes"/>
      <point x="-731" y="-167"/>
      <point x="-789" y="-117"/>
      <point x="-838" y="-112" type="curve"/>
      <point x="-882" y="-114" type="line"/>
      <point x="-834" y="-128"/>
      <point x="-806" y="-178"/>
      <point x="-806" y="-222" type="curve" smooth="yes"/>
      <point x="-806" y="-262"/>
      <point x="-827" y="-292"/>
      <point x="-871" y="-292" type="curve" smooth="yes"/>
      <point x="-909" y="-292"/>
      <point x="-938" y="-270"/>
      <point x="-938" y="-225" type="curve" smooth="yes"/>
      <point x="-938" y="-164"/>
      <point x="-879" y="-129"/>
      <point x="-809" y="-129" type="curve" smooth="yes"/>
      <point x="-716" y="-129"/>
      <point x="-637" y="-192"/>
      <point x="-637" y="-291" type="curve" smooth="yes"/>
      <point x="-637" y="-381"/>
      <point x="-700" y="-491"/>
      <point x="-835" y="-491" type="curve" smooth="yes"/>
    </contour>
    <contour>
      <point x="-378" y="-219" type="curve" smooth="yes"/>
      <point x="-378" y="-541" type="line"/>
      <point x="-293" y="-541" type="line"/>
      <point x="-293" y="-223" type="line" smooth="yes"/>
      <point x="-293" y="-167"/>
      <point x="-269" y="-129"/>
      <point x="-218" y="-129" type="curve" smooth="yes"/>
      <point x="-178" y="-129"/>
      <point x="-147" y="-158"/>
      <point x="-147" y="-212" type="curve" smooth="yes"/>
      <point x="-147" y="-541" type="line"/>
      <point x="-93" y="-541" type="line"/>
      <point x="-93" y="-207" type="line" smooth="yes"/>
      <point x="-93" y="-124"/>
      <point x="-150" y="-79"/>
      <point x="-224" y="-79" type="curve" smooth="yes"/>
      <point x="-323" y="-79"/>
      <point x="-378" y="-137"/>
    </contour>
  </outline>
</glyph>
<glyph name="chi_gran" format="2">
  <advance width="1625"/>
  <note>
chi
</note>
  <anchor x="635" y="-82" name="anudatta"/>
  <anchor x="1625" y="0" name="anusvara"/>
  <anchor x="595" y="-60" name="bottom"/>
  <anchor x="1594" y="0" name="post"/>
  <anchor x="1605" y="0" name="repha"/>
  <anchor x="782" y="900" name="svara"/>
  <anchor x="506" y="640" name="top"/>
  <anchor x="1668" y="0" name="vattu"/>
  <anchor x="1565" y="0" name="yaphalaa"/>
  <anchor x="1045" y="589" name="iiMatra"/>
  <anchor x="1350" y="566" name="topright"/>
  <anchor x="1209" y="468" name="virama"/>
  <outline>
    <contour>
      <point x="1484" y="-1" type="line"/>
      <point x="1545" y="-1" type="line"/>
      <point x="1545" y="574" type="line" smooth="yes"/>
      <point x="1545" y="740"/>
      <point x="1397" y="838"/>
      <point x="1216" y="838" type="curve" smooth="yes"/>
      <point x="1039" y="838"/>
      <point x="929" y="759"/>
      <point x="929" y="647" type="curve" smooth="yes"/>
      <point x="929" y="562"/>
      <point x="997" y="504"/>
      <point x="1079" y="504" type="curve" smooth="yes"/>
      <point x="1084" y="504" type="line"/>
      <point x="1084" y="558" type="line"/>
      <point x="1079" y="558" type="line" smooth="yes"/>
      <point x="1029" y="558"/>
      <point x="994" y="591"/>
      <point x="994" y="639" type="curve" smooth="yes"/>
      <point x="994" y="713"/>
      <point x="1077" y="750"/>
      <point x="1204" y="750" type="curve" smooth="yes"/>
      <point x="1370" y="750"/>
      <point x="1484" y="682"/>
      <point x="1484" y="544" type="curve" smooth="yes"/>
    </contour>
    <component base="cha_gran"/>
  </outline>
</glyph>
<glyph name="ci_gran" format="2">
  <advance width="1359"/>
  <note>
ci
</note>
  <outline>
    <contour>
      <point x="1218" y="0" type="line"/>
      <point x="1279" y="0" type="line"/>
      <point x="1279" y="570" type="line" smooth="yes"/>
      <point x="1279" y="736"/>
      <point x="1165" y="834"/>
      <point x="1000" y="834" type="curve" smooth="yes"/>
      <point x="856" y="834"/>
      <point x="755" y="758"/>
      <point x="755" y="649" type="curve" smooth="yes"/>
      <point x="755" y="561"/>
      <point x="823" y="500"/>
      <point x="905" y="500" type="curve" smooth="yes"/>
      <point x="910" y="500" type="line"/>
      <point x="910" y="554" type="line"/>
      <point x="905" y="554" type="line" smooth="yes"/>
      <point x="855" y="554"/>
      <point x="820" y="587"/>
      <point x="820" y="638" type="curve" smooth="yes"/>
      <point x="820" y="709"/>
      <point x="890" y="746"/>
      <point x="991" y="746" type="curve" smooth="yes"/>
      <point x="1135" y="746"/>
      <point x="1218" y="678"/>
      <point x="1218" y="540" type="curve" smooth="yes"/>
    </contour>
    <component base="ca_gran"/>
  </outline>
</glyph>
<glyph name="d_dha_gran.below" format="2">
  <outline>
    <contour>
      <point x="-445" y="-358" type="line"/>
      <point x="-898" y="-358" type="line"/>
      <point x="-898" y="-408" type="line"/>
      <point x="-445" y="-408" type="line"/>
    </contour>
    <contour>
      <point x="-775" y="-358" type="line"/>
      <point x="-775" y="-398" type="line"/>
      <point x="-703" y="-398" type="line" smooth="yes"/>
      <point x="-589" y="-398"/>
      <point x="-494" y="-339"/>
      <point x="-494" y="-229" type="curve" smooth="yes"/>
      <point x="-494" y="-138"/>
      <point x="-591" y="-79"/>
      <point x="-712" y="-79" type="curve" smooth="yes"/>
      <point x="-819" y="-79"/>
      <point x="-897" y="-127"/>
      <point x="-897" y="-210" type="curve" smooth="yes"/>
      <point x="-897" y="-268"/>
      <point x="-853" y="-318"/>
      <point x="-778" y="-318" type="curve" smooth="yes"/>
      <point x="-707" y="-318"/>
      <point x="-654" y="-277"/>
      <point x="-654" y="-216" type="curve" smooth="yes"/>
      <point x="-654" y="-160"/>
      <point x="-710" y="-114"/>
      <point x="-754" y="-110" type="curve"/>
      <point x="-795" y="-111" type="line"/>
      <point x="-750" y="-124"/>
      <point x="-725" y="-169"/>
      <point x="-725" y="-210" type="curve" smooth="yes"/>
      <point x="-725" y="-246"/>
      <point x="-744" y="-270"/>
      <point x="-784" y="-270" type="curve" smooth="yes"/>
      <point x="-819" y="-270"/>
      <point x="-845" y="-253"/>
      <point x="-845" y="-212" type="curve" smooth="yes"/>
      <point x="-845" y="-158"/>
      <point x="-791" y="-125"/>
      <point x="-728" y="-125" type="curve" smooth="yes"/>
      <point x="-643" y="-125"/>
      <point x="-572" y="-168"/>
      <point x="-572" y="-237" type="curve" smooth="yes"/>
      <point x="-572" y="-316"/>
      <point x="-621" y="-358"/>
      <point x="-714" y="-358" type="curve" smooth="yes"/>
    </contour>
    <contour>
      <point x="-610" y="-620" type="curve" smooth="yes"/>
      <point x="-677" y="-620"/>
      <point x="-724" y="-568"/>
      <point x="-724" y="-506" type="curve" smooth="yes"/>
      <point x="-724" y="-438"/>
      <point x="-679" y="-402"/>
      <point x="-636" y="-402" type="curve"/>
      <point x="-683" y="-367" type="line"/>
      <point x="-735" y="-373"/>
      <point x="-788" y="-425"/>
      <point x="-788" y="-503" type="curve" smooth="yes"/>
      <point x="-788" y="-600"/>
      <point x="-710" y="-670"/>
      <point x="-605" y="-670" type="curve" smooth="yes"/>
      <point x="-516" y="-670"/>
      <point x="-452" y="-612"/>
      <point x="-421" y="-544" type="curve"/>
      <point x="-438" y="-544" type="line"/>
      <point x="-420" y="-606"/>
      <point x="-375" y="-670"/>
      <point x="-260" y="-670" type="curve" smooth="yes"/>
      <point x="-119" y="-670"/>
      <point x="-6" y="-530"/>
      <point x="-6" y="-370" type="curve" smooth="yes"/>
      <point x="-6" y="-200"/>
      <point x="-147" y="-110"/>
      <point x="-238" y="-99" type="curve"/>
      <point x="-246" y="-150" type="line"/>
      <point x="-187" y="-163"/>
      <point x="-91" y="-226"/>
      <point x="-91" y="-374" type="curve" smooth="yes"/>
      <point x="-91" y="-525"/>
      <point x="-166" y="-620"/>
      <point x="-267" y="-620" type="curve" smooth="yes"/>
      <point x="-357" y="-620"/>
      <point x="-391" y="-523"/>
      <point x="-399" y="-496" type="curve"/>
      <point x="-466" y="-496" type="line"/>
      <point x="-476" y="-541"/>
      <point x="-523" y="-620"/>
    </contour>
  </outline>
</glyph>
